<?xml version="1.0" encoding="utf-8" standalone="no"?>
<!DOCTYPE svg PUBLIC "-//W3C//DTD SVG 1.1//EN"
  "http://www.w3.org/Graphics/SVG/1.1/DTD/svg11.dtd">
<svg xmlns:xlink="http://www.w3.org/1999/xlink" width="576pt" height="360pt" viewBox="0 0 576 360" xmlns="http://www.w3.org/2000/svg" version="1.1">
 <metadata>
  <rdf:RDF xmlns:dc="http://purl.org/dc/elements/1.1/" xmlns:cc="http://creativecommons.org/ns#" xmlns:rdf="http://www.w3.org/1999/02/22-rdf-syntax-ns#">
   <cc:Work>
    <dc:type rdf:resource="http://purl.org/dc/dcmitype/StillImage"/>
    <dc:date>2026-06-16T19:59:51.409583</dc:date>
    <dc:format>image/svg+xml</dc:format>
    <dc:creator>
     <cc:Agent>
      <dc:title>Matplotlib v3.10.5, https://matplotlib.org/</dc:title>
     </cc:Agent>
    </dc:creator>
   </cc:Work>
  </rdf:RDF>
 </metadata>
 <defs>
  <style type="text/css">*{stroke-linejoin: round; stroke-linecap: butt}</style>
 </defs>
 <g id="figure_1">
  <g id="patch_1">
   <path d="M 0 360 
L 576 360 
L 576 0 
L 0 0 
z
" style="fill: #1f1e1d"/>
  </g>
  <g id="axes_1">
   <g id="patch_2">
    <path d="M 29.92 330.08 
L 563.04 330.08 
L 563.04 29.76 
L 29.92 29.76 
z
" style="fill: #1f1e1d"/>
   </g>
   <g id="matplotlib.axis_1">
    <g id="text_1">
     <!-- distance between two tokens  (near → far) -->
     <g style="fill: #e7e5e4" transform="translate(169.327813 343.198125) scale(0.12 -0.12)">
      <defs>
       <path id="DejaVuSans-64" d="M 2906 2969 
L 2906 4863 
L 3481 4863 
L 3481 0 
L 2906 0 
L 2906 525 
Q 2725 213 2448 61 
Q 2172 -91 1784 -91 
Q 1150 -91 751 415 
Q 353 922 353 1747 
Q 353 2572 751 3078 
Q 1150 3584 1784 3584 
Q 2172 3584 2448 3432 
Q 2725 3281 2906 2969 
z
M 947 1747 
Q 947 1113 1208 752 
Q 1469 391 1925 391 
Q 2381 391 2643 752 
Q 2906 1113 2906 1747 
Q 2906 2381 2643 2742 
Q 2381 3103 1925 3103 
Q 1469 3103 1208 2742 
Q 947 2381 947 1747 
z
" transform="scale(0.015625)"/>
       <path id="DejaVuSans-69" d="M 603 3500 
L 1178 3500 
L 1178 0 
L 603 0 
L 603 3500 
z
M 603 4863 
L 1178 4863 
L 1178 4134 
L 603 4134 
L 603 4863 
z
" transform="scale(0.015625)"/>
       <path id="DejaVuSans-73" d="M 2834 3397 
L 2834 2853 
Q 2591 2978 2328 3040 
Q 2066 3103 1784 3103 
Q 1356 3103 1142 2972 
Q 928 2841 928 2578 
Q 928 2378 1081 2264 
Q 1234 2150 1697 2047 
L 1894 2003 
Q 2506 1872 2764 1633 
Q 3022 1394 3022 966 
Q 3022 478 2636 193 
Q 2250 -91 1575 -91 
Q 1294 -91 989 -36 
Q 684 19 347 128 
L 347 722 
Q 666 556 975 473 
Q 1284 391 1588 391 
Q 1994 391 2212 530 
Q 2431 669 2431 922 
Q 2431 1156 2273 1281 
Q 2116 1406 1581 1522 
L 1381 1569 
Q 847 1681 609 1914 
Q 372 2147 372 2553 
Q 372 3047 722 3315 
Q 1072 3584 1716 3584 
Q 2034 3584 2315 3537 
Q 2597 3491 2834 3397 
z
" transform="scale(0.015625)"/>
       <path id="DejaVuSans-74" d="M 1172 4494 
L 1172 3500 
L 2356 3500 
L 2356 3053 
L 1172 3053 
L 1172 1153 
Q 1172 725 1289 603 
Q 1406 481 1766 481 
L 2356 481 
L 2356 0 
L 1766 0 
Q 1100 0 847 248 
Q 594 497 594 1153 
L 594 3053 
L 172 3053 
L 172 3500 
L 594 3500 
L 594 4494 
L 1172 4494 
z
" transform="scale(0.015625)"/>
       <path id="DejaVuSans-61" d="M 2194 1759 
Q 1497 1759 1228 1600 
Q 959 1441 959 1056 
Q 959 750 1161 570 
Q 1363 391 1709 391 
Q 2188 391 2477 730 
Q 2766 1069 2766 1631 
L 2766 1759 
L 2194 1759 
z
M 3341 1997 
L 3341 0 
L 2766 0 
L 2766 531 
Q 2569 213 2275 61 
Q 1981 -91 1556 -91 
Q 1019 -91 701 211 
Q 384 513 384 1019 
Q 384 1609 779 1909 
Q 1175 2209 1959 2209 
L 2766 2209 
L 2766 2266 
Q 2766 2663 2505 2880 
Q 2244 3097 1772 3097 
Q 1472 3097 1187 3025 
Q 903 2953 641 2809 
L 641 3341 
Q 956 3463 1253 3523 
Q 1550 3584 1831 3584 
Q 2591 3584 2966 3190 
Q 3341 2797 3341 1997 
z
" transform="scale(0.015625)"/>
       <path id="DejaVuSans-6e" d="M 3513 2113 
L 3513 0 
L 2938 0 
L 2938 2094 
Q 2938 2591 2744 2837 
Q 2550 3084 2163 3084 
Q 1697 3084 1428 2787 
Q 1159 2491 1159 1978 
L 1159 0 
L 581 0 
L 581 3500 
L 1159 3500 
L 1159 2956 
Q 1366 3272 1645 3428 
Q 1925 3584 2291 3584 
Q 2894 3584 3203 3211 
Q 3513 2838 3513 2113 
z
" transform="scale(0.015625)"/>
       <path id="DejaVuSans-63" d="M 3122 3366 
L 3122 2828 
Q 2878 2963 2633 3030 
Q 2388 3097 2138 3097 
Q 1578 3097 1268 2742 
Q 959 2388 959 1747 
Q 959 1106 1268 751 
Q 1578 397 2138 397 
Q 2388 397 2633 464 
Q 2878 531 3122 666 
L 3122 134 
Q 2881 22 2623 -34 
Q 2366 -91 2075 -91 
Q 1284 -91 818 406 
Q 353 903 353 1747 
Q 353 2603 823 3093 
Q 1294 3584 2113 3584 
Q 2378 3584 2631 3529 
Q 2884 3475 3122 3366 
z
" transform="scale(0.015625)"/>
       <path id="DejaVuSans-65" d="M 3597 1894 
L 3597 1613 
L 953 1613 
Q 991 1019 1311 708 
Q 1631 397 2203 397 
Q 2534 397 2845 478 
Q 3156 559 3463 722 
L 3463 178 
Q 3153 47 2828 -22 
Q 2503 -91 2169 -91 
Q 1331 -91 842 396 
Q 353 884 353 1716 
Q 353 2575 817 3079 
Q 1281 3584 2069 3584 
Q 2775 3584 3186 3129 
Q 3597 2675 3597 1894 
z
M 3022 2063 
Q 3016 2534 2758 2815 
Q 2500 3097 2075 3097 
Q 1594 3097 1305 2825 
Q 1016 2553 972 2059 
L 3022 2063 
z
" transform="scale(0.015625)"/>
       <path id="DejaVuSans-20" transform="scale(0.015625)"/>
       <path id="DejaVuSans-62" d="M 3116 1747 
Q 3116 2381 2855 2742 
Q 2594 3103 2138 3103 
Q 1681 3103 1420 2742 
Q 1159 2381 1159 1747 
Q 1159 1113 1420 752 
Q 1681 391 2138 391 
Q 2594 391 2855 752 
Q 3116 1113 3116 1747 
z
M 1159 2969 
Q 1341 3281 1617 3432 
Q 1894 3584 2278 3584 
Q 2916 3584 3314 3078 
Q 3713 2572 3713 1747 
Q 3713 922 3314 415 
Q 2916 -91 2278 -91 
Q 1894 -91 1617 61 
Q 1341 213 1159 525 
L 1159 0 
L 581 0 
L 581 4863 
L 1159 4863 
L 1159 2969 
z
" transform="scale(0.015625)"/>
       <path id="DejaVuSans-77" d="M 269 3500 
L 844 3500 
L 1563 769 
L 2278 3500 
L 2956 3500 
L 3675 769 
L 4391 3500 
L 4966 3500 
L 4050 0 
L 3372 0 
L 2619 2869 
L 1863 0 
L 1184 0 
L 269 3500 
z
" transform="scale(0.015625)"/>
       <path id="DejaVuSans-6f" d="M 1959 3097 
Q 1497 3097 1228 2736 
Q 959 2375 959 1747 
Q 959 1119 1226 758 
Q 1494 397 1959 397 
Q 2419 397 2687 759 
Q 2956 1122 2956 1747 
Q 2956 2369 2687 2733 
Q 2419 3097 1959 3097 
z
M 1959 3584 
Q 2709 3584 3137 3096 
Q 3566 2609 3566 1747 
Q 3566 888 3137 398 
Q 2709 -91 1959 -91 
Q 1206 -91 779 398 
Q 353 888 353 1747 
Q 353 2609 779 3096 
Q 1206 3584 1959 3584 
z
" transform="scale(0.015625)"/>
       <path id="DejaVuSans-6b" d="M 581 4863 
L 1159 4863 
L 1159 1991 
L 2875 3500 
L 3609 3500 
L 1753 1863 
L 3688 0 
L 2938 0 
L 1159 1709 
L 1159 0 
L 581 0 
L 581 4863 
z
" transform="scale(0.015625)"/>
       <path id="DejaVuSans-28" d="M 1984 4856 
Q 1566 4138 1362 3434 
Q 1159 2731 1159 2009 
Q 1159 1288 1364 580 
Q 1569 -128 1984 -844 
L 1484 -844 
Q 1016 -109 783 600 
Q 550 1309 550 2009 
Q 550 2706 781 3412 
Q 1013 4119 1484 4856 
L 1984 4856 
z
" transform="scale(0.015625)"/>
       <path id="DejaVuSans-72" d="M 2631 2963 
Q 2534 3019 2420 3045 
Q 2306 3072 2169 3072 
Q 1681 3072 1420 2755 
Q 1159 2438 1159 1844 
L 1159 0 
L 581 0 
L 581 3500 
L 1159 3500 
L 1159 2956 
Q 1341 3275 1631 3429 
Q 1922 3584 2338 3584 
Q 2397 3584 2469 3576 
Q 2541 3569 2628 3553 
L 2631 2963 
z
" transform="scale(0.015625)"/>
       <path id="DejaVuSans-2192" d="M 5050 2147 
L 5050 1866 
L 3822 638 
L 3447 1013 
L 4175 1741 
L 366 1741 
L 366 2272 
L 4175 2272 
L 3447 3000 
L 3822 3375 
L 5050 2147 
z
" transform="scale(0.015625)"/>
       <path id="DejaVuSans-66" d="M 2375 4863 
L 2375 4384 
L 1825 4384 
Q 1516 4384 1395 4259 
Q 1275 4134 1275 3809 
L 1275 3500 
L 2222 3500 
L 2222 3053 
L 1275 3053 
L 1275 0 
L 697 0 
L 697 3053 
L 147 3053 
L 147 3500 
L 697 3500 
L 697 3744 
Q 697 4328 969 4595 
Q 1241 4863 1831 4863 
L 2375 4863 
z
" transform="scale(0.015625)"/>
       <path id="DejaVuSans-29" d="M 513 4856 
L 1013 4856 
Q 1481 4119 1714 3412 
Q 1947 2706 1947 2009 
Q 1947 1309 1714 600 
Q 1481 -109 1013 -844 
L 513 -844 
Q 928 -128 1133 580 
Q 1338 1288 1338 2009 
Q 1338 2731 1133 3434 
Q 928 4138 513 4856 
z
" transform="scale(0.015625)"/>
      </defs>
      <use xlink:href="#DejaVuSans-64"/>
      <use xlink:href="#DejaVuSans-69" transform="translate(63.476562 0)"/>
      <use xlink:href="#DejaVuSans-73" transform="translate(91.259766 0)"/>
      <use xlink:href="#DejaVuSans-74" transform="translate(143.359375 0)"/>
      <use xlink:href="#DejaVuSans-61" transform="translate(182.568359 0)"/>
      <use xlink:href="#DejaVuSans-6e" transform="translate(243.847656 0)"/>
      <use xlink:href="#DejaVuSans-63" transform="translate(307.226562 0)"/>
      <use xlink:href="#DejaVuSans-65" transform="translate(362.207031 0)"/>
      <use xlink:href="#DejaVuSans-20" transform="translate(423.730469 0)"/>
      <use xlink:href="#DejaVuSans-62" transform="translate(455.517578 0)"/>
      <use xlink:href="#DejaVuSans-65" transform="translate(518.994141 0)"/>
      <use xlink:href="#DejaVuSans-74" transform="translate(580.517578 0)"/>
      <use xlink:href="#DejaVuSans-77" transform="translate(619.726562 0)"/>
      <use xlink:href="#DejaVuSans-65" transform="translate(701.513672 0)"/>
      <use xlink:href="#DejaVuSans-65" transform="translate(763.037109 0)"/>
      <use xlink:href="#DejaVuSans-6e" transform="translate(824.560547 0)"/>
      <use xlink:href="#DejaVuSans-20" transform="translate(887.939453 0)"/>
      <use xlink:href="#DejaVuSans-74" transform="translate(919.726562 0)"/>
      <use xlink:href="#DejaVuSans-77" transform="translate(958.935547 0)"/>
      <use xlink:href="#DejaVuSans-6f" transform="translate(1040.722656 0)"/>
      <use xlink:href="#DejaVuSans-20" transform="translate(1101.904297 0)"/>
      <use xlink:href="#DejaVuSans-74" transform="translate(1133.691406 0)"/>
      <use xlink:href="#DejaVuSans-6f" transform="translate(1172.900391 0)"/>
      <use xlink:href="#DejaVuSans-6b" transform="translate(1234.082031 0)"/>
      <use xlink:href="#DejaVuSans-65" transform="translate(1288.367188 0)"/>
      <use xlink:href="#DejaVuSans-6e" transform="translate(1349.890625 0)"/>
      <use xlink:href="#DejaVuSans-73" transform="translate(1413.269531 0)"/>
      <use xlink:href="#DejaVuSans-20" transform="translate(1465.369141 0)"/>
      <use xlink:href="#DejaVuSans-20" transform="translate(1497.15625 0)"/>
      <use xlink:href="#DejaVuSans-28" transform="translate(1528.943359 0)"/>
      <use xlink:href="#DejaVuSans-6e" transform="translate(1567.957031 0)"/>
      <use xlink:href="#DejaVuSans-65" transform="translate(1631.335938 0)"/>
      <use xlink:href="#DejaVuSans-61" transform="translate(1692.859375 0)"/>
      <use xlink:href="#DejaVuSans-72" transform="translate(1754.138672 0)"/>
      <use xlink:href="#DejaVuSans-20" transform="translate(1795.251953 0)"/>
      <use xlink:href="#DejaVuSans-2192" transform="translate(1827.039062 0)"/>
      <use xlink:href="#DejaVuSans-20" transform="translate(1910.828125 0)"/>
      <use xlink:href="#DejaVuSans-66" transform="translate(1942.615234 0)"/>
      <use xlink:href="#DejaVuSans-61" transform="translate(1977.820312 0)"/>
      <use xlink:href="#DejaVuSans-72" transform="translate(2039.099609 0)"/>
      <use xlink:href="#DejaVuSans-29" transform="translate(2080.212891 0)"/>
     </g>
    </g>
   </g>
   <g id="matplotlib.axis_2">
    <g id="text_2">
     <!-- attention penalty  (bigger = more ignored) -->
     <g style="fill: #e7e5e4" transform="translate(23.424375 308.56375) rotate(-90) scale(0.12 -0.12)">
      <defs>
       <path id="DejaVuSans-70" d="M 1159 525 
L 1159 -1331 
L 581 -1331 
L 581 3500 
L 1159 3500 
L 1159 2969 
Q 1341 3281 1617 3432 
Q 1894 3584 2278 3584 
Q 2916 3584 3314 3078 
Q 3713 2572 3713 1747 
Q 3713 922 3314 415 
Q 2916 -91 2278 -91 
Q 1894 -91 1617 61 
Q 1341 213 1159 525 
z
M 3116 1747 
Q 3116 2381 2855 2742 
Q 2594 3103 2138 3103 
Q 1681 3103 1420 2742 
Q 1159 2381 1159 1747 
Q 1159 1113 1420 752 
Q 1681 391 2138 391 
Q 2594 391 2855 752 
Q 3116 1113 3116 1747 
z
" transform="scale(0.015625)"/>
       <path id="DejaVuSans-6c" d="M 603 4863 
L 1178 4863 
L 1178 0 
L 603 0 
L 603 4863 
z
" transform="scale(0.015625)"/>
       <path id="DejaVuSans-79" d="M 2059 -325 
Q 1816 -950 1584 -1140 
Q 1353 -1331 966 -1331 
L 506 -1331 
L 506 -850 
L 844 -850 
Q 1081 -850 1212 -737 
Q 1344 -625 1503 -206 
L 1606 56 
L 191 3500 
L 800 3500 
L 1894 763 
L 2988 3500 
L 3597 3500 
L 2059 -325 
z
" transform="scale(0.015625)"/>
       <path id="DejaVuSans-67" d="M 2906 1791 
Q 2906 2416 2648 2759 
Q 2391 3103 1925 3103 
Q 1463 3103 1205 2759 
Q 947 2416 947 1791 
Q 947 1169 1205 825 
Q 1463 481 1925 481 
Q 2391 481 2648 825 
Q 2906 1169 2906 1791 
z
M 3481 434 
Q 3481 -459 3084 -895 
Q 2688 -1331 1869 -1331 
Q 1566 -1331 1297 -1286 
Q 1028 -1241 775 -1147 
L 775 -588 
Q 1028 -725 1275 -790 
Q 1522 -856 1778 -856 
Q 2344 -856 2625 -561 
Q 2906 -266 2906 331 
L 2906 616 
Q 2728 306 2450 153 
Q 2172 0 1784 0 
Q 1141 0 747 490 
Q 353 981 353 1791 
Q 353 2603 747 3093 
Q 1141 3584 1784 3584 
Q 2172 3584 2450 3431 
Q 2728 3278 2906 2969 
L 2906 3500 
L 3481 3500 
L 3481 434 
z
" transform="scale(0.015625)"/>
       <path id="DejaVuSans-3d" d="M 678 2906 
L 4684 2906 
L 4684 2381 
L 678 2381 
L 678 2906 
z
M 678 1631 
L 4684 1631 
L 4684 1100 
L 678 1100 
L 678 1631 
z
" transform="scale(0.015625)"/>
       <path id="DejaVuSans-6d" d="M 3328 2828 
Q 3544 3216 3844 3400 
Q 4144 3584 4550 3584 
Q 5097 3584 5394 3201 
Q 5691 2819 5691 2113 
L 5691 0 
L 5113 0 
L 5113 2094 
Q 5113 2597 4934 2840 
Q 4756 3084 4391 3084 
Q 3944 3084 3684 2787 
Q 3425 2491 3425 1978 
L 3425 0 
L 2847 0 
L 2847 2094 
Q 2847 2600 2669 2842 
Q 2491 3084 2119 3084 
Q 1678 3084 1418 2786 
Q 1159 2488 1159 1978 
L 1159 0 
L 581 0 
L 581 3500 
L 1159 3500 
L 1159 2956 
Q 1356 3278 1631 3431 
Q 1906 3584 2284 3584 
Q 2666 3584 2933 3390 
Q 3200 3197 3328 2828 
z
" transform="scale(0.015625)"/>
      </defs>
      <use xlink:href="#DejaVuSans-61"/>
      <use xlink:href="#DejaVuSans-74" transform="translate(61.279297 0)"/>
      <use xlink:href="#DejaVuSans-74" transform="translate(100.488281 0)"/>
      <use xlink:href="#DejaVuSans-65" transform="translate(139.697266 0)"/>
      <use xlink:href="#DejaVuSans-6e" transform="translate(201.220703 0)"/>
      <use xlink:href="#DejaVuSans-74" transform="translate(264.599609 0)"/>
      <use xlink:href="#DejaVuSans-69" transform="translate(303.808594 0)"/>
      <use xlink:href="#DejaVuSans-6f" transform="translate(331.591797 0)"/>
      <use xlink:href="#DejaVuSans-6e" transform="translate(392.773438 0)"/>
      <use xlink:href="#DejaVuSans-20" transform="translate(456.152344 0)"/>
      <use xlink:href="#DejaVuSans-70" transform="translate(487.939453 0)"/>
      <use xlink:href="#DejaVuSans-65" transform="translate(551.416016 0)"/>
      <use xlink:href="#DejaVuSans-6e" transform="translate(612.939453 0)"/>
      <use xlink:href="#DejaVuSans-61" transform="translate(676.318359 0)"/>
      <use xlink:href="#DejaVuSans-6c" transform="translate(737.597656 0)"/>
      <use xlink:href="#DejaVuSans-74" transform="translate(765.380859 0)"/>
      <use xlink:href="#DejaVuSans-79" transform="translate(804.589844 0)"/>
      <use xlink:href="#DejaVuSans-20" transform="translate(863.769531 0)"/>
      <use xlink:href="#DejaVuSans-20" transform="translate(895.556641 0)"/>
      <use xlink:href="#DejaVuSans-28" transform="translate(927.34375 0)"/>
      <use xlink:href="#DejaVuSans-62" transform="translate(966.357422 0)"/>
      <use xlink:href="#DejaVuSans-69" transform="translate(1029.833984 0)"/>
      <use xlink:href="#DejaVuSans-67" transform="translate(1057.617188 0)"/>
      <use xlink:href="#DejaVuSans-67" transform="translate(1121.09375 0)"/>
      <use xlink:href="#DejaVuSans-65" transform="translate(1184.570312 0)"/>
      <use xlink:href="#DejaVuSans-72" transform="translate(1246.09375 0)"/>
      <use xlink:href="#DejaVuSans-20" transform="translate(1287.207031 0)"/>
      <use xlink:href="#DejaVuSans-3d" transform="translate(1318.994141 0)"/>
      <use xlink:href="#DejaVuSans-20" transform="translate(1402.783203 0)"/>
      <use xlink:href="#DejaVuSans-6d" transform="translate(1434.570312 0)"/>
      <use xlink:href="#DejaVuSans-6f" transform="translate(1531.982422 0)"/>
      <use xlink:href="#DejaVuSans-72" transform="translate(1593.164062 0)"/>
      <use xlink:href="#DejaVuSans-65" transform="translate(1632.027344 0)"/>
      <use xlink:href="#DejaVuSans-20" transform="translate(1693.550781 0)"/>
      <use xlink:href="#DejaVuSans-69" transform="translate(1725.337891 0)"/>
      <use xlink:href="#DejaVuSans-67" transform="translate(1753.121094 0)"/>
      <use xlink:href="#DejaVuSans-6e" transform="translate(1816.597656 0)"/>
      <use xlink:href="#DejaVuSans-6f" transform="translate(1879.976562 0)"/>
      <use xlink:href="#DejaVuSans-72" transform="translate(1941.158203 0)"/>
      <use xlink:href="#DejaVuSans-65" transform="translate(1980.021484 0)"/>
      <use xlink:href="#DejaVuSans-64" transform="translate(2041.544922 0)"/>
      <use xlink:href="#DejaVuSans-29" transform="translate(2105.021484 0)"/>
     </g>
    </g>
   </g>
   <g id="line2d_1">
    <path d="M 54.152727 316.429091 
L 538.807273 43.410909 
L 538.807273 43.410909 
" clip-path="url(#p2f7fa0e2c2)" style="fill: none; stroke: #7dd3fc; stroke-width: 3; stroke-linecap: square"/>
   </g>
   <g id="line2d_2">
    <path d="M 54.152727 316.429091 
L 68.765427 312.588318 
L 83.378127 308.474535 
L 97.990827 304.08774 
L 112.603527 299.427933 
L 127.216227 294.495116 
L 141.828926 289.289287 
L 156.441626 283.810447 
L 171.054326 278.058595 
L 185.667026 272.033733 
L 200.279726 265.735859 
L 214.892426 259.164973 
L 229.505126 252.321077 
L 244.117825 245.204169 
L 258.730525 237.81425 
L 273.343225 230.151319 
L 287.955925 222.215377 
L 302.568625 214.006424 
L 317.181325 205.52446 
L 331.794025 196.769485 
L 346.406725 187.741498 
L 361.019424 178.440499 
L 375.632124 168.86649 
L 390.244824 159.019469 
L 404.857524 148.899437 
L 419.470224 138.506394 
L 434.082924 127.840339 
L 448.695624 116.901273 
L 463.308323 105.689196 
L 477.921023 94.204108 
L 492.533723 82.446008 
L 507.146423 70.414897 
L 521.759123 58.110774 
L 536.371823 45.533641 
L 538.807273 43.410909 
L 538.807273 43.410909 
" clip-path="url(#p2f7fa0e2c2)" style="fill: none; stroke: #c4b5fd; stroke-width: 3; stroke-linecap: square"/>
   </g>
   <g id="line2d_3">
    <path d="M 54.152727 316.429091 
L 59.023627 307.15809 
L 63.894527 298.515419 
L 68.765427 290.42129 
L 73.636327 282.810207 
L 78.507227 275.627749 
L 83.378127 268.828202 
L 88.249027 262.372795 
L 93.119927 256.228366 
L 97.990827 250.366325 
L 102.861727 244.761853 
L 107.732627 239.393263 
L 115.038977 231.741591 
L 122.345327 224.522998 
L 129.651677 217.691076 
L 136.958026 211.206496 
L 144.264376 205.035644 
L 151.570726 199.149557 
L 158.877076 193.52311 
L 166.183426 188.13436 
L 173.489776 182.964036 
L 183.231576 176.380909 
L 192.973376 170.120881 
L 202.715176 164.153715 
L 212.456976 158.453229 
L 222.198776 152.996603 
L 231.940576 147.763827 
L 244.117825 141.510959 
L 256.295075 135.5503 
L 268.472325 129.855752 
L 280.649575 124.404568 
L 292.826825 119.176796 
L 307.439525 113.173745 
L 322.052225 107.440519 
L 336.664925 101.953903 
L 351.277624 96.693553 
L 368.325774 90.818655 
L 385.373924 85.202431 
L 402.422074 79.823061 
L 419.470224 74.661371 
L 438.953824 69.007212 
L 458.437423 63.593048 
L 477.921023 58.399333 
L 499.840073 52.798506 
L 521.759123 47.433262 
L 538.807273 43.410909 
L 538.807273 43.410909 
" clip-path="url(#p2f7fa0e2c2)" style="fill: none; stroke: #fca5a5; stroke-width: 3; stroke-linecap: square"/>
   </g>
   <g id="text_3">
    <!-- RQ1 · the three shapes of the distance penalty -->
    <g style="fill: #e7e5e4" transform="translate(105.133242 23.76) scale(0.145 -0.145)">
     <defs>
      <path id="DejaVuSans-Bold-52" d="M 2297 2597 
Q 2675 2597 2839 2737 
Q 3003 2878 3003 3200 
Q 3003 3519 2839 3656 
Q 2675 3794 2297 3794 
L 1791 3794 
L 1791 2597 
L 2297 2597 
z
M 1791 1766 
L 1791 0 
L 588 0 
L 588 4666 
L 2425 4666 
Q 3347 4666 3776 4356 
Q 4206 4047 4206 3378 
Q 4206 2916 3982 2619 
Q 3759 2322 3309 2181 
Q 3556 2125 3751 1926 
Q 3947 1728 4147 1325 
L 4800 0 
L 3519 0 
L 2950 1159 
Q 2778 1509 2601 1637 
Q 2425 1766 2131 1766 
L 1791 1766 
z
" transform="scale(0.015625)"/>
      <path id="DejaVuSans-Bold-51" d="M 2847 -84 
L 2753 -84 
Q 1600 -84 959 553 
Q 319 1191 319 2328 
Q 319 3463 958 4106 
Q 1597 4750 2719 4750 
Q 3853 4750 4486 4112 
Q 5119 3475 5119 2328 
Q 5119 1541 4783 972 
Q 4447 403 3816 116 
L 4756 -934 
L 3609 -934 
L 2847 -84 
z
M 2719 3878 
Q 2169 3878 1866 3472 
Q 1563 3066 1563 2328 
Q 1563 1578 1859 1179 
Q 2156 781 2719 781 
Q 3272 781 3575 1187 
Q 3878 1594 3878 2328 
Q 3878 3066 3575 3472 
Q 3272 3878 2719 3878 
z
" transform="scale(0.015625)"/>
      <path id="DejaVuSans-Bold-31" d="M 750 831 
L 1813 831 
L 1813 3847 
L 722 3622 
L 722 4441 
L 1806 4666 
L 2950 4666 
L 2950 831 
L 4013 831 
L 4013 0 
L 750 0 
L 750 831 
z
" transform="scale(0.015625)"/>
      <path id="DejaVuSans-Bold-20" transform="scale(0.015625)"/>
      <path id="DejaVuSans-Bold-b7" d="M 653 2828 
L 1778 2828 
L 1778 1619 
L 653 1619 
L 653 2828 
z
" transform="scale(0.015625)"/>
      <path id="DejaVuSans-Bold-74" d="M 1759 4494 
L 1759 3500 
L 2913 3500 
L 2913 2700 
L 1759 2700 
L 1759 1216 
Q 1759 972 1856 886 
Q 1953 800 2241 800 
L 2816 800 
L 2816 0 
L 1856 0 
Q 1194 0 917 276 
Q 641 553 641 1216 
L 641 2700 
L 84 2700 
L 84 3500 
L 641 3500 
L 641 4494 
L 1759 4494 
z
" transform="scale(0.015625)"/>
      <path id="DejaVuSans-Bold-68" d="M 4056 2131 
L 4056 0 
L 2931 0 
L 2931 347 
L 2931 1625 
Q 2931 2084 2911 2256 
Q 2891 2428 2841 2509 
Q 2775 2619 2662 2680 
Q 2550 2741 2406 2741 
Q 2056 2741 1856 2470 
Q 1656 2200 1656 1722 
L 1656 0 
L 538 0 
L 538 4863 
L 1656 4863 
L 1656 2988 
Q 1909 3294 2193 3439 
Q 2478 3584 2822 3584 
Q 3428 3584 3742 3212 
Q 4056 2841 4056 2131 
z
" transform="scale(0.015625)"/>
      <path id="DejaVuSans-Bold-65" d="M 4031 1759 
L 4031 1441 
L 1416 1441 
Q 1456 1047 1700 850 
Q 1944 653 2381 653 
Q 2734 653 3104 758 
Q 3475 863 3866 1075 
L 3866 213 
Q 3469 63 3072 -14 
Q 2675 -91 2278 -91 
Q 1328 -91 801 392 
Q 275 875 275 1747 
Q 275 2603 792 3093 
Q 1309 3584 2216 3584 
Q 3041 3584 3536 3087 
Q 4031 2591 4031 1759 
z
M 2881 2131 
Q 2881 2450 2695 2645 
Q 2509 2841 2209 2841 
Q 1884 2841 1681 2658 
Q 1478 2475 1428 2131 
L 2881 2131 
z
" transform="scale(0.015625)"/>
      <path id="DejaVuSans-Bold-72" d="M 3138 2547 
Q 2991 2616 2845 2648 
Q 2700 2681 2553 2681 
Q 2122 2681 1889 2404 
Q 1656 2128 1656 1613 
L 1656 0 
L 538 0 
L 538 3500 
L 1656 3500 
L 1656 2925 
Q 1872 3269 2151 3426 
Q 2431 3584 2822 3584 
Q 2878 3584 2943 3579 
Q 3009 3575 3134 3559 
L 3138 2547 
z
" transform="scale(0.015625)"/>
      <path id="DejaVuSans-Bold-73" d="M 3272 3391 
L 3272 2541 
Q 2913 2691 2578 2766 
Q 2244 2841 1947 2841 
Q 1628 2841 1473 2761 
Q 1319 2681 1319 2516 
Q 1319 2381 1436 2309 
Q 1553 2238 1856 2203 
L 2053 2175 
Q 2913 2066 3209 1816 
Q 3506 1566 3506 1031 
Q 3506 472 3093 190 
Q 2681 -91 1863 -91 
Q 1516 -91 1145 -36 
Q 775 19 384 128 
L 384 978 
Q 719 816 1070 734 
Q 1422 653 1784 653 
Q 2113 653 2278 743 
Q 2444 834 2444 1013 
Q 2444 1163 2330 1236 
Q 2216 1309 1875 1350 
L 1678 1375 
Q 931 1469 631 1722 
Q 331 1975 331 2491 
Q 331 3047 712 3315 
Q 1094 3584 1881 3584 
Q 2191 3584 2531 3537 
Q 2872 3491 3272 3391 
z
" transform="scale(0.015625)"/>
      <path id="DejaVuSans-Bold-61" d="M 2106 1575 
Q 1756 1575 1579 1456 
Q 1403 1338 1403 1106 
Q 1403 894 1545 773 
Q 1688 653 1941 653 
Q 2256 653 2472 879 
Q 2688 1106 2688 1447 
L 2688 1575 
L 2106 1575 
z
M 3816 1997 
L 3816 0 
L 2688 0 
L 2688 519 
Q 2463 200 2181 54 
Q 1900 -91 1497 -91 
Q 953 -91 614 226 
Q 275 544 275 1050 
Q 275 1666 698 1953 
Q 1122 2241 2028 2241 
L 2688 2241 
L 2688 2328 
Q 2688 2594 2478 2717 
Q 2269 2841 1825 2841 
Q 1466 2841 1156 2769 
Q 847 2697 581 2553 
L 581 3406 
Q 941 3494 1303 3539 
Q 1666 3584 2028 3584 
Q 2975 3584 3395 3211 
Q 3816 2838 3816 1997 
z
" transform="scale(0.015625)"/>
      <path id="DejaVuSans-Bold-70" d="M 1656 506 
L 1656 -1331 
L 538 -1331 
L 538 3500 
L 1656 3500 
L 1656 2988 
Q 1888 3294 2169 3439 
Q 2450 3584 2816 3584 
Q 3463 3584 3878 3070 
Q 4294 2556 4294 1747 
Q 4294 938 3878 423 
Q 3463 -91 2816 -91 
Q 2450 -91 2169 54 
Q 1888 200 1656 506 
z
M 2400 2772 
Q 2041 2772 1848 2508 
Q 1656 2244 1656 1747 
Q 1656 1250 1848 986 
Q 2041 722 2400 722 
Q 2759 722 2948 984 
Q 3138 1247 3138 1747 
Q 3138 2247 2948 2509 
Q 2759 2772 2400 2772 
z
" transform="scale(0.015625)"/>
      <path id="DejaVuSans-Bold-6f" d="M 2203 2784 
Q 1831 2784 1636 2517 
Q 1441 2250 1441 1747 
Q 1441 1244 1636 976 
Q 1831 709 2203 709 
Q 2569 709 2762 976 
Q 2956 1244 2956 1747 
Q 2956 2250 2762 2517 
Q 2569 2784 2203 2784 
z
M 2203 3584 
Q 3106 3584 3614 3096 
Q 4122 2609 4122 1747 
Q 4122 884 3614 396 
Q 3106 -91 2203 -91 
Q 1297 -91 786 396 
Q 275 884 275 1747 
Q 275 2609 786 3096 
Q 1297 3584 2203 3584 
z
" transform="scale(0.015625)"/>
      <path id="DejaVuSans-Bold-66" d="M 2841 4863 
L 2841 4128 
L 2222 4128 
Q 1984 4128 1890 4042 
Q 1797 3956 1797 3744 
L 1797 3500 
L 2753 3500 
L 2753 2700 
L 1797 2700 
L 1797 0 
L 678 0 
L 678 2700 
L 122 2700 
L 122 3500 
L 678 3500 
L 678 3744 
Q 678 4316 997 4589 
Q 1316 4863 1984 4863 
L 2841 4863 
z
" transform="scale(0.015625)"/>
      <path id="DejaVuSans-Bold-64" d="M 2919 2988 
L 2919 4863 
L 4044 4863 
L 4044 0 
L 2919 0 
L 2919 506 
Q 2688 197 2409 53 
Q 2131 -91 1766 -91 
Q 1119 -91 703 423 
Q 288 938 288 1747 
Q 288 2556 703 3070 
Q 1119 3584 1766 3584 
Q 2128 3584 2408 3439 
Q 2688 3294 2919 2988 
z
M 2181 722 
Q 2541 722 2730 984 
Q 2919 1247 2919 1747 
Q 2919 2247 2730 2509 
Q 2541 2772 2181 2772 
Q 1825 2772 1636 2509 
Q 1447 2247 1447 1747 
Q 1447 1247 1636 984 
Q 1825 722 2181 722 
z
" transform="scale(0.015625)"/>
      <path id="DejaVuSans-Bold-69" d="M 538 3500 
L 1656 3500 
L 1656 0 
L 538 0 
L 538 3500 
z
M 538 4863 
L 1656 4863 
L 1656 3950 
L 538 3950 
L 538 4863 
z
" transform="scale(0.015625)"/>
      <path id="DejaVuSans-Bold-6e" d="M 4056 2131 
L 4056 0 
L 2931 0 
L 2931 347 
L 2931 1631 
Q 2931 2084 2911 2256 
Q 2891 2428 2841 2509 
Q 2775 2619 2662 2680 
Q 2550 2741 2406 2741 
Q 2056 2741 1856 2470 
Q 1656 2200 1656 1722 
L 1656 0 
L 538 0 
L 538 3500 
L 1656 3500 
L 1656 2988 
Q 1909 3294 2193 3439 
Q 2478 3584 2822 3584 
Q 3428 3584 3742 3212 
Q 4056 2841 4056 2131 
z
" transform="scale(0.015625)"/>
      <path id="DejaVuSans-Bold-63" d="M 3366 3391 
L 3366 2478 
Q 3138 2634 2908 2709 
Q 2678 2784 2431 2784 
Q 1963 2784 1702 2511 
Q 1441 2238 1441 1747 
Q 1441 1256 1702 982 
Q 1963 709 2431 709 
Q 2694 709 2930 787 
Q 3166 866 3366 1019 
L 3366 103 
Q 3103 6 2833 -42 
Q 2563 -91 2291 -91 
Q 1344 -91 809 395 
Q 275 881 275 1747 
Q 275 2613 809 3098 
Q 1344 3584 2291 3584 
Q 2566 3584 2833 3536 
Q 3100 3488 3366 3391 
z
" transform="scale(0.015625)"/>
      <path id="DejaVuSans-Bold-6c" d="M 538 4863 
L 1656 4863 
L 1656 0 
L 538 0 
L 538 4863 
z
" transform="scale(0.015625)"/>
      <path id="DejaVuSans-Bold-79" d="M 78 3500 
L 1197 3500 
L 2138 1125 
L 2938 3500 
L 4056 3500 
L 2584 -331 
Q 2363 -916 2067 -1148 
Q 1772 -1381 1288 -1381 
L 641 -1381 
L 641 -647 
L 991 -647 
Q 1275 -647 1404 -556 
Q 1534 -466 1606 -231 
L 1638 -134 
L 78 3500 
z
" transform="scale(0.015625)"/>
     </defs>
     <use xlink:href="#DejaVuSans-Bold-52"/>
     <use xlink:href="#DejaVuSans-Bold-51" transform="translate(77.001953 0)"/>
     <use xlink:href="#DejaVuSans-Bold-31" transform="translate(162.011719 0)"/>
     <use xlink:href="#DejaVuSans-Bold-20" transform="translate(231.591797 0)"/>
     <use xlink:href="#DejaVuSans-Bold-b7" transform="translate(266.40625 0)"/>
     <use xlink:href="#DejaVuSans-Bold-20" transform="translate(304.394531 0)"/>
     <use xlink:href="#DejaVuSans-Bold-74" transform="translate(339.208984 0)"/>
     <use xlink:href="#DejaVuSans-Bold-68" transform="translate(387.011719 0)"/>
     <use xlink:href="#DejaVuSans-Bold-65" transform="translate(458.203125 0)"/>
     <use xlink:href="#DejaVuSans-Bold-20" transform="translate(526.025391 0)"/>
     <use xlink:href="#DejaVuSans-Bold-74" transform="translate(560.839844 0)"/>
     <use xlink:href="#DejaVuSans-Bold-68" transform="translate(608.642578 0)"/>
     <use xlink:href="#DejaVuSans-Bold-72" transform="translate(679.833984 0)"/>
     <use xlink:href="#DejaVuSans-Bold-65" transform="translate(729.150391 0)"/>
     <use xlink:href="#DejaVuSans-Bold-65" transform="translate(796.972656 0)"/>
     <use xlink:href="#DejaVuSans-Bold-20" transform="translate(864.794922 0)"/>
     <use xlink:href="#DejaVuSans-Bold-73" transform="translate(899.609375 0)"/>
     <use xlink:href="#DejaVuSans-Bold-68" transform="translate(959.130859 0)"/>
     <use xlink:href="#DejaVuSans-Bold-61" transform="translate(1030.322266 0)"/>
     <use xlink:href="#DejaVuSans-Bold-70" transform="translate(1097.802734 0)"/>
     <use xlink:href="#DejaVuSans-Bold-65" transform="translate(1169.384766 0)"/>
     <use xlink:href="#DejaVuSans-Bold-73" transform="translate(1237.207031 0)"/>
     <use xlink:href="#DejaVuSans-Bold-20" transform="translate(1296.728516 0)"/>
     <use xlink:href="#DejaVuSans-Bold-6f" transform="translate(1331.542969 0)"/>
     <use xlink:href="#DejaVuSans-Bold-66" transform="translate(1400.244141 0)"/>
     <use xlink:href="#DejaVuSans-Bold-20" transform="translate(1443.75 0)"/>
     <use xlink:href="#DejaVuSans-Bold-74" transform="translate(1478.564453 0)"/>
     <use xlink:href="#DejaVuSans-Bold-68" transform="translate(1526.367188 0)"/>
     <use xlink:href="#DejaVuSans-Bold-65" transform="translate(1597.558594 0)"/>
     <use xlink:href="#DejaVuSans-Bold-20" transform="translate(1665.380859 0)"/>
     <use xlink:href="#DejaVuSans-Bold-64" transform="translate(1700.195312 0)"/>
     <use xlink:href="#DejaVuSans-Bold-69" transform="translate(1771.777344 0)"/>
     <use xlink:href="#DejaVuSans-Bold-73" transform="translate(1806.054688 0)"/>
     <use xlink:href="#DejaVuSans-Bold-74" transform="translate(1865.576172 0)"/>
     <use xlink:href="#DejaVuSans-Bold-61" transform="translate(1913.378906 0)"/>
     <use xlink:href="#DejaVuSans-Bold-6e" transform="translate(1980.859375 0)"/>
     <use xlink:href="#DejaVuSans-Bold-63" transform="translate(2052.050781 0)"/>
     <use xlink:href="#DejaVuSans-Bold-65" transform="translate(2111.328125 0)"/>
     <use xlink:href="#DejaVuSans-Bold-20" transform="translate(2179.150391 0)"/>
     <use xlink:href="#DejaVuSans-Bold-70" transform="translate(2213.964844 0)"/>
     <use xlink:href="#DejaVuSans-Bold-65" transform="translate(2285.546875 0)"/>
     <use xlink:href="#DejaVuSans-Bold-6e" transform="translate(2353.369141 0)"/>
     <use xlink:href="#DejaVuSans-Bold-61" transform="translate(2424.560547 0)"/>
     <use xlink:href="#DejaVuSans-Bold-6c" transform="translate(2492.041016 0)"/>
     <use xlink:href="#DejaVuSans-Bold-74" transform="translate(2526.318359 0)"/>
     <use xlink:href="#DejaVuSans-Bold-79" transform="translate(2574.121094 0)"/>
    </g>
   </g>
   <g id="legend_1">
    <g id="patch_3">
     <path d="M 37.97 89.599531 
L 275.538437 89.599531 
Q 277.838437 89.599531 277.838437 87.299531 
L 277.838437 37.81 
Q 277.838437 35.51 275.538437 35.51 
L 37.97 35.51 
Q 35.67 35.51 35.67 37.81 
L 35.67 87.299531 
Q 35.67 89.599531 37.97 89.599531 
z
" style="fill: #1f1e1d; opacity: 0.8; stroke: #3a3836; stroke-linejoin: miter"/>
    </g>
    <g id="line2d_4">
     <path d="M 40.27 44.823203 
L 51.77 44.823203 
L 63.27 44.823203 
" style="fill: none; stroke: #7dd3fc; stroke-width: 3; stroke-linecap: square"/>
    </g>
    <g id="text_4">
     <!-- linear (straight line) -->
     <g style="fill: #e7e5e4" transform="translate(72.47 48.848203) scale(0.115 -0.115)">
      <defs>
       <path id="DejaVuSans-68" d="M 3513 2113 
L 3513 0 
L 2938 0 
L 2938 2094 
Q 2938 2591 2744 2837 
Q 2550 3084 2163 3084 
Q 1697 3084 1428 2787 
Q 1159 2491 1159 1978 
L 1159 0 
L 581 0 
L 581 4863 
L 1159 4863 
L 1159 2956 
Q 1366 3272 1645 3428 
Q 1925 3584 2291 3584 
Q 2894 3584 3203 3211 
Q 3513 2838 3513 2113 
z
" transform="scale(0.015625)"/>
      </defs>
      <use xlink:href="#DejaVuSans-6c"/>
      <use xlink:href="#DejaVuSans-69" transform="translate(27.783203 0)"/>
      <use xlink:href="#DejaVuSans-6e" transform="translate(55.566406 0)"/>
      <use xlink:href="#DejaVuSans-65" transform="translate(118.945312 0)"/>
      <use xlink:href="#DejaVuSans-61" transform="translate(180.46875 0)"/>
      <use xlink:href="#DejaVuSans-72" transform="translate(241.748047 0)"/>
      <use xlink:href="#DejaVuSans-20" transform="translate(282.861328 0)"/>
      <use xlink:href="#DejaVuSans-28" transform="translate(314.648438 0)"/>
      <use xlink:href="#DejaVuSans-73" transform="translate(353.662109 0)"/>
      <use xlink:href="#DejaVuSans-74" transform="translate(405.761719 0)"/>
      <use xlink:href="#DejaVuSans-72" transform="translate(444.970703 0)"/>
      <use xlink:href="#DejaVuSans-61" transform="translate(486.083984 0)"/>
      <use xlink:href="#DejaVuSans-69" transform="translate(547.363281 0)"/>
      <use xlink:href="#DejaVuSans-67" transform="translate(575.146484 0)"/>
      <use xlink:href="#DejaVuSans-68" transform="translate(638.623047 0)"/>
      <use xlink:href="#DejaVuSans-74" transform="translate(702.001953 0)"/>
      <use xlink:href="#DejaVuSans-20" transform="translate(741.210938 0)"/>
      <use xlink:href="#DejaVuSans-6c" transform="translate(772.998047 0)"/>
      <use xlink:href="#DejaVuSans-69" transform="translate(800.78125 0)"/>
      <use xlink:href="#DejaVuSans-6e" transform="translate(828.564453 0)"/>
      <use xlink:href="#DejaVuSans-65" transform="translate(891.943359 0)"/>
      <use xlink:href="#DejaVuSans-29" transform="translate(953.466797 0)"/>
     </g>
    </g>
    <g id="line2d_5">
     <path d="M 40.27 61.703047 
L 51.77 61.703047 
L 63.27 61.703047 
" style="fill: none; stroke: #c4b5fd; stroke-width: 3; stroke-linecap: square"/>
    </g>
    <g id="text_5">
     <!-- curved (curves upward) -->
     <g style="fill: #e7e5e4" transform="translate(72.47 65.728047) scale(0.115 -0.115)">
      <defs>
       <path id="DejaVuSans-75" d="M 544 1381 
L 544 3500 
L 1119 3500 
L 1119 1403 
Q 1119 906 1312 657 
Q 1506 409 1894 409 
Q 2359 409 2629 706 
Q 2900 1003 2900 1516 
L 2900 3500 
L 3475 3500 
L 3475 0 
L 2900 0 
L 2900 538 
Q 2691 219 2414 64 
Q 2138 -91 1772 -91 
Q 1169 -91 856 284 
Q 544 659 544 1381 
z
M 1991 3584 
L 1991 3584 
z
" transform="scale(0.015625)"/>
       <path id="DejaVuSans-76" d="M 191 3500 
L 800 3500 
L 1894 563 
L 2988 3500 
L 3597 3500 
L 2284 0 
L 1503 0 
L 191 3500 
z
" transform="scale(0.015625)"/>
      </defs>
      <use xlink:href="#DejaVuSans-63"/>
      <use xlink:href="#DejaVuSans-75" transform="translate(54.980469 0)"/>
      <use xlink:href="#DejaVuSans-72" transform="translate(118.359375 0)"/>
      <use xlink:href="#DejaVuSans-76" transform="translate(159.472656 0)"/>
      <use xlink:href="#DejaVuSans-65" transform="translate(218.652344 0)"/>
      <use xlink:href="#DejaVuSans-64" transform="translate(280.175781 0)"/>
      <use xlink:href="#DejaVuSans-20" transform="translate(343.652344 0)"/>
      <use xlink:href="#DejaVuSans-28" transform="translate(375.439453 0)"/>
      <use xlink:href="#DejaVuSans-63" transform="translate(414.453125 0)"/>
      <use xlink:href="#DejaVuSans-75" transform="translate(469.433594 0)"/>
      <use xlink:href="#DejaVuSans-72" transform="translate(532.8125 0)"/>
      <use xlink:href="#DejaVuSans-76" transform="translate(573.925781 0)"/>
      <use xlink:href="#DejaVuSans-65" transform="translate(633.105469 0)"/>
      <use xlink:href="#DejaVuSans-73" transform="translate(694.628906 0)"/>
      <use xlink:href="#DejaVuSans-20" transform="translate(746.728516 0)"/>
      <use xlink:href="#DejaVuSans-75" transform="translate(778.515625 0)"/>
      <use xlink:href="#DejaVuSans-70" transform="translate(841.894531 0)"/>
      <use xlink:href="#DejaVuSans-77" transform="translate(905.371094 0)"/>
      <use xlink:href="#DejaVuSans-61" transform="translate(987.158203 0)"/>
      <use xlink:href="#DejaVuSans-72" transform="translate(1048.4375 0)"/>
      <use xlink:href="#DejaVuSans-64" transform="translate(1087.800781 0)"/>
      <use xlink:href="#DejaVuSans-29" transform="translate(1151.277344 0)"/>
     </g>
    </g>
    <g id="line2d_6">
     <path d="M 40.27 78.582891 
L 51.77 78.582891 
L 63.27 78.582891 
" style="fill: none; stroke: #fca5a5; stroke-width: 3; stroke-linecap: square"/>
    </g>
    <g id="text_6">
     <!-- concave (grows fast, then flattens) -->
     <g style="fill: #e7e5e4" transform="translate(72.47 82.607891) scale(0.115 -0.115)">
      <defs>
       <path id="DejaVuSans-2c" d="M 750 794 
L 1409 794 
L 1409 256 
L 897 -744 
L 494 -744 
L 750 256 
L 750 794 
z
" transform="scale(0.015625)"/>
      </defs>
      <use xlink:href="#DejaVuSans-63"/>
      <use xlink:href="#DejaVuSans-6f" transform="translate(54.980469 0)"/>
      <use xlink:href="#DejaVuSans-6e" transform="translate(116.162109 0)"/>
      <use xlink:href="#DejaVuSans-63" transform="translate(179.541016 0)"/>
      <use xlink:href="#DejaVuSans-61" transform="translate(234.521484 0)"/>
      <use xlink:href="#DejaVuSans-76" transform="translate(295.800781 0)"/>
      <use xlink:href="#DejaVuSans-65" transform="translate(354.980469 0)"/>
      <use xlink:href="#DejaVuSans-20" transform="translate(416.503906 0)"/>
      <use xlink:href="#DejaVuSans-28" transform="translate(448.291016 0)"/>
      <use xlink:href="#DejaVuSans-67" transform="translate(487.304688 0)"/>
      <use xlink:href="#DejaVuSans-72" transform="translate(550.78125 0)"/>
      <use xlink:href="#DejaVuSans-6f" transform="translate(589.644531 0)"/>
      <use xlink:href="#DejaVuSans-77" transform="translate(650.826172 0)"/>
      <use xlink:href="#DejaVuSans-73" transform="translate(732.613281 0)"/>
      <use xlink:href="#DejaVuSans-20" transform="translate(784.712891 0)"/>
      <use xlink:href="#DejaVuSans-66" transform="translate(816.5 0)"/>
      <use xlink:href="#DejaVuSans-61" transform="translate(851.705078 0)"/>
      <use xlink:href="#DejaVuSans-73" transform="translate(912.984375 0)"/>
      <use xlink:href="#DejaVuSans-74" transform="translate(965.083984 0)"/>
      <use xlink:href="#DejaVuSans-2c" transform="translate(1004.292969 0)"/>
      <use xlink:href="#DejaVuSans-20" transform="translate(1036.080078 0)"/>
      <use xlink:href="#DejaVuSans-74" transform="translate(1067.867188 0)"/>
      <use xlink:href="#DejaVuSans-68" transform="translate(1107.076172 0)"/>
      <use xlink:href="#DejaVuSans-65" transform="translate(1170.455078 0)"/>
      <use xlink:href="#DejaVuSans-6e" transform="translate(1231.978516 0)"/>
      <use xlink:href="#DejaVuSans-20" transform="translate(1295.357422 0)"/>
      <use xlink:href="#DejaVuSans-66" transform="translate(1327.144531 0)"/>
      <use xlink:href="#DejaVuSans-6c" transform="translate(1362.349609 0)"/>
      <use xlink:href="#DejaVuSans-61" transform="translate(1390.132812 0)"/>
      <use xlink:href="#DejaVuSans-74" transform="translate(1451.412109 0)"/>
      <use xlink:href="#DejaVuSans-74" transform="translate(1490.621094 0)"/>
      <use xlink:href="#DejaVuSans-65" transform="translate(1529.830078 0)"/>
      <use xlink:href="#DejaVuSans-6e" transform="translate(1591.353516 0)"/>
      <use xlink:href="#DejaVuSans-73" transform="translate(1654.732422 0)"/>
      <use xlink:href="#DejaVuSans-29" transform="translate(1706.832031 0)"/>
     </g>
    </g>
   </g>
  </g>
 </g>
 <defs>
  <clipPath id="p2f7fa0e2c2">
   <rect x="29.92" y="29.76" width="533.12" height="300.32"/>
  </clipPath>
 </defs>
</svg>
