<?xml version="1.0" encoding="utf-8" standalone="no"?>
<!DOCTYPE svg PUBLIC "-//W3C//DTD SVG 1.1//EN"
  "http://www.w3.org/Graphics/SVG/1.1/DTD/svg11.dtd">
<svg xmlns:xlink="http://www.w3.org/1999/xlink" width="612pt" height="345.6pt" viewBox="0 0 612 345.6" xmlns="http://www.w3.org/2000/svg" version="1.1">
 <metadata>
  <rdf:RDF xmlns:dc="http://purl.org/dc/elements/1.1/" xmlns:cc="http://creativecommons.org/ns#" xmlns:rdf="http://www.w3.org/1999/02/22-rdf-syntax-ns#">
   <cc:Work>
    <dc:type rdf:resource="http://purl.org/dc/dcmitype/StillImage"/>
    <dc:date>2026-06-16T19:59:51.622048</dc:date>
    <dc:format>image/svg+xml</dc:format>
    <dc:creator>
     <cc:Agent>
      <dc:title>Matplotlib v3.10.5, https://matplotlib.org/</dc:title>
     </cc:Agent>
    </dc:creator>
   </cc:Work>
  </rdf:RDF>
 </metadata>
 <defs>
  <style type="text/css">*{stroke-linejoin: round; stroke-linecap: butt}</style>
 </defs>
 <g id="figure_1">
  <g id="patch_1">
   <path d="M 0 345.6 
L 612 345.6 
L 612 0 
L 0 0 
z
" style="fill: #1f1e1d"/>
  </g>
  <g id="axes_1">
   <g id="patch_2">
    <path d="M 116.71 295.72 
L 599.04 295.72 
L 599.04 29.76 
L 116.71 29.76 
z
" style="fill: #1f1e1d"/>
   </g>
   <g id="patch_3">
    <path d="M 200.593478 295.72 
L 368.360435 295.72 
L 368.360435 29.76 
L 200.593478 29.76 
z
" clip-path="url(#p22cc11a316)" style="fill: #facc15; opacity: 0.08; stroke: #facc15; stroke-linejoin: miter"/>
   </g>
   <g id="matplotlib.axis_1">
    <g id="xtick_1">
     <g id="line2d_1">
      <path d="M 116.71 295.72 
L 116.71 29.76 
" clip-path="url(#p22cc11a316)" style="fill: none; stroke: #3a3836; stroke-opacity: 0.15; stroke-width: 0.8; stroke-linecap: square"/>
     </g>
     <g id="line2d_2">
      <defs>
       <path id="m30c9480664" d="M 0 0 
L 0 3.5 
" style="stroke: #e7e5e4; stroke-width: 0.8"/>
      </defs>
      <g>
       <use xlink:href="#m30c9480664" x="116.71" y="295.72" style="fill: #e7e5e4; stroke: #e7e5e4; stroke-width: 0.8"/>
      </g>
     </g>
     <g id="text_1">
      <!-- −0.04 -->
      <g style="fill: #e7e5e4" transform="translate(98.322813 311.838125) scale(0.12 -0.12)">
       <defs>
        <path id="DejaVuSans-2212" d="M 678 2272 
L 4684 2272 
L 4684 1741 
L 678 1741 
L 678 2272 
z
" transform="scale(0.015625)"/>
        <path id="DejaVuSans-30" d="M 2034 4250 
Q 1547 4250 1301 3770 
Q 1056 3291 1056 2328 
Q 1056 1369 1301 889 
Q 1547 409 2034 409 
Q 2525 409 2770 889 
Q 3016 1369 3016 2328 
Q 3016 3291 2770 3770 
Q 2525 4250 2034 4250 
z
M 2034 4750 
Q 2819 4750 3233 4129 
Q 3647 3509 3647 2328 
Q 3647 1150 3233 529 
Q 2819 -91 2034 -91 
Q 1250 -91 836 529 
Q 422 1150 422 2328 
Q 422 3509 836 4129 
Q 1250 4750 2034 4750 
z
" transform="scale(0.015625)"/>
        <path id="DejaVuSans-2e" d="M 684 794 
L 1344 794 
L 1344 0 
L 684 0 
L 684 794 
z
" transform="scale(0.015625)"/>
        <path id="DejaVuSans-34" d="M 2419 4116 
L 825 1625 
L 2419 1625 
L 2419 4116 
z
M 2253 4666 
L 3047 4666 
L 3047 1625 
L 3713 1625 
L 3713 1100 
L 3047 1100 
L 3047 0 
L 2419 0 
L 2419 1100 
L 313 1100 
L 313 1709 
L 2253 4666 
z
" transform="scale(0.015625)"/>
       </defs>
       <use xlink:href="#DejaVuSans-2212"/>
       <use xlink:href="#DejaVuSans-30" transform="translate(83.789062 0)"/>
       <use xlink:href="#DejaVuSans-2e" transform="translate(147.412109 0)"/>
       <use xlink:href="#DejaVuSans-30" transform="translate(179.199219 0)"/>
       <use xlink:href="#DejaVuSans-34" transform="translate(242.822266 0)"/>
      </g>
     </g>
    </g>
    <g id="xtick_2">
     <g id="line2d_3">
      <path d="M 200.593478 295.72 
L 200.593478 29.76 
" clip-path="url(#p22cc11a316)" style="fill: none; stroke: #3a3836; stroke-opacity: 0.15; stroke-width: 0.8; stroke-linecap: square"/>
     </g>
     <g id="line2d_4">
      <g>
       <use xlink:href="#m30c9480664" x="200.593478" y="295.72" style="fill: #e7e5e4; stroke: #e7e5e4; stroke-width: 0.8"/>
      </g>
     </g>
     <g id="text_2">
      <!-- −0.02 -->
      <g style="fill: #e7e5e4" transform="translate(182.206291 311.838125) scale(0.12 -0.12)">
       <defs>
        <path id="DejaVuSans-32" d="M 1228 531 
L 3431 531 
L 3431 0 
L 469 0 
L 469 531 
Q 828 903 1448 1529 
Q 2069 2156 2228 2338 
Q 2531 2678 2651 2914 
Q 2772 3150 2772 3378 
Q 2772 3750 2511 3984 
Q 2250 4219 1831 4219 
Q 1534 4219 1204 4116 
Q 875 4013 500 3803 
L 500 4441 
Q 881 4594 1212 4672 
Q 1544 4750 1819 4750 
Q 2544 4750 2975 4387 
Q 3406 4025 3406 3419 
Q 3406 3131 3298 2873 
Q 3191 2616 2906 2266 
Q 2828 2175 2409 1742 
Q 1991 1309 1228 531 
z
" transform="scale(0.015625)"/>
       </defs>
       <use xlink:href="#DejaVuSans-2212"/>
       <use xlink:href="#DejaVuSans-30" transform="translate(83.789062 0)"/>
       <use xlink:href="#DejaVuSans-2e" transform="translate(147.412109 0)"/>
       <use xlink:href="#DejaVuSans-30" transform="translate(179.199219 0)"/>
       <use xlink:href="#DejaVuSans-32" transform="translate(242.822266 0)"/>
      </g>
     </g>
    </g>
    <g id="xtick_3">
     <g id="line2d_5">
      <path d="M 284.476957 295.72 
L 284.476957 29.76 
" clip-path="url(#p22cc11a316)" style="fill: none; stroke: #3a3836; stroke-opacity: 0.15; stroke-width: 0.8; stroke-linecap: square"/>
     </g>
     <g id="line2d_6">
      <g>
       <use xlink:href="#m30c9480664" x="284.476957" y="295.72" style="fill: #e7e5e4; stroke: #e7e5e4; stroke-width: 0.8"/>
      </g>
     </g>
     <g id="text_3">
      <!-- 0.00 -->
      <g style="fill: #e7e5e4" transform="translate(271.117582 311.838125) scale(0.12 -0.12)">
       <use xlink:href="#DejaVuSans-30"/>
       <use xlink:href="#DejaVuSans-2e" transform="translate(63.623047 0)"/>
       <use xlink:href="#DejaVuSans-30" transform="translate(95.410156 0)"/>
       <use xlink:href="#DejaVuSans-30" transform="translate(159.033203 0)"/>
      </g>
     </g>
    </g>
    <g id="xtick_4">
     <g id="line2d_7">
      <path d="M 368.360435 295.72 
L 368.360435 29.76 
" clip-path="url(#p22cc11a316)" style="fill: none; stroke: #3a3836; stroke-opacity: 0.15; stroke-width: 0.8; stroke-linecap: square"/>
     </g>
     <g id="line2d_8">
      <g>
       <use xlink:href="#m30c9480664" x="368.360435" y="295.72" style="fill: #e7e5e4; stroke: #e7e5e4; stroke-width: 0.8"/>
      </g>
     </g>
     <g id="text_4">
      <!-- 0.02 -->
      <g style="fill: #e7e5e4" transform="translate(355.00106 311.838125) scale(0.12 -0.12)">
       <use xlink:href="#DejaVuSans-30"/>
       <use xlink:href="#DejaVuSans-2e" transform="translate(63.623047 0)"/>
       <use xlink:href="#DejaVuSans-30" transform="translate(95.410156 0)"/>
       <use xlink:href="#DejaVuSans-32" transform="translate(159.033203 0)"/>
      </g>
     </g>
    </g>
    <g id="xtick_5">
     <g id="line2d_9">
      <path d="M 452.243913 295.72 
L 452.243913 29.76 
" clip-path="url(#p22cc11a316)" style="fill: none; stroke: #3a3836; stroke-opacity: 0.15; stroke-width: 0.8; stroke-linecap: square"/>
     </g>
     <g id="line2d_10">
      <g>
       <use xlink:href="#m30c9480664" x="452.243913" y="295.72" style="fill: #e7e5e4; stroke: #e7e5e4; stroke-width: 0.8"/>
      </g>
     </g>
     <g id="text_5">
      <!-- 0.04 -->
      <g style="fill: #e7e5e4" transform="translate(438.884538 311.838125) scale(0.12 -0.12)">
       <use xlink:href="#DejaVuSans-30"/>
       <use xlink:href="#DejaVuSans-2e" transform="translate(63.623047 0)"/>
       <use xlink:href="#DejaVuSans-30" transform="translate(95.410156 0)"/>
       <use xlink:href="#DejaVuSans-34" transform="translate(159.033203 0)"/>
      </g>
     </g>
    </g>
    <g id="xtick_6">
     <g id="line2d_11">
      <path d="M 536.127391 295.72 
L 536.127391 29.76 
" clip-path="url(#p22cc11a316)" style="fill: none; stroke: #3a3836; stroke-opacity: 0.15; stroke-width: 0.8; stroke-linecap: square"/>
     </g>
     <g id="line2d_12">
      <g>
       <use xlink:href="#m30c9480664" x="536.127391" y="295.72" style="fill: #e7e5e4; stroke: #e7e5e4; stroke-width: 0.8"/>
      </g>
     </g>
     <g id="text_6">
      <!-- 0.06 -->
      <g style="fill: #e7e5e4" transform="translate(522.768016 311.838125) scale(0.12 -0.12)">
       <defs>
        <path id="DejaVuSans-36" d="M 2113 2584 
Q 1688 2584 1439 2293 
Q 1191 2003 1191 1497 
Q 1191 994 1439 701 
Q 1688 409 2113 409 
Q 2538 409 2786 701 
Q 3034 994 3034 1497 
Q 3034 2003 2786 2293 
Q 2538 2584 2113 2584 
z
M 3366 4563 
L 3366 3988 
Q 3128 4100 2886 4159 
Q 2644 4219 2406 4219 
Q 1781 4219 1451 3797 
Q 1122 3375 1075 2522 
Q 1259 2794 1537 2939 
Q 1816 3084 2150 3084 
Q 2853 3084 3261 2657 
Q 3669 2231 3669 1497 
Q 3669 778 3244 343 
Q 2819 -91 2113 -91 
Q 1303 -91 875 529 
Q 447 1150 447 2328 
Q 447 3434 972 4092 
Q 1497 4750 2381 4750 
Q 2619 4750 2861 4703 
Q 3103 4656 3366 4563 
z
" transform="scale(0.015625)"/>
       </defs>
       <use xlink:href="#DejaVuSans-30"/>
       <use xlink:href="#DejaVuSans-2e" transform="translate(63.623047 0)"/>
       <use xlink:href="#DejaVuSans-30" transform="translate(95.410156 0)"/>
       <use xlink:href="#DejaVuSans-36" transform="translate(159.033203 0)"/>
      </g>
     </g>
    </g>
    <g id="text_7">
     <!-- paired change in validation loss  (→ worse · ← better) -->
     <g style="fill: #e7e5e4" transform="translate(198.269375 327.451875) scale(0.12 -0.12)">
      <defs>
       <path id="DejaVuSans-70" d="M 1159 525 
L 1159 -1331 
L 581 -1331 
L 581 3500 
L 1159 3500 
L 1159 2969 
Q 1341 3281 1617 3432 
Q 1894 3584 2278 3584 
Q 2916 3584 3314 3078 
Q 3713 2572 3713 1747 
Q 3713 922 3314 415 
Q 2916 -91 2278 -91 
Q 1894 -91 1617 61 
Q 1341 213 1159 525 
z
M 3116 1747 
Q 3116 2381 2855 2742 
Q 2594 3103 2138 3103 
Q 1681 3103 1420 2742 
Q 1159 2381 1159 1747 
Q 1159 1113 1420 752 
Q 1681 391 2138 391 
Q 2594 391 2855 752 
Q 3116 1113 3116 1747 
z
" transform="scale(0.015625)"/>
       <path id="DejaVuSans-61" d="M 2194 1759 
Q 1497 1759 1228 1600 
Q 959 1441 959 1056 
Q 959 750 1161 570 
Q 1363 391 1709 391 
Q 2188 391 2477 730 
Q 2766 1069 2766 1631 
L 2766 1759 
L 2194 1759 
z
M 3341 1997 
L 3341 0 
L 2766 0 
L 2766 531 
Q 2569 213 2275 61 
Q 1981 -91 1556 -91 
Q 1019 -91 701 211 
Q 384 513 384 1019 
Q 384 1609 779 1909 
Q 1175 2209 1959 2209 
L 2766 2209 
L 2766 2266 
Q 2766 2663 2505 2880 
Q 2244 3097 1772 3097 
Q 1472 3097 1187 3025 
Q 903 2953 641 2809 
L 641 3341 
Q 956 3463 1253 3523 
Q 1550 3584 1831 3584 
Q 2591 3584 2966 3190 
Q 3341 2797 3341 1997 
z
" transform="scale(0.015625)"/>
       <path id="DejaVuSans-69" d="M 603 3500 
L 1178 3500 
L 1178 0 
L 603 0 
L 603 3500 
z
M 603 4863 
L 1178 4863 
L 1178 4134 
L 603 4134 
L 603 4863 
z
" transform="scale(0.015625)"/>
       <path id="DejaVuSans-72" d="M 2631 2963 
Q 2534 3019 2420 3045 
Q 2306 3072 2169 3072 
Q 1681 3072 1420 2755 
Q 1159 2438 1159 1844 
L 1159 0 
L 581 0 
L 581 3500 
L 1159 3500 
L 1159 2956 
Q 1341 3275 1631 3429 
Q 1922 3584 2338 3584 
Q 2397 3584 2469 3576 
Q 2541 3569 2628 3553 
L 2631 2963 
z
" transform="scale(0.015625)"/>
       <path id="DejaVuSans-65" d="M 3597 1894 
L 3597 1613 
L 953 1613 
Q 991 1019 1311 708 
Q 1631 397 2203 397 
Q 2534 397 2845 478 
Q 3156 559 3463 722 
L 3463 178 
Q 3153 47 2828 -22 
Q 2503 -91 2169 -91 
Q 1331 -91 842 396 
Q 353 884 353 1716 
Q 353 2575 817 3079 
Q 1281 3584 2069 3584 
Q 2775 3584 3186 3129 
Q 3597 2675 3597 1894 
z
M 3022 2063 
Q 3016 2534 2758 2815 
Q 2500 3097 2075 3097 
Q 1594 3097 1305 2825 
Q 1016 2553 972 2059 
L 3022 2063 
z
" transform="scale(0.015625)"/>
       <path id="DejaVuSans-64" d="M 2906 2969 
L 2906 4863 
L 3481 4863 
L 3481 0 
L 2906 0 
L 2906 525 
Q 2725 213 2448 61 
Q 2172 -91 1784 -91 
Q 1150 -91 751 415 
Q 353 922 353 1747 
Q 353 2572 751 3078 
Q 1150 3584 1784 3584 
Q 2172 3584 2448 3432 
Q 2725 3281 2906 2969 
z
M 947 1747 
Q 947 1113 1208 752 
Q 1469 391 1925 391 
Q 2381 391 2643 752 
Q 2906 1113 2906 1747 
Q 2906 2381 2643 2742 
Q 2381 3103 1925 3103 
Q 1469 3103 1208 2742 
Q 947 2381 947 1747 
z
" transform="scale(0.015625)"/>
       <path id="DejaVuSans-20" transform="scale(0.015625)"/>
       <path id="DejaVuSans-63" d="M 3122 3366 
L 3122 2828 
Q 2878 2963 2633 3030 
Q 2388 3097 2138 3097 
Q 1578 3097 1268 2742 
Q 959 2388 959 1747 
Q 959 1106 1268 751 
Q 1578 397 2138 397 
Q 2388 397 2633 464 
Q 2878 531 3122 666 
L 3122 134 
Q 2881 22 2623 -34 
Q 2366 -91 2075 -91 
Q 1284 -91 818 406 
Q 353 903 353 1747 
Q 353 2603 823 3093 
Q 1294 3584 2113 3584 
Q 2378 3584 2631 3529 
Q 2884 3475 3122 3366 
z
" transform="scale(0.015625)"/>
       <path id="DejaVuSans-68" d="M 3513 2113 
L 3513 0 
L 2938 0 
L 2938 2094 
Q 2938 2591 2744 2837 
Q 2550 3084 2163 3084 
Q 1697 3084 1428 2787 
Q 1159 2491 1159 1978 
L 1159 0 
L 581 0 
L 581 4863 
L 1159 4863 
L 1159 2956 
Q 1366 3272 1645 3428 
Q 1925 3584 2291 3584 
Q 2894 3584 3203 3211 
Q 3513 2838 3513 2113 
z
" transform="scale(0.015625)"/>
       <path id="DejaVuSans-6e" d="M 3513 2113 
L 3513 0 
L 2938 0 
L 2938 2094 
Q 2938 2591 2744 2837 
Q 2550 3084 2163 3084 
Q 1697 3084 1428 2787 
Q 1159 2491 1159 1978 
L 1159 0 
L 581 0 
L 581 3500 
L 1159 3500 
L 1159 2956 
Q 1366 3272 1645 3428 
Q 1925 3584 2291 3584 
Q 2894 3584 3203 3211 
Q 3513 2838 3513 2113 
z
" transform="scale(0.015625)"/>
       <path id="DejaVuSans-67" d="M 2906 1791 
Q 2906 2416 2648 2759 
Q 2391 3103 1925 3103 
Q 1463 3103 1205 2759 
Q 947 2416 947 1791 
Q 947 1169 1205 825 
Q 1463 481 1925 481 
Q 2391 481 2648 825 
Q 2906 1169 2906 1791 
z
M 3481 434 
Q 3481 -459 3084 -895 
Q 2688 -1331 1869 -1331 
Q 1566 -1331 1297 -1286 
Q 1028 -1241 775 -1147 
L 775 -588 
Q 1028 -725 1275 -790 
Q 1522 -856 1778 -856 
Q 2344 -856 2625 -561 
Q 2906 -266 2906 331 
L 2906 616 
Q 2728 306 2450 153 
Q 2172 0 1784 0 
Q 1141 0 747 490 
Q 353 981 353 1791 
Q 353 2603 747 3093 
Q 1141 3584 1784 3584 
Q 2172 3584 2450 3431 
Q 2728 3278 2906 2969 
L 2906 3500 
L 3481 3500 
L 3481 434 
z
" transform="scale(0.015625)"/>
       <path id="DejaVuSans-76" d="M 191 3500 
L 800 3500 
L 1894 563 
L 2988 3500 
L 3597 3500 
L 2284 0 
L 1503 0 
L 191 3500 
z
" transform="scale(0.015625)"/>
       <path id="DejaVuSans-6c" d="M 603 4863 
L 1178 4863 
L 1178 0 
L 603 0 
L 603 4863 
z
" transform="scale(0.015625)"/>
       <path id="DejaVuSans-74" d="M 1172 4494 
L 1172 3500 
L 2356 3500 
L 2356 3053 
L 1172 3053 
L 1172 1153 
Q 1172 725 1289 603 
Q 1406 481 1766 481 
L 2356 481 
L 2356 0 
L 1766 0 
Q 1100 0 847 248 
Q 594 497 594 1153 
L 594 3053 
L 172 3053 
L 172 3500 
L 594 3500 
L 594 4494 
L 1172 4494 
z
" transform="scale(0.015625)"/>
       <path id="DejaVuSans-6f" d="M 1959 3097 
Q 1497 3097 1228 2736 
Q 959 2375 959 1747 
Q 959 1119 1226 758 
Q 1494 397 1959 397 
Q 2419 397 2687 759 
Q 2956 1122 2956 1747 
Q 2956 2369 2687 2733 
Q 2419 3097 1959 3097 
z
M 1959 3584 
Q 2709 3584 3137 3096 
Q 3566 2609 3566 1747 
Q 3566 888 3137 398 
Q 2709 -91 1959 -91 
Q 1206 -91 779 398 
Q 353 888 353 1747 
Q 353 2609 779 3096 
Q 1206 3584 1959 3584 
z
" transform="scale(0.015625)"/>
       <path id="DejaVuSans-73" d="M 2834 3397 
L 2834 2853 
Q 2591 2978 2328 3040 
Q 2066 3103 1784 3103 
Q 1356 3103 1142 2972 
Q 928 2841 928 2578 
Q 928 2378 1081 2264 
Q 1234 2150 1697 2047 
L 1894 2003 
Q 2506 1872 2764 1633 
Q 3022 1394 3022 966 
Q 3022 478 2636 193 
Q 2250 -91 1575 -91 
Q 1294 -91 989 -36 
Q 684 19 347 128 
L 347 722 
Q 666 556 975 473 
Q 1284 391 1588 391 
Q 1994 391 2212 530 
Q 2431 669 2431 922 
Q 2431 1156 2273 1281 
Q 2116 1406 1581 1522 
L 1381 1569 
Q 847 1681 609 1914 
Q 372 2147 372 2553 
Q 372 3047 722 3315 
Q 1072 3584 1716 3584 
Q 2034 3584 2315 3537 
Q 2597 3491 2834 3397 
z
" transform="scale(0.015625)"/>
       <path id="DejaVuSans-28" d="M 1984 4856 
Q 1566 4138 1362 3434 
Q 1159 2731 1159 2009 
Q 1159 1288 1364 580 
Q 1569 -128 1984 -844 
L 1484 -844 
Q 1016 -109 783 600 
Q 550 1309 550 2009 
Q 550 2706 781 3412 
Q 1013 4119 1484 4856 
L 1984 4856 
z
" transform="scale(0.015625)"/>
       <path id="DejaVuSans-2192" d="M 5050 2147 
L 5050 1866 
L 3822 638 
L 3447 1013 
L 4175 1741 
L 366 1741 
L 366 2272 
L 4175 2272 
L 3447 3000 
L 3822 3375 
L 5050 2147 
z
" transform="scale(0.015625)"/>
       <path id="DejaVuSans-77" d="M 269 3500 
L 844 3500 
L 1563 769 
L 2278 3500 
L 2956 3500 
L 3675 769 
L 4391 3500 
L 4966 3500 
L 4050 0 
L 3372 0 
L 2619 2869 
L 1863 0 
L 1184 0 
L 269 3500 
z
" transform="scale(0.015625)"/>
       <path id="DejaVuSans-b7" d="M 684 2619 
L 1344 2619 
L 1344 1825 
L 684 1825 
L 684 2619 
z
" transform="scale(0.015625)"/>
       <path id="DejaVuSans-2190" d="M 313 1866 
L 313 2147 
L 1541 3375 
L 1916 3000 
L 1188 2272 
L 4997 2272 
L 4997 1741 
L 1188 1741 
L 1916 1013 
L 1541 638 
L 313 1866 
z
" transform="scale(0.015625)"/>
       <path id="DejaVuSans-62" d="M 3116 1747 
Q 3116 2381 2855 2742 
Q 2594 3103 2138 3103 
Q 1681 3103 1420 2742 
Q 1159 2381 1159 1747 
Q 1159 1113 1420 752 
Q 1681 391 2138 391 
Q 2594 391 2855 752 
Q 3116 1113 3116 1747 
z
M 1159 2969 
Q 1341 3281 1617 3432 
Q 1894 3584 2278 3584 
Q 2916 3584 3314 3078 
Q 3713 2572 3713 1747 
Q 3713 922 3314 415 
Q 2916 -91 2278 -91 
Q 1894 -91 1617 61 
Q 1341 213 1159 525 
L 1159 0 
L 581 0 
L 581 4863 
L 1159 4863 
L 1159 2969 
z
" transform="scale(0.015625)"/>
       <path id="DejaVuSans-29" d="M 513 4856 
L 1013 4856 
Q 1481 4119 1714 3412 
Q 1947 2706 1947 2009 
Q 1947 1309 1714 600 
Q 1481 -109 1013 -844 
L 513 -844 
Q 928 -128 1133 580 
Q 1338 1288 1338 2009 
Q 1338 2731 1133 3434 
Q 928 4138 513 4856 
z
" transform="scale(0.015625)"/>
      </defs>
      <use xlink:href="#DejaVuSans-70"/>
      <use xlink:href="#DejaVuSans-61" transform="translate(63.476562 0)"/>
      <use xlink:href="#DejaVuSans-69" transform="translate(124.755859 0)"/>
      <use xlink:href="#DejaVuSans-72" transform="translate(152.539062 0)"/>
      <use xlink:href="#DejaVuSans-65" transform="translate(191.402344 0)"/>
      <use xlink:href="#DejaVuSans-64" transform="translate(252.925781 0)"/>
      <use xlink:href="#DejaVuSans-20" transform="translate(316.402344 0)"/>
      <use xlink:href="#DejaVuSans-63" transform="translate(348.189453 0)"/>
      <use xlink:href="#DejaVuSans-68" transform="translate(403.169922 0)"/>
      <use xlink:href="#DejaVuSans-61" transform="translate(466.548828 0)"/>
      <use xlink:href="#DejaVuSans-6e" transform="translate(527.828125 0)"/>
      <use xlink:href="#DejaVuSans-67" transform="translate(591.207031 0)"/>
      <use xlink:href="#DejaVuSans-65" transform="translate(654.683594 0)"/>
      <use xlink:href="#DejaVuSans-20" transform="translate(716.207031 0)"/>
      <use xlink:href="#DejaVuSans-69" transform="translate(747.994141 0)"/>
      <use xlink:href="#DejaVuSans-6e" transform="translate(775.777344 0)"/>
      <use xlink:href="#DejaVuSans-20" transform="translate(839.15625 0)"/>
      <use xlink:href="#DejaVuSans-76" transform="translate(870.943359 0)"/>
      <use xlink:href="#DejaVuSans-61" transform="translate(930.123047 0)"/>
      <use xlink:href="#DejaVuSans-6c" transform="translate(991.402344 0)"/>
      <use xlink:href="#DejaVuSans-69" transform="translate(1019.185547 0)"/>
      <use xlink:href="#DejaVuSans-64" transform="translate(1046.96875 0)"/>
      <use xlink:href="#DejaVuSans-61" transform="translate(1110.445312 0)"/>
      <use xlink:href="#DejaVuSans-74" transform="translate(1171.724609 0)"/>
      <use xlink:href="#DejaVuSans-69" transform="translate(1210.933594 0)"/>
      <use xlink:href="#DejaVuSans-6f" transform="translate(1238.716797 0)"/>
      <use xlink:href="#DejaVuSans-6e" transform="translate(1299.898438 0)"/>
      <use xlink:href="#DejaVuSans-20" transform="translate(1363.277344 0)"/>
      <use xlink:href="#DejaVuSans-6c" transform="translate(1395.064453 0)"/>
      <use xlink:href="#DejaVuSans-6f" transform="translate(1422.847656 0)"/>
      <use xlink:href="#DejaVuSans-73" transform="translate(1484.029297 0)"/>
      <use xlink:href="#DejaVuSans-73" transform="translate(1536.128906 0)"/>
      <use xlink:href="#DejaVuSans-20" transform="translate(1588.228516 0)"/>
      <use xlink:href="#DejaVuSans-20" transform="translate(1620.015625 0)"/>
      <use xlink:href="#DejaVuSans-28" transform="translate(1651.802734 0)"/>
      <use xlink:href="#DejaVuSans-2192" transform="translate(1690.816406 0)"/>
      <use xlink:href="#DejaVuSans-20" transform="translate(1774.605469 0)"/>
      <use xlink:href="#DejaVuSans-77" transform="translate(1806.392578 0)"/>
      <use xlink:href="#DejaVuSans-6f" transform="translate(1888.179688 0)"/>
      <use xlink:href="#DejaVuSans-72" transform="translate(1949.361328 0)"/>
      <use xlink:href="#DejaVuSans-73" transform="translate(1990.474609 0)"/>
      <use xlink:href="#DejaVuSans-65" transform="translate(2042.574219 0)"/>
      <use xlink:href="#DejaVuSans-20" transform="translate(2104.097656 0)"/>
      <use xlink:href="#DejaVuSans-b7" transform="translate(2135.884766 0)"/>
      <use xlink:href="#DejaVuSans-20" transform="translate(2167.671875 0)"/>
      <use xlink:href="#DejaVuSans-2190" transform="translate(2199.458984 0)"/>
      <use xlink:href="#DejaVuSans-20" transform="translate(2283.248047 0)"/>
      <use xlink:href="#DejaVuSans-62" transform="translate(2315.035156 0)"/>
      <use xlink:href="#DejaVuSans-65" transform="translate(2378.511719 0)"/>
      <use xlink:href="#DejaVuSans-74" transform="translate(2440.035156 0)"/>
      <use xlink:href="#DejaVuSans-74" transform="translate(2479.244141 0)"/>
      <use xlink:href="#DejaVuSans-65" transform="translate(2518.453125 0)"/>
      <use xlink:href="#DejaVuSans-72" transform="translate(2579.976562 0)"/>
      <use xlink:href="#DejaVuSans-29" transform="translate(2621.089844 0)"/>
     </g>
    </g>
   </g>
   <g id="matplotlib.axis_2">
    <g id="ytick_1">
     <g id="line2d_13">
      <defs>
       <path id="m51eae377fb" d="M 0 0 
L -3.5 0 
" style="stroke: #a8a29e; stroke-width: 0.8"/>
      </defs>
      <g>
       <use xlink:href="#m51eae377fb" x="116.71" y="110.704348" style="fill: #a8a29e; stroke: #a8a29e; stroke-width: 0.8"/>
      </g>
     </g>
     <g id="text_8">
      <!-- curved (poly) -->
      <g style="fill: #a8a29e" transform="translate(33.220625 109.508528) scale(0.115 -0.115)">
       <defs>
        <path id="DejaVuSans-75" d="M 544 1381 
L 544 3500 
L 1119 3500 
L 1119 1403 
Q 1119 906 1312 657 
Q 1506 409 1894 409 
Q 2359 409 2629 706 
Q 2900 1003 2900 1516 
L 2900 3500 
L 3475 3500 
L 3475 0 
L 2900 0 
L 2900 538 
Q 2691 219 2414 64 
Q 2138 -91 1772 -91 
Q 1169 -91 856 284 
Q 544 659 544 1381 
z
M 1991 3584 
L 1991 3584 
z
" transform="scale(0.015625)"/>
        <path id="DejaVuSans-79" d="M 2059 -325 
Q 1816 -950 1584 -1140 
Q 1353 -1331 966 -1331 
L 506 -1331 
L 506 -850 
L 844 -850 
Q 1081 -850 1212 -737 
Q 1344 -625 1503 -206 
L 1606 56 
L 191 3500 
L 800 3500 
L 1894 763 
L 2988 3500 
L 3597 3500 
L 2059 -325 
z
" transform="scale(0.015625)"/>
       </defs>
       <use xlink:href="#DejaVuSans-63"/>
       <use xlink:href="#DejaVuSans-75" transform="translate(54.980469 0)"/>
       <use xlink:href="#DejaVuSans-72" transform="translate(118.359375 0)"/>
       <use xlink:href="#DejaVuSans-76" transform="translate(159.472656 0)"/>
       <use xlink:href="#DejaVuSans-65" transform="translate(218.652344 0)"/>
       <use xlink:href="#DejaVuSans-64" transform="translate(280.175781 0)"/>
       <use xlink:href="#DejaVuSans-20" transform="translate(343.652344 0)"/>
       <use xlink:href="#DejaVuSans-28" transform="translate(375.439453 0)"/>
       <use xlink:href="#DejaVuSans-70" transform="translate(414.453125 0)"/>
       <use xlink:href="#DejaVuSans-6f" transform="translate(477.929688 0)"/>
       <use xlink:href="#DejaVuSans-6c" transform="translate(539.111328 0)"/>
       <use xlink:href="#DejaVuSans-79" transform="translate(566.894531 0)"/>
       <use xlink:href="#DejaVuSans-29" transform="translate(626.074219 0)"/>
      </g>
      <!-- vs linear -->
      <g style="fill: #a8a29e" transform="translate(60.728984 122.386012) scale(0.115 -0.115)">
       <use xlink:href="#DejaVuSans-76"/>
       <use xlink:href="#DejaVuSans-73" transform="translate(59.179688 0)"/>
       <use xlink:href="#DejaVuSans-20" transform="translate(111.279297 0)"/>
       <use xlink:href="#DejaVuSans-6c" transform="translate(143.066406 0)"/>
       <use xlink:href="#DejaVuSans-69" transform="translate(170.849609 0)"/>
       <use xlink:href="#DejaVuSans-6e" transform="translate(198.632812 0)"/>
       <use xlink:href="#DejaVuSans-65" transform="translate(262.011719 0)"/>
       <use xlink:href="#DejaVuSans-61" transform="translate(323.535156 0)"/>
       <use xlink:href="#DejaVuSans-72" transform="translate(384.814453 0)"/>
      </g>
     </g>
    </g>
    <g id="ytick_2">
     <g id="line2d_14">
      <g>
       <use xlink:href="#m51eae377fb" x="116.71" y="226.33913" style="fill: #a8a29e; stroke: #a8a29e; stroke-width: 0.8"/>
      </g>
     </g>
     <g id="text_9">
      <!-- concave (kerple) -->
      <g style="fill: #a8a29e" transform="translate(13.562813 225.14331) scale(0.115 -0.115)">
       <defs>
        <path id="DejaVuSans-6b" d="M 581 4863 
L 1159 4863 
L 1159 1991 
L 2875 3500 
L 3609 3500 
L 1753 1863 
L 3688 0 
L 2938 0 
L 1159 1709 
L 1159 0 
L 581 0 
L 581 4863 
z
" transform="scale(0.015625)"/>
       </defs>
       <use xlink:href="#DejaVuSans-63"/>
       <use xlink:href="#DejaVuSans-6f" transform="translate(54.980469 0)"/>
       <use xlink:href="#DejaVuSans-6e" transform="translate(116.162109 0)"/>
       <use xlink:href="#DejaVuSans-63" transform="translate(179.541016 0)"/>
       <use xlink:href="#DejaVuSans-61" transform="translate(234.521484 0)"/>
       <use xlink:href="#DejaVuSans-76" transform="translate(295.800781 0)"/>
       <use xlink:href="#DejaVuSans-65" transform="translate(354.980469 0)"/>
       <use xlink:href="#DejaVuSans-20" transform="translate(416.503906 0)"/>
       <use xlink:href="#DejaVuSans-28" transform="translate(448.291016 0)"/>
       <use xlink:href="#DejaVuSans-6b" transform="translate(487.304688 0)"/>
       <use xlink:href="#DejaVuSans-65" transform="translate(541.589844 0)"/>
       <use xlink:href="#DejaVuSans-72" transform="translate(603.113281 0)"/>
       <use xlink:href="#DejaVuSans-70" transform="translate(644.226562 0)"/>
       <use xlink:href="#DejaVuSans-6c" transform="translate(707.703125 0)"/>
       <use xlink:href="#DejaVuSans-65" transform="translate(735.486328 0)"/>
       <use xlink:href="#DejaVuSans-29" transform="translate(797.009766 0)"/>
      </g>
      <!-- vs linear -->
      <g style="fill: #a8a29e" transform="translate(60.728984 238.020794) scale(0.115 -0.115)">
       <use xlink:href="#DejaVuSans-76"/>
       <use xlink:href="#DejaVuSans-73" transform="translate(59.179688 0)"/>
       <use xlink:href="#DejaVuSans-20" transform="translate(111.279297 0)"/>
       <use xlink:href="#DejaVuSans-6c" transform="translate(143.066406 0)"/>
       <use xlink:href="#DejaVuSans-69" transform="translate(170.849609 0)"/>
       <use xlink:href="#DejaVuSans-6e" transform="translate(198.632812 0)"/>
       <use xlink:href="#DejaVuSans-65" transform="translate(262.011719 0)"/>
       <use xlink:href="#DejaVuSans-61" transform="translate(323.535156 0)"/>
       <use xlink:href="#DejaVuSans-72" transform="translate(384.814453 0)"/>
      </g>
     </g>
    </g>
   </g>
   <g id="line2d_15">
    <path d="M 284.476957 295.72 
L 284.476957 29.76 
" clip-path="url(#p22cc11a316)" style="fill: none; stroke: #a8a29e; stroke-width: 1.4; stroke-linecap: square"/>
   </g>
   <g id="line2d_16">
    <defs>
     <path id="md1603db2e6" d="M 0 2.5 
C 0.663008 2.5 1.29895 2.236584 1.767767 1.767767 
C 2.236584 1.29895 2.5 0.663008 2.5 0 
C 2.5 -0.663008 2.236584 -1.29895 1.767767 -1.767767 
C 1.29895 -2.236584 0.663008 -2.5 0 -2.5 
C -0.663008 -2.5 -1.29895 -2.236584 -1.767767 -1.767767 
C -2.236584 -1.29895 -2.5 -0.663008 -2.5 0 
C -2.5 0.663008 -2.236584 1.29895 -1.767767 1.767767 
C -1.29895 2.236584 -0.663008 2.5 0 2.5 
z
" style="stroke: #c4b5fd; stroke-opacity: 0.4"/>
    </defs>
    <g clip-path="url(#p22cc11a316)">
     <use xlink:href="#md1603db2e6" x="294.962391" y="110.704348" style="fill: #c4b5fd; fill-opacity: 0.4; stroke: #c4b5fd; stroke-opacity: 0.4"/>
    </g>
   </g>
   <g id="line2d_17">
    <g clip-path="url(#p22cc11a316)">
     <use xlink:href="#md1603db2e6" x="293.704139" y="110.704348" style="fill: #c4b5fd; fill-opacity: 0.4; stroke: #c4b5fd; stroke-opacity: 0.4"/>
    </g>
   </g>
   <g id="line2d_18">
    <g clip-path="url(#p22cc11a316)">
     <use xlink:href="#md1603db2e6" x="229.533278" y="110.704348" style="fill: #c4b5fd; fill-opacity: 0.4; stroke: #c4b5fd; stroke-opacity: 0.4"/>
    </g>
   </g>
   <g id="line2d_19">
    <defs>
     <path id="mcd77acbac1" d="M 0 2.5 
C 0.663008 2.5 1.29895 2.236584 1.767767 1.767767 
C 2.236584 1.29895 2.5 0.663008 2.5 0 
C 2.5 -0.663008 2.236584 -1.29895 1.767767 -1.767767 
C 1.29895 -2.236584 0.663008 -2.5 0 -2.5 
C -0.663008 -2.5 -1.29895 -2.236584 -1.767767 -1.767767 
C -2.236584 -1.29895 -2.5 -0.663008 -2.5 0 
C -2.5 0.663008 -2.236584 1.29895 -1.767767 1.767767 
C -1.29895 2.236584 -0.663008 2.5 0 2.5 
z
" style="stroke: #fca5a5; stroke-opacity: 0.4"/>
    </defs>
    <g clip-path="url(#p22cc11a316)">
     <use xlink:href="#mcd77acbac1" x="529.83613" y="226.33913" style="fill: #fca5a5; fill-opacity: 0.4; stroke: #fca5a5; stroke-opacity: 0.4"/>
    </g>
   </g>
   <g id="line2d_20">
    <g clip-path="url(#p22cc11a316)">
     <use xlink:href="#mcd77acbac1" x="517.673026" y="226.33913" style="fill: #fca5a5; fill-opacity: 0.4; stroke: #fca5a5; stroke-opacity: 0.4"/>
    </g>
   </g>
   <g id="line2d_21">
    <g clip-path="url(#p22cc11a316)">
     <use xlink:href="#mcd77acbac1" x="511.381765" y="226.33913" style="fill: #fca5a5; fill-opacity: 0.4; stroke: #fca5a5; stroke-opacity: 0.4"/>
    </g>
   </g>
   <g id="LineCollection_1">
    <path d="M 179.775348 110.704348 
L 365.691191 110.704348 
" clip-path="url(#p22cc11a316)" style="fill: none; stroke: #c4b5fd; stroke-width: 2.5"/>
   </g>
   <g id="line2d_22">
    <defs>
     <path id="m6ac0f315c5" d="M 0 6 
L 0 -6 
" style="stroke: #c4b5fd"/>
    </defs>
    <g clip-path="url(#p22cc11a316)">
     <use xlink:href="#m6ac0f315c5" x="179.775348" y="110.704348" style="fill: #c4b5fd; stroke: #c4b5fd"/>
    </g>
   </g>
   <g id="line2d_23">
    <g clip-path="url(#p22cc11a316)">
     <use xlink:href="#m6ac0f315c5" x="365.691191" y="110.704348" style="fill: #c4b5fd; stroke: #c4b5fd"/>
    </g>
   </g>
   <g id="text_10">
    <!-- Δ=-0.003 ± 0.022 -->
    <g style="fill: #c4b5fd" transform="translate(218.354598 89.890087) scale(0.11 -0.11)">
     <defs>
      <path id="DejaVuSans-Bold-394" d="M 4922 0 
L 31 0 
L 1759 4666 
L 3194 4666 
L 4922 0 
z
M 1559 909 
L 3384 909 
L 2478 3572 
L 1559 909 
z
" transform="scale(0.015625)"/>
      <path id="DejaVuSans-Bold-3d" d="M 678 3084 
L 4684 3084 
L 4684 2350 
L 678 2350 
L 678 3084 
z
M 678 1663 
L 4684 1663 
L 4684 922 
L 678 922 
L 678 1663 
z
" transform="scale(0.015625)"/>
      <path id="DejaVuSans-Bold-2d" d="M 347 2297 
L 2309 2297 
L 2309 1388 
L 347 1388 
L 347 2297 
z
" transform="scale(0.015625)"/>
      <path id="DejaVuSans-Bold-30" d="M 2944 2338 
Q 2944 3213 2780 3570 
Q 2616 3928 2228 3928 
Q 1841 3928 1675 3570 
Q 1509 3213 1509 2338 
Q 1509 1453 1675 1090 
Q 1841 728 2228 728 
Q 2613 728 2778 1090 
Q 2944 1453 2944 2338 
z
M 4147 2328 
Q 4147 1169 3647 539 
Q 3147 -91 2228 -91 
Q 1306 -91 806 539 
Q 306 1169 306 2328 
Q 306 3491 806 4120 
Q 1306 4750 2228 4750 
Q 3147 4750 3647 4120 
Q 4147 3491 4147 2328 
z
" transform="scale(0.015625)"/>
      <path id="DejaVuSans-Bold-2e" d="M 653 1209 
L 1778 1209 
L 1778 0 
L 653 0 
L 653 1209 
z
" transform="scale(0.015625)"/>
      <path id="DejaVuSans-Bold-33" d="M 2981 2516 
Q 3453 2394 3698 2092 
Q 3944 1791 3944 1325 
Q 3944 631 3412 270 
Q 2881 -91 1863 -91 
Q 1503 -91 1142 -33 
Q 781 25 428 141 
L 428 1069 
Q 766 900 1098 814 
Q 1431 728 1753 728 
Q 2231 728 2486 893 
Q 2741 1059 2741 1369 
Q 2741 1688 2480 1852 
Q 2219 2016 1709 2016 
L 1228 2016 
L 1228 2791 
L 1734 2791 
Q 2188 2791 2409 2933 
Q 2631 3075 2631 3366 
Q 2631 3634 2415 3781 
Q 2200 3928 1806 3928 
Q 1516 3928 1219 3862 
Q 922 3797 628 3669 
L 628 4550 
Q 984 4650 1334 4700 
Q 1684 4750 2022 4750 
Q 2931 4750 3382 4451 
Q 3834 4153 3834 3553 
Q 3834 3144 3618 2883 
Q 3403 2622 2981 2516 
z
" transform="scale(0.015625)"/>
      <path id="DejaVuSans-Bold-20" transform="scale(0.015625)"/>
      <path id="DejaVuSans-Bold-b1" d="M 3053 4013 
L 3053 2906 
L 4684 2906 
L 4684 2169 
L 3053 2169 
L 3053 1063 
L 2309 1063 
L 2309 2169 
L 678 2169 
L 678 2906 
L 2309 2906 
L 2309 4013 
L 3053 4013 
z
M 678 744 
L 4684 744 
L 4684 0 
L 678 0 
L 678 744 
z
" transform="scale(0.015625)"/>
      <path id="DejaVuSans-Bold-32" d="M 1844 884 
L 3897 884 
L 3897 0 
L 506 0 
L 506 884 
L 2209 2388 
Q 2438 2594 2547 2791 
Q 2656 2988 2656 3200 
Q 2656 3528 2436 3728 
Q 2216 3928 1850 3928 
Q 1569 3928 1234 3808 
Q 900 3688 519 3450 
L 519 4475 
Q 925 4609 1322 4679 
Q 1719 4750 2100 4750 
Q 2938 4750 3402 4381 
Q 3866 4013 3866 3353 
Q 3866 2972 3669 2642 
Q 3472 2313 2841 1759 
L 1844 884 
z
" transform="scale(0.015625)"/>
     </defs>
     <use xlink:href="#DejaVuSans-Bold-394"/>
     <use xlink:href="#DejaVuSans-Bold-3d" transform="translate(77.392578 0)"/>
     <use xlink:href="#DejaVuSans-Bold-2d" transform="translate(161.181641 0)"/>
     <use xlink:href="#DejaVuSans-Bold-30" transform="translate(202.685547 0)"/>
     <use xlink:href="#DejaVuSans-Bold-2e" transform="translate(272.265625 0)"/>
     <use xlink:href="#DejaVuSans-Bold-30" transform="translate(310.253906 0)"/>
     <use xlink:href="#DejaVuSans-Bold-30" transform="translate(379.833984 0)"/>
     <use xlink:href="#DejaVuSans-Bold-33" transform="translate(449.414062 0)"/>
     <use xlink:href="#DejaVuSans-Bold-20" transform="translate(518.994141 0)"/>
     <use xlink:href="#DejaVuSans-Bold-b1" transform="translate(553.808594 0)"/>
     <use xlink:href="#DejaVuSans-Bold-20" transform="translate(637.597656 0)"/>
     <use xlink:href="#DejaVuSans-Bold-30" transform="translate(672.412109 0)"/>
     <use xlink:href="#DejaVuSans-Bold-2e" transform="translate(741.992188 0)"/>
     <use xlink:href="#DejaVuSans-Bold-30" transform="translate(779.980469 0)"/>
     <use xlink:href="#DejaVuSans-Bold-32" transform="translate(849.560547 0)"/>
     <use xlink:href="#DejaVuSans-Bold-32" transform="translate(919.140625 0)"/>
    </g>
   </g>
   <g id="text_11">
    <!-- no real difference -->
    <g style="fill: #a8a29e" transform="translate(226.241238 136.144) scale(0.105 -0.105)">
     <defs>
      <path id="DejaVuSans-Oblique-6e" d="M 3566 2113 
L 3156 0 
L 2578 0 
L 2988 2091 
Q 3016 2238 3031 2350 
Q 3047 2463 3047 2528 
Q 3047 2791 2881 2937 
Q 2716 3084 2419 3084 
Q 1956 3084 1622 2776 
Q 1288 2469 1184 1941 
L 800 0 
L 225 0 
L 903 3500 
L 1478 3500 
L 1363 2950 
Q 1603 3253 1940 3418 
Q 2278 3584 2650 3584 
Q 3113 3584 3367 3334 
Q 3622 3084 3622 2631 
Q 3622 2519 3608 2391 
Q 3594 2263 3566 2113 
z
" transform="scale(0.015625)"/>
      <path id="DejaVuSans-Oblique-6f" d="M 1625 -91 
Q 1009 -91 651 289 
Q 294 669 294 1325 
Q 294 1706 417 2101 
Q 541 2497 738 2766 
Q 1047 3184 1428 3384 
Q 1809 3584 2291 3584 
Q 2888 3584 3255 3212 
Q 3622 2841 3622 2241 
Q 3622 1825 3500 1412 
Q 3378 1000 3181 728 
Q 2875 309 2494 109 
Q 2113 -91 1625 -91 
z
M 891 1344 
Q 891 869 1089 633 
Q 1288 397 1691 397 
Q 2269 397 2648 901 
Q 3028 1406 3028 2181 
Q 3028 2634 2825 2865 
Q 2622 3097 2228 3097 
Q 1903 3097 1650 2945 
Q 1397 2794 1197 2484 
Q 1050 2253 970 1956 
Q 891 1659 891 1344 
z
" transform="scale(0.015625)"/>
      <path id="DejaVuSans-Oblique-20" transform="scale(0.015625)"/>
      <path id="DejaVuSans-Oblique-72" d="M 2853 2969 
Q 2766 3016 2653 3041 
Q 2541 3066 2413 3066 
Q 1953 3066 1609 2717 
Q 1266 2369 1153 1784 
L 800 0 
L 225 0 
L 909 3500 
L 1484 3500 
L 1375 2956 
Q 1603 3259 1920 3421 
Q 2238 3584 2597 3584 
Q 2691 3584 2781 3573 
Q 2872 3563 2963 3538 
L 2853 2969 
z
" transform="scale(0.015625)"/>
      <path id="DejaVuSans-Oblique-65" d="M 3078 2063 
Q 3088 2113 3092 2166 
Q 3097 2219 3097 2272 
Q 3097 2653 2873 2875 
Q 2650 3097 2266 3097 
Q 1838 3097 1509 2826 
Q 1181 2556 1013 2059 
L 3078 2063 
z
M 3578 1613 
L 903 1613 
Q 884 1494 878 1425 
Q 872 1356 872 1306 
Q 872 872 1139 634 
Q 1406 397 1894 397 
Q 2269 397 2603 481 
Q 2938 566 3225 728 
L 3116 159 
Q 2806 34 2476 -28 
Q 2147 -91 1806 -91 
Q 1078 -91 686 257 
Q 294 606 294 1247 
Q 294 1794 489 2264 
Q 684 2734 1063 3103 
Q 1306 3334 1642 3459 
Q 1978 3584 2356 3584 
Q 2950 3584 3301 3228 
Q 3653 2872 3653 2272 
Q 3653 2128 3634 1964 
Q 3616 1800 3578 1613 
z
" transform="scale(0.015625)"/>
      <path id="DejaVuSans-Oblique-61" d="M 3438 1997 
L 3047 0 
L 2472 0 
L 2578 531 
Q 2325 219 2001 64 
Q 1678 -91 1281 -91 
Q 834 -91 548 182 
Q 263 456 263 884 
Q 263 1497 752 1853 
Q 1241 2209 2100 2209 
L 2900 2209 
L 2931 2363 
Q 2938 2388 2941 2417 
Q 2944 2447 2944 2509 
Q 2944 2788 2717 2942 
Q 2491 3097 2081 3097 
Q 1800 3097 1504 3025 
Q 1209 2953 897 2809 
L 997 3341 
Q 1322 3463 1633 3523 
Q 1944 3584 2234 3584 
Q 2853 3584 3176 3315 
Q 3500 3047 3500 2534 
Q 3500 2431 3484 2292 
Q 3469 2153 3438 1997 
z
M 2816 1759 
L 2241 1759 
Q 1534 1759 1195 1570 
Q 856 1381 856 984 
Q 856 709 1029 553 
Q 1203 397 1509 397 
Q 1978 397 2328 733 
Q 2678 1069 2791 1631 
L 2816 1759 
z
" transform="scale(0.015625)"/>
      <path id="DejaVuSans-Oblique-6c" d="M 1172 4863 
L 1747 4863 
L 800 0 
L 225 0 
L 1172 4863 
z
" transform="scale(0.015625)"/>
      <path id="DejaVuSans-Oblique-64" d="M 2675 525 
Q 2444 222 2128 65 
Q 1813 -91 1428 -91 
Q 903 -91 598 267 
Q 294 625 294 1247 
Q 294 1766 478 2236 
Q 663 2706 1013 3078 
Q 1244 3325 1534 3454 
Q 1825 3584 2144 3584 
Q 2481 3584 2739 3421 
Q 2997 3259 3138 2956 
L 3513 4863 
L 4091 4863 
L 3144 0 
L 2566 0 
L 2675 525 
z
M 891 1350 
Q 891 897 1095 644 
Q 1300 391 1663 391 
Q 1931 391 2161 520 
Q 2391 650 2566 903 
Q 2750 1166 2856 1509 
Q 2963 1853 2963 2188 
Q 2963 2622 2758 2865 
Q 2553 3109 2194 3109 
Q 1922 3109 1687 2981 
Q 1453 2853 1288 2613 
Q 1106 2353 998 2009 
Q 891 1666 891 1350 
z
" transform="scale(0.015625)"/>
      <path id="DejaVuSans-Oblique-69" d="M 1172 4863 
L 1747 4863 
L 1606 4134 
L 1031 4134 
L 1172 4863 
z
M 909 3500 
L 1484 3500 
L 800 0 
L 225 0 
L 909 3500 
z
" transform="scale(0.015625)"/>
      <path id="DejaVuSans-Oblique-66" d="M 3059 4863 
L 2969 4384 
L 2419 4384 
Q 2106 4384 1964 4261 
Q 1822 4138 1753 3809 
L 1691 3500 
L 2638 3500 
L 2553 3053 
L 1606 3053 
L 1013 0 
L 434 0 
L 1031 3053 
L 481 3053 
L 563 3500 
L 1113 3500 
L 1159 3744 
Q 1278 4363 1576 4613 
Q 1875 4863 2516 4863 
L 3059 4863 
z
" transform="scale(0.015625)"/>
      <path id="DejaVuSans-Oblique-63" d="M 3431 3366 
L 3316 2797 
Q 3109 2947 2876 3022 
Q 2644 3097 2394 3097 
Q 2119 3097 1870 3000 
Q 1622 2903 1453 2725 
Q 1184 2453 1037 2087 
Q 891 1722 891 1331 
Q 891 859 1127 628 
Q 1363 397 1844 397 
Q 2081 397 2348 469 
Q 2616 541 2906 684 
L 2797 116 
Q 2547 13 2283 -39 
Q 2019 -91 1741 -91 
Q 1044 -91 669 257 
Q 294 606 294 1253 
Q 294 1797 489 2255 
Q 684 2713 1069 3078 
Q 1331 3328 1684 3456 
Q 2038 3584 2456 3584 
Q 2700 3584 2940 3529 
Q 3181 3475 3431 3366 
z
" transform="scale(0.015625)"/>
     </defs>
     <use xlink:href="#DejaVuSans-Oblique-6e"/>
     <use xlink:href="#DejaVuSans-Oblique-6f" transform="translate(63.378906 0)"/>
     <use xlink:href="#DejaVuSans-Oblique-20" transform="translate(124.560547 0)"/>
     <use xlink:href="#DejaVuSans-Oblique-72" transform="translate(156.347656 0)"/>
     <use xlink:href="#DejaVuSans-Oblique-65" transform="translate(197.460938 0)"/>
     <use xlink:href="#DejaVuSans-Oblique-61" transform="translate(258.984375 0)"/>
     <use xlink:href="#DejaVuSans-Oblique-6c" transform="translate(320.263672 0)"/>
     <use xlink:href="#DejaVuSans-Oblique-20" transform="translate(348.046875 0)"/>
     <use xlink:href="#DejaVuSans-Oblique-64" transform="translate(379.833984 0)"/>
     <use xlink:href="#DejaVuSans-Oblique-69" transform="translate(443.310547 0)"/>
     <use xlink:href="#DejaVuSans-Oblique-66" transform="translate(471.09375 0)"/>
     <use xlink:href="#DejaVuSans-Oblique-66" transform="translate(506.298828 0)"/>
     <use xlink:href="#DejaVuSans-Oblique-65" transform="translate(541.503906 0)"/>
     <use xlink:href="#DejaVuSans-Oblique-72" transform="translate(603.027344 0)"/>
     <use xlink:href="#DejaVuSans-Oblique-65" transform="translate(644.140625 0)"/>
     <use xlink:href="#DejaVuSans-Oblique-6e" transform="translate(705.664062 0)"/>
     <use xlink:href="#DejaVuSans-Oblique-63" transform="translate(769.042969 0)"/>
     <use xlink:href="#DejaVuSans-Oblique-65" transform="translate(824.023438 0)"/>
    </g>
   </g>
   <g id="LineCollection_2">
    <path d="M 496.323281 226.33913 
L 542.937334 226.33913 
" clip-path="url(#p22cc11a316)" style="fill: none; stroke: #fca5a5; stroke-width: 2.5"/>
   </g>
   <g id="line2d_24">
    <defs>
     <path id="mc1cc1558b5" d="M 0 6 
L 0 -6 
" style="stroke: #fca5a5"/>
    </defs>
    <g clip-path="url(#p22cc11a316)">
     <use xlink:href="#mc1cc1558b5" x="496.323281" y="226.33913" style="fill: #fca5a5; stroke: #fca5a5"/>
    </g>
   </g>
   <g id="line2d_25">
    <g clip-path="url(#p22cc11a316)">
     <use xlink:href="#mc1cc1558b5" x="542.937334" y="226.33913" style="fill: #fca5a5; stroke: #fca5a5"/>
    </g>
   </g>
   <g id="text_12">
    <!-- Δ=+0.056 ± 0.006 -->
    <g style="fill: #fca5a5" transform="translate(462.925307 205.52487) scale(0.11 -0.11)">
     <defs>
      <path id="DejaVuSans-Bold-2b" d="M 3053 4013 
L 3053 2375 
L 4684 2375 
L 4684 1638 
L 3053 1638 
L 3053 0 
L 2309 0 
L 2309 1638 
L 678 1638 
L 678 2375 
L 2309 2375 
L 2309 4013 
L 3053 4013 
z
" transform="scale(0.015625)"/>
      <path id="DejaVuSans-Bold-35" d="M 678 4666 
L 3669 4666 
L 3669 3781 
L 1638 3781 
L 1638 3059 
Q 1775 3097 1914 3117 
Q 2053 3138 2203 3138 
Q 3056 3138 3531 2711 
Q 4006 2284 4006 1522 
Q 4006 766 3489 337 
Q 2972 -91 2053 -91 
Q 1656 -91 1267 -14 
Q 878 63 494 219 
L 494 1166 
Q 875 947 1217 837 
Q 1559 728 1863 728 
Q 2300 728 2551 942 
Q 2803 1156 2803 1522 
Q 2803 1891 2551 2103 
Q 2300 2316 1863 2316 
Q 1603 2316 1309 2248 
Q 1016 2181 678 2041 
L 678 4666 
z
" transform="scale(0.015625)"/>
      <path id="DejaVuSans-Bold-36" d="M 2316 2303 
Q 2000 2303 1842 2098 
Q 1684 1894 1684 1484 
Q 1684 1075 1842 870 
Q 2000 666 2316 666 
Q 2634 666 2792 870 
Q 2950 1075 2950 1484 
Q 2950 1894 2792 2098 
Q 2634 2303 2316 2303 
z
M 3803 4544 
L 3803 3681 
Q 3506 3822 3243 3889 
Q 2981 3956 2731 3956 
Q 2194 3956 1894 3657 
Q 1594 3359 1544 2772 
Q 1750 2925 1990 3001 
Q 2231 3078 2516 3078 
Q 3231 3078 3670 2659 
Q 4109 2241 4109 1563 
Q 4109 813 3618 361 
Q 3128 -91 2303 -91 
Q 1394 -91 895 523 
Q 397 1138 397 2266 
Q 397 3422 980 4083 
Q 1563 4744 2578 4744 
Q 2900 4744 3203 4694 
Q 3506 4644 3803 4544 
z
" transform="scale(0.015625)"/>
     </defs>
     <use xlink:href="#DejaVuSans-Bold-394"/>
     <use xlink:href="#DejaVuSans-Bold-3d" transform="translate(77.392578 0)"/>
     <use xlink:href="#DejaVuSans-Bold-2b" transform="translate(161.181641 0)"/>
     <use xlink:href="#DejaVuSans-Bold-30" transform="translate(244.970703 0)"/>
     <use xlink:href="#DejaVuSans-Bold-2e" transform="translate(314.550781 0)"/>
     <use xlink:href="#DejaVuSans-Bold-30" transform="translate(352.539062 0)"/>
     <use xlink:href="#DejaVuSans-Bold-35" transform="translate(422.119141 0)"/>
     <use xlink:href="#DejaVuSans-Bold-36" transform="translate(491.699219 0)"/>
     <use xlink:href="#DejaVuSans-Bold-20" transform="translate(561.279297 0)"/>
     <use xlink:href="#DejaVuSans-Bold-b1" transform="translate(596.09375 0)"/>
     <use xlink:href="#DejaVuSans-Bold-20" transform="translate(679.882812 0)"/>
     <use xlink:href="#DejaVuSans-Bold-30" transform="translate(714.697266 0)"/>
     <use xlink:href="#DejaVuSans-Bold-2e" transform="translate(784.277344 0)"/>
     <use xlink:href="#DejaVuSans-Bold-30" transform="translate(822.265625 0)"/>
     <use xlink:href="#DejaVuSans-Bold-30" transform="translate(891.845703 0)"/>
     <use xlink:href="#DejaVuSans-Bold-36" transform="translate(961.425781 0)"/>
    </g>
   </g>
   <g id="text_13">
    <!-- REAL — worse -->
    <g style="fill: #fca5a5" transform="translate(481.932026 251.778783) scale(0.105 -0.105)">
     <defs>
      <path id="DejaVuSans-52" d="M 2841 2188 
Q 3044 2119 3236 1894 
Q 3428 1669 3622 1275 
L 4263 0 
L 3584 0 
L 2988 1197 
Q 2756 1666 2539 1819 
Q 2322 1972 1947 1972 
L 1259 1972 
L 1259 0 
L 628 0 
L 628 4666 
L 2053 4666 
Q 2853 4666 3247 4331 
Q 3641 3997 3641 3322 
Q 3641 2881 3436 2590 
Q 3231 2300 2841 2188 
z
M 1259 4147 
L 1259 2491 
L 2053 2491 
Q 2509 2491 2742 2702 
Q 2975 2913 2975 3322 
Q 2975 3731 2742 3939 
Q 2509 4147 2053 4147 
L 1259 4147 
z
" transform="scale(0.015625)"/>
      <path id="DejaVuSans-45" d="M 628 4666 
L 3578 4666 
L 3578 4134 
L 1259 4134 
L 1259 2753 
L 3481 2753 
L 3481 2222 
L 1259 2222 
L 1259 531 
L 3634 531 
L 3634 0 
L 628 0 
L 628 4666 
z
" transform="scale(0.015625)"/>
      <path id="DejaVuSans-41" d="M 2188 4044 
L 1331 1722 
L 3047 1722 
L 2188 4044 
z
M 1831 4666 
L 2547 4666 
L 4325 0 
L 3669 0 
L 3244 1197 
L 1141 1197 
L 716 0 
L 50 0 
L 1831 4666 
z
" transform="scale(0.015625)"/>
      <path id="DejaVuSans-4c" d="M 628 4666 
L 1259 4666 
L 1259 531 
L 3531 531 
L 3531 0 
L 628 0 
L 628 4666 
z
" transform="scale(0.015625)"/>
      <path id="DejaVuSans-2014" d="M 313 1978 
L 6088 1978 
L 6088 1528 
L 313 1528 
L 313 1978 
z
" transform="scale(0.015625)"/>
     </defs>
     <use xlink:href="#DejaVuSans-52"/>
     <use xlink:href="#DejaVuSans-45" transform="translate(69.482422 0)"/>
     <use xlink:href="#DejaVuSans-41" transform="translate(132.666016 0)"/>
     <use xlink:href="#DejaVuSans-4c" transform="translate(201.074219 0)"/>
     <use xlink:href="#DejaVuSans-20" transform="translate(256.787109 0)"/>
     <use xlink:href="#DejaVuSans-2014" transform="translate(288.574219 0)"/>
     <use xlink:href="#DejaVuSans-20" transform="translate(388.574219 0)"/>
     <use xlink:href="#DejaVuSans-77" transform="translate(420.361328 0)"/>
     <use xlink:href="#DejaVuSans-6f" transform="translate(502.148438 0)"/>
     <use xlink:href="#DejaVuSans-72" transform="translate(563.330078 0)"/>
     <use xlink:href="#DejaVuSans-73" transform="translate(604.443359 0)"/>
     <use xlink:href="#DejaVuSans-65" transform="translate(656.542969 0)"/>
    </g>
   </g>
   <g id="text_14">
    <!-- ±0.02 noise -->
    <g style="fill: #fde68a" transform="translate(339.001217 39.010783) scale(0.09 -0.09)">
     <defs>
      <path id="DejaVuSans-b1" d="M 2944 4013 
L 2944 2803 
L 4684 2803 
L 4684 2272 
L 2944 2272 
L 2944 1063 
L 2419 1063 
L 2419 2272 
L 678 2272 
L 678 2803 
L 2419 2803 
L 2419 4013 
L 2944 4013 
z
M 678 531 
L 4684 531 
L 4684 0 
L 678 0 
L 678 531 
z
" transform="scale(0.015625)"/>
     </defs>
     <use xlink:href="#DejaVuSans-b1"/>
     <use xlink:href="#DejaVuSans-30" transform="translate(83.789062 0)"/>
     <use xlink:href="#DejaVuSans-2e" transform="translate(147.412109 0)"/>
     <use xlink:href="#DejaVuSans-30" transform="translate(179.199219 0)"/>
     <use xlink:href="#DejaVuSans-32" transform="translate(242.822266 0)"/>
     <use xlink:href="#DejaVuSans-20" transform="translate(306.445312 0)"/>
     <use xlink:href="#DejaVuSans-6e" transform="translate(338.232422 0)"/>
     <use xlink:href="#DejaVuSans-6f" transform="translate(401.611328 0)"/>
     <use xlink:href="#DejaVuSans-69" transform="translate(462.792969 0)"/>
     <use xlink:href="#DejaVuSans-73" transform="translate(490.576172 0)"/>
     <use xlink:href="#DejaVuSans-65" transform="translate(542.675781 0)"/>
    </g>
   </g>
   <g id="text_15">
    <!-- What's real vs. what's noise (paired across 3 seeds) -->
    <g style="fill: #e7e5e4" transform="translate(145.40582 23.76) scale(0.145 -0.145)">
     <defs>
      <path id="DejaVuSans-Bold-57" d="M 191 4666 
L 1344 4666 
L 2150 1275 
L 2950 4666 
L 4109 4666 
L 4909 1275 
L 5716 4666 
L 6859 4666 
L 5759 0 
L 4372 0 
L 3525 3547 
L 2688 0 
L 1300 0 
L 191 4666 
z
" transform="scale(0.015625)"/>
      <path id="DejaVuSans-Bold-68" d="M 4056 2131 
L 4056 0 
L 2931 0 
L 2931 347 
L 2931 1625 
Q 2931 2084 2911 2256 
Q 2891 2428 2841 2509 
Q 2775 2619 2662 2680 
Q 2550 2741 2406 2741 
Q 2056 2741 1856 2470 
Q 1656 2200 1656 1722 
L 1656 0 
L 538 0 
L 538 4863 
L 1656 4863 
L 1656 2988 
Q 1909 3294 2193 3439 
Q 2478 3584 2822 3584 
Q 3428 3584 3742 3212 
Q 4056 2841 4056 2131 
z
" transform="scale(0.015625)"/>
      <path id="DejaVuSans-Bold-61" d="M 2106 1575 
Q 1756 1575 1579 1456 
Q 1403 1338 1403 1106 
Q 1403 894 1545 773 
Q 1688 653 1941 653 
Q 2256 653 2472 879 
Q 2688 1106 2688 1447 
L 2688 1575 
L 2106 1575 
z
M 3816 1997 
L 3816 0 
L 2688 0 
L 2688 519 
Q 2463 200 2181 54 
Q 1900 -91 1497 -91 
Q 953 -91 614 226 
Q 275 544 275 1050 
Q 275 1666 698 1953 
Q 1122 2241 2028 2241 
L 2688 2241 
L 2688 2328 
Q 2688 2594 2478 2717 
Q 2269 2841 1825 2841 
Q 1466 2841 1156 2769 
Q 847 2697 581 2553 
L 581 3406 
Q 941 3494 1303 3539 
Q 1666 3584 2028 3584 
Q 2975 3584 3395 3211 
Q 3816 2838 3816 1997 
z
" transform="scale(0.015625)"/>
      <path id="DejaVuSans-Bold-74" d="M 1759 4494 
L 1759 3500 
L 2913 3500 
L 2913 2700 
L 1759 2700 
L 1759 1216 
Q 1759 972 1856 886 
Q 1953 800 2241 800 
L 2816 800 
L 2816 0 
L 1856 0 
Q 1194 0 917 276 
Q 641 553 641 1216 
L 641 2700 
L 84 2700 
L 84 3500 
L 641 3500 
L 641 4494 
L 1759 4494 
z
" transform="scale(0.015625)"/>
      <path id="DejaVuSans-Bold-27" d="M 1350 4666 
L 1350 2931 
L 609 2931 
L 609 4666 
L 1350 4666 
z
" transform="scale(0.015625)"/>
      <path id="DejaVuSans-Bold-73" d="M 3272 3391 
L 3272 2541 
Q 2913 2691 2578 2766 
Q 2244 2841 1947 2841 
Q 1628 2841 1473 2761 
Q 1319 2681 1319 2516 
Q 1319 2381 1436 2309 
Q 1553 2238 1856 2203 
L 2053 2175 
Q 2913 2066 3209 1816 
Q 3506 1566 3506 1031 
Q 3506 472 3093 190 
Q 2681 -91 1863 -91 
Q 1516 -91 1145 -36 
Q 775 19 384 128 
L 384 978 
Q 719 816 1070 734 
Q 1422 653 1784 653 
Q 2113 653 2278 743 
Q 2444 834 2444 1013 
Q 2444 1163 2330 1236 
Q 2216 1309 1875 1350 
L 1678 1375 
Q 931 1469 631 1722 
Q 331 1975 331 2491 
Q 331 3047 712 3315 
Q 1094 3584 1881 3584 
Q 2191 3584 2531 3537 
Q 2872 3491 3272 3391 
z
" transform="scale(0.015625)"/>
      <path id="DejaVuSans-Bold-72" d="M 3138 2547 
Q 2991 2616 2845 2648 
Q 2700 2681 2553 2681 
Q 2122 2681 1889 2404 
Q 1656 2128 1656 1613 
L 1656 0 
L 538 0 
L 538 3500 
L 1656 3500 
L 1656 2925 
Q 1872 3269 2151 3426 
Q 2431 3584 2822 3584 
Q 2878 3584 2943 3579 
Q 3009 3575 3134 3559 
L 3138 2547 
z
" transform="scale(0.015625)"/>
      <path id="DejaVuSans-Bold-65" d="M 4031 1759 
L 4031 1441 
L 1416 1441 
Q 1456 1047 1700 850 
Q 1944 653 2381 653 
Q 2734 653 3104 758 
Q 3475 863 3866 1075 
L 3866 213 
Q 3469 63 3072 -14 
Q 2675 -91 2278 -91 
Q 1328 -91 801 392 
Q 275 875 275 1747 
Q 275 2603 792 3093 
Q 1309 3584 2216 3584 
Q 3041 3584 3536 3087 
Q 4031 2591 4031 1759 
z
M 2881 2131 
Q 2881 2450 2695 2645 
Q 2509 2841 2209 2841 
Q 1884 2841 1681 2658 
Q 1478 2475 1428 2131 
L 2881 2131 
z
" transform="scale(0.015625)"/>
      <path id="DejaVuSans-Bold-6c" d="M 538 4863 
L 1656 4863 
L 1656 0 
L 538 0 
L 538 4863 
z
" transform="scale(0.015625)"/>
      <path id="DejaVuSans-Bold-76" d="M 97 3500 
L 1216 3500 
L 2088 1081 
L 2956 3500 
L 4078 3500 
L 2700 0 
L 1472 0 
L 97 3500 
z
" transform="scale(0.015625)"/>
      <path id="DejaVuSans-Bold-77" d="M 225 3500 
L 1313 3500 
L 1900 1088 
L 2491 3500 
L 3425 3500 
L 4013 1113 
L 4603 3500 
L 5691 3500 
L 4769 0 
L 3547 0 
L 2956 2406 
L 2369 0 
L 1147 0 
L 225 3500 
z
" transform="scale(0.015625)"/>
      <path id="DejaVuSans-Bold-6e" d="M 4056 2131 
L 4056 0 
L 2931 0 
L 2931 347 
L 2931 1631 
Q 2931 2084 2911 2256 
Q 2891 2428 2841 2509 
Q 2775 2619 2662 2680 
Q 2550 2741 2406 2741 
Q 2056 2741 1856 2470 
Q 1656 2200 1656 1722 
L 1656 0 
L 538 0 
L 538 3500 
L 1656 3500 
L 1656 2988 
Q 1909 3294 2193 3439 
Q 2478 3584 2822 3584 
Q 3428 3584 3742 3212 
Q 4056 2841 4056 2131 
z
" transform="scale(0.015625)"/>
      <path id="DejaVuSans-Bold-6f" d="M 2203 2784 
Q 1831 2784 1636 2517 
Q 1441 2250 1441 1747 
Q 1441 1244 1636 976 
Q 1831 709 2203 709 
Q 2569 709 2762 976 
Q 2956 1244 2956 1747 
Q 2956 2250 2762 2517 
Q 2569 2784 2203 2784 
z
M 2203 3584 
Q 3106 3584 3614 3096 
Q 4122 2609 4122 1747 
Q 4122 884 3614 396 
Q 3106 -91 2203 -91 
Q 1297 -91 786 396 
Q 275 884 275 1747 
Q 275 2609 786 3096 
Q 1297 3584 2203 3584 
z
" transform="scale(0.015625)"/>
      <path id="DejaVuSans-Bold-69" d="M 538 3500 
L 1656 3500 
L 1656 0 
L 538 0 
L 538 3500 
z
M 538 4863 
L 1656 4863 
L 1656 3950 
L 538 3950 
L 538 4863 
z
" transform="scale(0.015625)"/>
      <path id="DejaVuSans-Bold-28" d="M 2413 -844 
L 1484 -844 
Q 1006 -72 778 623 
Q 550 1319 550 2003 
Q 550 2688 779 3389 
Q 1009 4091 1484 4856 
L 2413 4856 
Q 2013 4116 1813 3408 
Q 1613 2700 1613 2009 
Q 1613 1319 1811 609 
Q 2009 -100 2413 -844 
z
" transform="scale(0.015625)"/>
      <path id="DejaVuSans-Bold-70" d="M 1656 506 
L 1656 -1331 
L 538 -1331 
L 538 3500 
L 1656 3500 
L 1656 2988 
Q 1888 3294 2169 3439 
Q 2450 3584 2816 3584 
Q 3463 3584 3878 3070 
Q 4294 2556 4294 1747 
Q 4294 938 3878 423 
Q 3463 -91 2816 -91 
Q 2450 -91 2169 54 
Q 1888 200 1656 506 
z
M 2400 2772 
Q 2041 2772 1848 2508 
Q 1656 2244 1656 1747 
Q 1656 1250 1848 986 
Q 2041 722 2400 722 
Q 2759 722 2948 984 
Q 3138 1247 3138 1747 
Q 3138 2247 2948 2509 
Q 2759 2772 2400 2772 
z
" transform="scale(0.015625)"/>
      <path id="DejaVuSans-Bold-64" d="M 2919 2988 
L 2919 4863 
L 4044 4863 
L 4044 0 
L 2919 0 
L 2919 506 
Q 2688 197 2409 53 
Q 2131 -91 1766 -91 
Q 1119 -91 703 423 
Q 288 938 288 1747 
Q 288 2556 703 3070 
Q 1119 3584 1766 3584 
Q 2128 3584 2408 3439 
Q 2688 3294 2919 2988 
z
M 2181 722 
Q 2541 722 2730 984 
Q 2919 1247 2919 1747 
Q 2919 2247 2730 2509 
Q 2541 2772 2181 2772 
Q 1825 2772 1636 2509 
Q 1447 2247 1447 1747 
Q 1447 1247 1636 984 
Q 1825 722 2181 722 
z
" transform="scale(0.015625)"/>
      <path id="DejaVuSans-Bold-63" d="M 3366 3391 
L 3366 2478 
Q 3138 2634 2908 2709 
Q 2678 2784 2431 2784 
Q 1963 2784 1702 2511 
Q 1441 2238 1441 1747 
Q 1441 1256 1702 982 
Q 1963 709 2431 709 
Q 2694 709 2930 787 
Q 3166 866 3366 1019 
L 3366 103 
Q 3103 6 2833 -42 
Q 2563 -91 2291 -91 
Q 1344 -91 809 395 
Q 275 881 275 1747 
Q 275 2613 809 3098 
Q 1344 3584 2291 3584 
Q 2566 3584 2833 3536 
Q 3100 3488 3366 3391 
z
" transform="scale(0.015625)"/>
      <path id="DejaVuSans-Bold-29" d="M 513 -844 
Q 913 -100 1113 609 
Q 1313 1319 1313 2009 
Q 1313 2700 1113 3408 
Q 913 4116 513 4856 
L 1441 4856 
Q 1916 4091 2145 3389 
Q 2375 2688 2375 2003 
Q 2375 1319 2147 623 
Q 1919 -72 1441 -844 
L 513 -844 
z
" transform="scale(0.015625)"/>
     </defs>
     <use xlink:href="#DejaVuSans-Bold-57"/>
     <use xlink:href="#DejaVuSans-Bold-68" transform="translate(110.302734 0)"/>
     <use xlink:href="#DejaVuSans-Bold-61" transform="translate(181.494141 0)"/>
     <use xlink:href="#DejaVuSans-Bold-74" transform="translate(248.974609 0)"/>
     <use xlink:href="#DejaVuSans-Bold-27" transform="translate(296.777344 0)"/>
     <use xlink:href="#DejaVuSans-Bold-73" transform="translate(327.392578 0)"/>
     <use xlink:href="#DejaVuSans-Bold-20" transform="translate(386.914062 0)"/>
     <use xlink:href="#DejaVuSans-Bold-72" transform="translate(421.728516 0)"/>
     <use xlink:href="#DejaVuSans-Bold-65" transform="translate(471.044922 0)"/>
     <use xlink:href="#DejaVuSans-Bold-61" transform="translate(538.867188 0)"/>
     <use xlink:href="#DejaVuSans-Bold-6c" transform="translate(606.347656 0)"/>
     <use xlink:href="#DejaVuSans-Bold-20" transform="translate(640.625 0)"/>
     <use xlink:href="#DejaVuSans-Bold-76" transform="translate(675.439453 0)"/>
     <use xlink:href="#DejaVuSans-Bold-73" transform="translate(740.625 0)"/>
     <use xlink:href="#DejaVuSans-Bold-2e" transform="translate(800.146484 0)"/>
     <use xlink:href="#DejaVuSans-Bold-20" transform="translate(838.134766 0)"/>
     <use xlink:href="#DejaVuSans-Bold-77" transform="translate(872.949219 0)"/>
     <use xlink:href="#DejaVuSans-Bold-68" transform="translate(965.332031 0)"/>
     <use xlink:href="#DejaVuSans-Bold-61" transform="translate(1036.523438 0)"/>
     <use xlink:href="#DejaVuSans-Bold-74" transform="translate(1104.003906 0)"/>
     <use xlink:href="#DejaVuSans-Bold-27" transform="translate(1151.806641 0)"/>
     <use xlink:href="#DejaVuSans-Bold-73" transform="translate(1182.421875 0)"/>
     <use xlink:href="#DejaVuSans-Bold-20" transform="translate(1241.943359 0)"/>
     <use xlink:href="#DejaVuSans-Bold-6e" transform="translate(1276.757812 0)"/>
     <use xlink:href="#DejaVuSans-Bold-6f" transform="translate(1347.949219 0)"/>
     <use xlink:href="#DejaVuSans-Bold-69" transform="translate(1416.650391 0)"/>
     <use xlink:href="#DejaVuSans-Bold-73" transform="translate(1450.927734 0)"/>
     <use xlink:href="#DejaVuSans-Bold-65" transform="translate(1510.449219 0)"/>
     <use xlink:href="#DejaVuSans-Bold-20" transform="translate(1578.271484 0)"/>
     <use xlink:href="#DejaVuSans-Bold-28" transform="translate(1613.085938 0)"/>
     <use xlink:href="#DejaVuSans-Bold-70" transform="translate(1658.789062 0)"/>
     <use xlink:href="#DejaVuSans-Bold-61" transform="translate(1730.371094 0)"/>
     <use xlink:href="#DejaVuSans-Bold-69" transform="translate(1797.851562 0)"/>
     <use xlink:href="#DejaVuSans-Bold-72" transform="translate(1832.128906 0)"/>
     <use xlink:href="#DejaVuSans-Bold-65" transform="translate(1881.445312 0)"/>
     <use xlink:href="#DejaVuSans-Bold-64" transform="translate(1949.267578 0)"/>
     <use xlink:href="#DejaVuSans-Bold-20" transform="translate(2020.849609 0)"/>
     <use xlink:href="#DejaVuSans-Bold-61" transform="translate(2055.664062 0)"/>
     <use xlink:href="#DejaVuSans-Bold-63" transform="translate(2123.144531 0)"/>
     <use xlink:href="#DejaVuSans-Bold-72" transform="translate(2182.421875 0)"/>
     <use xlink:href="#DejaVuSans-Bold-6f" transform="translate(2231.738281 0)"/>
     <use xlink:href="#DejaVuSans-Bold-73" transform="translate(2300.439453 0)"/>
     <use xlink:href="#DejaVuSans-Bold-73" transform="translate(2359.960938 0)"/>
     <use xlink:href="#DejaVuSans-Bold-20" transform="translate(2419.482422 0)"/>
     <use xlink:href="#DejaVuSans-Bold-33" transform="translate(2454.296875 0)"/>
     <use xlink:href="#DejaVuSans-Bold-20" transform="translate(2523.876953 0)"/>
     <use xlink:href="#DejaVuSans-Bold-73" transform="translate(2558.691406 0)"/>
     <use xlink:href="#DejaVuSans-Bold-65" transform="translate(2618.212891 0)"/>
     <use xlink:href="#DejaVuSans-Bold-65" transform="translate(2686.035156 0)"/>
     <use xlink:href="#DejaVuSans-Bold-64" transform="translate(2753.857422 0)"/>
     <use xlink:href="#DejaVuSans-Bold-73" transform="translate(2825.439453 0)"/>
     <use xlink:href="#DejaVuSans-Bold-29" transform="translate(2884.960938 0)"/>
    </g>
   </g>
   <g id="line2d_26">
    <defs>
     <path id="m0dc708f093" d="M 0 5.5 
C 1.458617 5.5 2.857689 4.920485 3.889087 3.889087 
C 4.920485 2.857689 5.5 1.458617 5.5 0 
C 5.5 -1.458617 4.920485 -2.857689 3.889087 -3.889087 
C 2.857689 -4.920485 1.458617 -5.5 0 -5.5 
C -1.458617 -5.5 -2.857689 -4.920485 -3.889087 -3.889087 
C -4.920485 -2.857689 -5.5 -1.458617 -5.5 0 
C -5.5 1.458617 -4.920485 2.857689 -3.889087 3.889087 
C -2.857689 4.920485 -1.458617 5.5 0 5.5 
z
" style="stroke: #c4b5fd"/>
    </defs>
    <g clip-path="url(#p22cc11a316)">
     <use xlink:href="#m0dc708f093" x="272.73327" y="110.704348" style="fill: #c4b5fd; stroke: #c4b5fd"/>
    </g>
   </g>
   <g id="line2d_27">
    <defs>
     <path id="m691e73682e" d="M 0 5.5 
C 1.458617 5.5 2.857689 4.920485 3.889087 3.889087 
C 4.920485 2.857689 5.5 1.458617 5.5 0 
C 5.5 -1.458617 4.920485 -2.857689 3.889087 -3.889087 
C 2.857689 -4.920485 1.458617 -5.5 0 -5.5 
C -1.458617 -5.5 -2.857689 -4.920485 -3.889087 -3.889087 
C -4.920485 -2.857689 -5.5 -1.458617 -5.5 0 
C -5.5 1.458617 -4.920485 2.857689 -3.889087 3.889087 
C -2.857689 4.920485 -1.458617 5.5 0 5.5 
z
" style="stroke: #fca5a5"/>
    </defs>
    <g clip-path="url(#p22cc11a316)">
     <use xlink:href="#m691e73682e" x="519.630307" y="226.33913" style="fill: #fca5a5; stroke: #fca5a5"/>
    </g>
   </g>
  </g>
 </g>
 <defs>
  <clipPath id="p22cc11a316">
   <rect x="116.71" y="29.76" width="482.33" height="265.96"/>
  </clipPath>
 </defs>
</svg>
