<?xml version="1.0" encoding="utf-8" standalone="no"?>
<!DOCTYPE svg PUBLIC "-//W3C//DTD SVG 1.1//EN"
  "http://www.w3.org/Graphics/SVG/1.1/DTD/svg11.dtd">
<svg xmlns:xlink="http://www.w3.org/1999/xlink" width="806.4pt" height="360pt" viewBox="0 0 806.4 360" xmlns="http://www.w3.org/2000/svg" version="1.1">
 <metadata>
  <rdf:RDF xmlns:dc="http://purl.org/dc/elements/1.1/" xmlns:cc="http://creativecommons.org/ns#" xmlns:rdf="http://www.w3.org/1999/02/22-rdf-syntax-ns#">
   <cc:Work>
    <dc:type rdf:resource="http://purl.org/dc/dcmitype/StillImage"/>
    <dc:date>2026-06-16T19:59:51.679470</dc:date>
    <dc:format>image/svg+xml</dc:format>
    <dc:creator>
     <cc:Agent>
      <dc:title>Matplotlib v3.10.5, https://matplotlib.org/</dc:title>
     </cc:Agent>
    </dc:creator>
   </cc:Work>
  </rdf:RDF>
 </metadata>
 <defs>
  <style type="text/css">*{stroke-linejoin: round; stroke-linecap: butt}</style>
 </defs>
 <g id="figure_1">
  <g id="patch_1">
   <path d="M 0 360 
L 806.4 360 
L 806.4 0 
L 0 0 
z
" style="fill: #1f1e1d"/>
  </g>
  <g id="axes_1">
   <g id="patch_2">
    <path d="M 52.22 310.12 
L 464.185686 310.12 
L 464.185686 44.016 
L 52.22 44.016 
z
" style="fill: #1f1e1d"/>
   </g>
   <g id="matplotlib.axis_1">
    <g id="xtick_1">
     <g id="line2d_1">
      <path d="M 70.945713 310.12 
L 70.945713 44.016 
" clip-path="url(#p2142d82229)" style="fill: none; stroke: #3a3836; stroke-opacity: 0.25; stroke-width: 0.8; stroke-linecap: square"/>
     </g>
     <g id="line2d_2">
      <defs>
       <path id="m01cb63806f" d="M 0 0 
L 0 3.5 
" style="stroke: #e7e5e4; stroke-width: 0.8"/>
      </defs>
      <g>
       <use xlink:href="#m01cb63806f" x="70.945713" y="310.12" style="fill: #e7e5e4; stroke: #e7e5e4; stroke-width: 0.8"/>
      </g>
     </g>
     <g id="text_1">
      <!-- 0 -->
      <g style="fill: #e7e5e4" transform="translate(67.128213 326.238125) scale(0.12 -0.12)">
       <defs>
        <path id="DejaVuSans-30" d="M 2034 4250 
Q 1547 4250 1301 3770 
Q 1056 3291 1056 2328 
Q 1056 1369 1301 889 
Q 1547 409 2034 409 
Q 2525 409 2770 889 
Q 3016 1369 3016 2328 
Q 3016 3291 2770 3770 
Q 2525 4250 2034 4250 
z
M 2034 4750 
Q 2819 4750 3233 4129 
Q 3647 3509 3647 2328 
Q 3647 1150 3233 529 
Q 2819 -91 2034 -91 
Q 1250 -91 836 529 
Q 422 1150 422 2328 
Q 422 3509 836 4129 
Q 1250 4750 2034 4750 
z
" transform="scale(0.015625)"/>
       </defs>
       <use xlink:href="#DejaVuSans-30"/>
      </g>
     </g>
    </g>
    <g id="xtick_2">
     <g id="line2d_3">
      <path d="M 122.108863 310.12 
L 122.108863 44.016 
" clip-path="url(#p2142d82229)" style="fill: none; stroke: #3a3836; stroke-opacity: 0.25; stroke-width: 0.8; stroke-linecap: square"/>
     </g>
     <g id="line2d_4">
      <g>
       <use xlink:href="#m01cb63806f" x="122.108863" y="310.12" style="fill: #e7e5e4; stroke: #e7e5e4; stroke-width: 0.8"/>
      </g>
     </g>
     <g id="text_2">
      <!-- 100 -->
      <g style="fill: #e7e5e4" transform="translate(110.656363 326.238125) scale(0.12 -0.12)">
       <defs>
        <path id="DejaVuSans-31" d="M 794 531 
L 1825 531 
L 1825 4091 
L 703 3866 
L 703 4441 
L 1819 4666 
L 2450 4666 
L 2450 531 
L 3481 531 
L 3481 0 
L 794 0 
L 794 531 
z
" transform="scale(0.015625)"/>
       </defs>
       <use xlink:href="#DejaVuSans-31"/>
       <use xlink:href="#DejaVuSans-30" transform="translate(63.623047 0)"/>
       <use xlink:href="#DejaVuSans-30" transform="translate(127.246094 0)"/>
      </g>
     </g>
    </g>
    <g id="xtick_3">
     <g id="line2d_5">
      <path d="M 173.272014 310.12 
L 173.272014 44.016 
" clip-path="url(#p2142d82229)" style="fill: none; stroke: #3a3836; stroke-opacity: 0.25; stroke-width: 0.8; stroke-linecap: square"/>
     </g>
     <g id="line2d_6">
      <g>
       <use xlink:href="#m01cb63806f" x="173.272014" y="310.12" style="fill: #e7e5e4; stroke: #e7e5e4; stroke-width: 0.8"/>
      </g>
     </g>
     <g id="text_3">
      <!-- 200 -->
      <g style="fill: #e7e5e4" transform="translate(161.819514 326.238125) scale(0.12 -0.12)">
       <defs>
        <path id="DejaVuSans-32" d="M 1228 531 
L 3431 531 
L 3431 0 
L 469 0 
L 469 531 
Q 828 903 1448 1529 
Q 2069 2156 2228 2338 
Q 2531 2678 2651 2914 
Q 2772 3150 2772 3378 
Q 2772 3750 2511 3984 
Q 2250 4219 1831 4219 
Q 1534 4219 1204 4116 
Q 875 4013 500 3803 
L 500 4441 
Q 881 4594 1212 4672 
Q 1544 4750 1819 4750 
Q 2544 4750 2975 4387 
Q 3406 4025 3406 3419 
Q 3406 3131 3298 2873 
Q 3191 2616 2906 2266 
Q 2828 2175 2409 1742 
Q 1991 1309 1228 531 
z
" transform="scale(0.015625)"/>
       </defs>
       <use xlink:href="#DejaVuSans-32"/>
       <use xlink:href="#DejaVuSans-30" transform="translate(63.623047 0)"/>
       <use xlink:href="#DejaVuSans-30" transform="translate(127.246094 0)"/>
      </g>
     </g>
    </g>
    <g id="xtick_4">
     <g id="line2d_7">
      <path d="M 224.435164 310.12 
L 224.435164 44.016 
" clip-path="url(#p2142d82229)" style="fill: none; stroke: #3a3836; stroke-opacity: 0.25; stroke-width: 0.8; stroke-linecap: square"/>
     </g>
     <g id="line2d_8">
      <g>
       <use xlink:href="#m01cb63806f" x="224.435164" y="310.12" style="fill: #e7e5e4; stroke: #e7e5e4; stroke-width: 0.8"/>
      </g>
     </g>
     <g id="text_4">
      <!-- 300 -->
      <g style="fill: #e7e5e4" transform="translate(212.982664 326.238125) scale(0.12 -0.12)">
       <defs>
        <path id="DejaVuSans-33" d="M 2597 2516 
Q 3050 2419 3304 2112 
Q 3559 1806 3559 1356 
Q 3559 666 3084 287 
Q 2609 -91 1734 -91 
Q 1441 -91 1130 -33 
Q 819 25 488 141 
L 488 750 
Q 750 597 1062 519 
Q 1375 441 1716 441 
Q 2309 441 2620 675 
Q 2931 909 2931 1356 
Q 2931 1769 2642 2001 
Q 2353 2234 1838 2234 
L 1294 2234 
L 1294 2753 
L 1863 2753 
Q 2328 2753 2575 2939 
Q 2822 3125 2822 3475 
Q 2822 3834 2567 4026 
Q 2313 4219 1838 4219 
Q 1578 4219 1281 4162 
Q 984 4106 628 3988 
L 628 4550 
Q 988 4650 1302 4700 
Q 1616 4750 1894 4750 
Q 2613 4750 3031 4423 
Q 3450 4097 3450 3541 
Q 3450 3153 3228 2886 
Q 3006 2619 2597 2516 
z
" transform="scale(0.015625)"/>
       </defs>
       <use xlink:href="#DejaVuSans-33"/>
       <use xlink:href="#DejaVuSans-30" transform="translate(63.623047 0)"/>
       <use xlink:href="#DejaVuSans-30" transform="translate(127.246094 0)"/>
      </g>
     </g>
    </g>
    <g id="xtick_5">
     <g id="line2d_9">
      <path d="M 275.598314 310.12 
L 275.598314 44.016 
" clip-path="url(#p2142d82229)" style="fill: none; stroke: #3a3836; stroke-opacity: 0.25; stroke-width: 0.8; stroke-linecap: square"/>
     </g>
     <g id="line2d_10">
      <g>
       <use xlink:href="#m01cb63806f" x="275.598314" y="310.12" style="fill: #e7e5e4; stroke: #e7e5e4; stroke-width: 0.8"/>
      </g>
     </g>
     <g id="text_5">
      <!-- 400 -->
      <g style="fill: #e7e5e4" transform="translate(264.145814 326.238125) scale(0.12 -0.12)">
       <defs>
        <path id="DejaVuSans-34" d="M 2419 4116 
L 825 1625 
L 2419 1625 
L 2419 4116 
z
M 2253 4666 
L 3047 4666 
L 3047 1625 
L 3713 1625 
L 3713 1100 
L 3047 1100 
L 3047 0 
L 2419 0 
L 2419 1100 
L 313 1100 
L 313 1709 
L 2253 4666 
z
" transform="scale(0.015625)"/>
       </defs>
       <use xlink:href="#DejaVuSans-34"/>
       <use xlink:href="#DejaVuSans-30" transform="translate(63.623047 0)"/>
       <use xlink:href="#DejaVuSans-30" transform="translate(127.246094 0)"/>
      </g>
     </g>
    </g>
    <g id="xtick_6">
     <g id="line2d_11">
      <path d="M 326.761465 310.12 
L 326.761465 44.016 
" clip-path="url(#p2142d82229)" style="fill: none; stroke: #3a3836; stroke-opacity: 0.25; stroke-width: 0.8; stroke-linecap: square"/>
     </g>
     <g id="line2d_12">
      <g>
       <use xlink:href="#m01cb63806f" x="326.761465" y="310.12" style="fill: #e7e5e4; stroke: #e7e5e4; stroke-width: 0.8"/>
      </g>
     </g>
     <g id="text_6">
      <!-- 500 -->
      <g style="fill: #e7e5e4" transform="translate(315.308965 326.238125) scale(0.12 -0.12)">
       <defs>
        <path id="DejaVuSans-35" d="M 691 4666 
L 3169 4666 
L 3169 4134 
L 1269 4134 
L 1269 2991 
Q 1406 3038 1543 3061 
Q 1681 3084 1819 3084 
Q 2600 3084 3056 2656 
Q 3513 2228 3513 1497 
Q 3513 744 3044 326 
Q 2575 -91 1722 -91 
Q 1428 -91 1123 -41 
Q 819 9 494 109 
L 494 744 
Q 775 591 1075 516 
Q 1375 441 1709 441 
Q 2250 441 2565 725 
Q 2881 1009 2881 1497 
Q 2881 1984 2565 2268 
Q 2250 2553 1709 2553 
Q 1456 2553 1204 2497 
Q 953 2441 691 2322 
L 691 4666 
z
" transform="scale(0.015625)"/>
       </defs>
       <use xlink:href="#DejaVuSans-35"/>
       <use xlink:href="#DejaVuSans-30" transform="translate(63.623047 0)"/>
       <use xlink:href="#DejaVuSans-30" transform="translate(127.246094 0)"/>
      </g>
     </g>
    </g>
    <g id="xtick_7">
     <g id="line2d_13">
      <path d="M 377.924615 310.12 
L 377.924615 44.016 
" clip-path="url(#p2142d82229)" style="fill: none; stroke: #3a3836; stroke-opacity: 0.25; stroke-width: 0.8; stroke-linecap: square"/>
     </g>
     <g id="line2d_14">
      <g>
       <use xlink:href="#m01cb63806f" x="377.924615" y="310.12" style="fill: #e7e5e4; stroke: #e7e5e4; stroke-width: 0.8"/>
      </g>
     </g>
     <g id="text_7">
      <!-- 600 -->
      <g style="fill: #e7e5e4" transform="translate(366.472115 326.238125) scale(0.12 -0.12)">
       <defs>
        <path id="DejaVuSans-36" d="M 2113 2584 
Q 1688 2584 1439 2293 
Q 1191 2003 1191 1497 
Q 1191 994 1439 701 
Q 1688 409 2113 409 
Q 2538 409 2786 701 
Q 3034 994 3034 1497 
Q 3034 2003 2786 2293 
Q 2538 2584 2113 2584 
z
M 3366 4563 
L 3366 3988 
Q 3128 4100 2886 4159 
Q 2644 4219 2406 4219 
Q 1781 4219 1451 3797 
Q 1122 3375 1075 2522 
Q 1259 2794 1537 2939 
Q 1816 3084 2150 3084 
Q 2853 3084 3261 2657 
Q 3669 2231 3669 1497 
Q 3669 778 3244 343 
Q 2819 -91 2113 -91 
Q 1303 -91 875 529 
Q 447 1150 447 2328 
Q 447 3434 972 4092 
Q 1497 4750 2381 4750 
Q 2619 4750 2861 4703 
Q 3103 4656 3366 4563 
z
" transform="scale(0.015625)"/>
       </defs>
       <use xlink:href="#DejaVuSans-36"/>
       <use xlink:href="#DejaVuSans-30" transform="translate(63.623047 0)"/>
       <use xlink:href="#DejaVuSans-30" transform="translate(127.246094 0)"/>
      </g>
     </g>
    </g>
    <g id="xtick_8">
     <g id="line2d_15">
      <path d="M 429.087765 310.12 
L 429.087765 44.016 
" clip-path="url(#p2142d82229)" style="fill: none; stroke: #3a3836; stroke-opacity: 0.25; stroke-width: 0.8; stroke-linecap: square"/>
     </g>
     <g id="line2d_16">
      <g>
       <use xlink:href="#m01cb63806f" x="429.087765" y="310.12" style="fill: #e7e5e4; stroke: #e7e5e4; stroke-width: 0.8"/>
      </g>
     </g>
     <g id="text_8">
      <!-- 700 -->
      <g style="fill: #e7e5e4" transform="translate(417.635265 326.238125) scale(0.12 -0.12)">
       <defs>
        <path id="DejaVuSans-37" d="M 525 4666 
L 3525 4666 
L 3525 4397 
L 1831 0 
L 1172 0 
L 2766 4134 
L 525 4134 
L 525 4666 
z
" transform="scale(0.015625)"/>
       </defs>
       <use xlink:href="#DejaVuSans-37"/>
       <use xlink:href="#DejaVuSans-30" transform="translate(63.623047 0)"/>
       <use xlink:href="#DejaVuSans-30" transform="translate(127.246094 0)"/>
      </g>
     </g>
    </g>
    <g id="text_9">
     <!-- training step -->
     <g style="fill: #e7e5e4" transform="translate(220.073781 341.851875) scale(0.12 -0.12)">
      <defs>
       <path id="DejaVuSans-74" d="M 1172 4494 
L 1172 3500 
L 2356 3500 
L 2356 3053 
L 1172 3053 
L 1172 1153 
Q 1172 725 1289 603 
Q 1406 481 1766 481 
L 2356 481 
L 2356 0 
L 1766 0 
Q 1100 0 847 248 
Q 594 497 594 1153 
L 594 3053 
L 172 3053 
L 172 3500 
L 594 3500 
L 594 4494 
L 1172 4494 
z
" transform="scale(0.015625)"/>
       <path id="DejaVuSans-72" d="M 2631 2963 
Q 2534 3019 2420 3045 
Q 2306 3072 2169 3072 
Q 1681 3072 1420 2755 
Q 1159 2438 1159 1844 
L 1159 0 
L 581 0 
L 581 3500 
L 1159 3500 
L 1159 2956 
Q 1341 3275 1631 3429 
Q 1922 3584 2338 3584 
Q 2397 3584 2469 3576 
Q 2541 3569 2628 3553 
L 2631 2963 
z
" transform="scale(0.015625)"/>
       <path id="DejaVuSans-61" d="M 2194 1759 
Q 1497 1759 1228 1600 
Q 959 1441 959 1056 
Q 959 750 1161 570 
Q 1363 391 1709 391 
Q 2188 391 2477 730 
Q 2766 1069 2766 1631 
L 2766 1759 
L 2194 1759 
z
M 3341 1997 
L 3341 0 
L 2766 0 
L 2766 531 
Q 2569 213 2275 61 
Q 1981 -91 1556 -91 
Q 1019 -91 701 211 
Q 384 513 384 1019 
Q 384 1609 779 1909 
Q 1175 2209 1959 2209 
L 2766 2209 
L 2766 2266 
Q 2766 2663 2505 2880 
Q 2244 3097 1772 3097 
Q 1472 3097 1187 3025 
Q 903 2953 641 2809 
L 641 3341 
Q 956 3463 1253 3523 
Q 1550 3584 1831 3584 
Q 2591 3584 2966 3190 
Q 3341 2797 3341 1997 
z
" transform="scale(0.015625)"/>
       <path id="DejaVuSans-69" d="M 603 3500 
L 1178 3500 
L 1178 0 
L 603 0 
L 603 3500 
z
M 603 4863 
L 1178 4863 
L 1178 4134 
L 603 4134 
L 603 4863 
z
" transform="scale(0.015625)"/>
       <path id="DejaVuSans-6e" d="M 3513 2113 
L 3513 0 
L 2938 0 
L 2938 2094 
Q 2938 2591 2744 2837 
Q 2550 3084 2163 3084 
Q 1697 3084 1428 2787 
Q 1159 2491 1159 1978 
L 1159 0 
L 581 0 
L 581 3500 
L 1159 3500 
L 1159 2956 
Q 1366 3272 1645 3428 
Q 1925 3584 2291 3584 
Q 2894 3584 3203 3211 
Q 3513 2838 3513 2113 
z
" transform="scale(0.015625)"/>
       <path id="DejaVuSans-67" d="M 2906 1791 
Q 2906 2416 2648 2759 
Q 2391 3103 1925 3103 
Q 1463 3103 1205 2759 
Q 947 2416 947 1791 
Q 947 1169 1205 825 
Q 1463 481 1925 481 
Q 2391 481 2648 825 
Q 2906 1169 2906 1791 
z
M 3481 434 
Q 3481 -459 3084 -895 
Q 2688 -1331 1869 -1331 
Q 1566 -1331 1297 -1286 
Q 1028 -1241 775 -1147 
L 775 -588 
Q 1028 -725 1275 -790 
Q 1522 -856 1778 -856 
Q 2344 -856 2625 -561 
Q 2906 -266 2906 331 
L 2906 616 
Q 2728 306 2450 153 
Q 2172 0 1784 0 
Q 1141 0 747 490 
Q 353 981 353 1791 
Q 353 2603 747 3093 
Q 1141 3584 1784 3584 
Q 2172 3584 2450 3431 
Q 2728 3278 2906 2969 
L 2906 3500 
L 3481 3500 
L 3481 434 
z
" transform="scale(0.015625)"/>
       <path id="DejaVuSans-20" transform="scale(0.015625)"/>
       <path id="DejaVuSans-73" d="M 2834 3397 
L 2834 2853 
Q 2591 2978 2328 3040 
Q 2066 3103 1784 3103 
Q 1356 3103 1142 2972 
Q 928 2841 928 2578 
Q 928 2378 1081 2264 
Q 1234 2150 1697 2047 
L 1894 2003 
Q 2506 1872 2764 1633 
Q 3022 1394 3022 966 
Q 3022 478 2636 193 
Q 2250 -91 1575 -91 
Q 1294 -91 989 -36 
Q 684 19 347 128 
L 347 722 
Q 666 556 975 473 
Q 1284 391 1588 391 
Q 1994 391 2212 530 
Q 2431 669 2431 922 
Q 2431 1156 2273 1281 
Q 2116 1406 1581 1522 
L 1381 1569 
Q 847 1681 609 1914 
Q 372 2147 372 2553 
Q 372 3047 722 3315 
Q 1072 3584 1716 3584 
Q 2034 3584 2315 3537 
Q 2597 3491 2834 3397 
z
" transform="scale(0.015625)"/>
       <path id="DejaVuSans-65" d="M 3597 1894 
L 3597 1613 
L 953 1613 
Q 991 1019 1311 708 
Q 1631 397 2203 397 
Q 2534 397 2845 478 
Q 3156 559 3463 722 
L 3463 178 
Q 3153 47 2828 -22 
Q 2503 -91 2169 -91 
Q 1331 -91 842 396 
Q 353 884 353 1716 
Q 353 2575 817 3079 
Q 1281 3584 2069 3584 
Q 2775 3584 3186 3129 
Q 3597 2675 3597 1894 
z
M 3022 2063 
Q 3016 2534 2758 2815 
Q 2500 3097 2075 3097 
Q 1594 3097 1305 2825 
Q 1016 2553 972 2059 
L 3022 2063 
z
" transform="scale(0.015625)"/>
       <path id="DejaVuSans-70" d="M 1159 525 
L 1159 -1331 
L 581 -1331 
L 581 3500 
L 1159 3500 
L 1159 2969 
Q 1341 3281 1617 3432 
Q 1894 3584 2278 3584 
Q 2916 3584 3314 3078 
Q 3713 2572 3713 1747 
Q 3713 922 3314 415 
Q 2916 -91 2278 -91 
Q 1894 -91 1617 61 
Q 1341 213 1159 525 
z
M 3116 1747 
Q 3116 2381 2855 2742 
Q 2594 3103 2138 3103 
Q 1681 3103 1420 2742 
Q 1159 2381 1159 1747 
Q 1159 1113 1420 752 
Q 1681 391 2138 391 
Q 2594 391 2855 752 
Q 3116 1113 3116 1747 
z
" transform="scale(0.015625)"/>
      </defs>
      <use xlink:href="#DejaVuSans-74"/>
      <use xlink:href="#DejaVuSans-72" transform="translate(39.208984 0)"/>
      <use xlink:href="#DejaVuSans-61" transform="translate(80.322266 0)"/>
      <use xlink:href="#DejaVuSans-69" transform="translate(141.601562 0)"/>
      <use xlink:href="#DejaVuSans-6e" transform="translate(169.384766 0)"/>
      <use xlink:href="#DejaVuSans-69" transform="translate(232.763672 0)"/>
      <use xlink:href="#DejaVuSans-6e" transform="translate(260.546875 0)"/>
      <use xlink:href="#DejaVuSans-67" transform="translate(323.925781 0)"/>
      <use xlink:href="#DejaVuSans-20" transform="translate(387.402344 0)"/>
      <use xlink:href="#DejaVuSans-73" transform="translate(419.189453 0)"/>
      <use xlink:href="#DejaVuSans-74" transform="translate(471.289062 0)"/>
      <use xlink:href="#DejaVuSans-65" transform="translate(510.498047 0)"/>
      <use xlink:href="#DejaVuSans-70" transform="translate(572.021484 0)"/>
     </g>
    </g>
   </g>
   <g id="matplotlib.axis_2">
    <g id="ytick_1">
     <g id="line2d_17">
      <path d="M 52.22 257.829031 
L 464.185686 257.829031 
" clip-path="url(#p2142d82229)" style="fill: none; stroke: #3a3836; stroke-opacity: 0.25; stroke-width: 0.8; stroke-linecap: square"/>
     </g>
     <g id="line2d_18">
      <defs>
       <path id="med09ef0694" d="M 0 0 
L -3.5 0 
" style="stroke: #a8a29e; stroke-width: 0.8"/>
      </defs>
      <g>
       <use xlink:href="#med09ef0694" x="52.22" y="257.829031" style="fill: #a8a29e; stroke: #a8a29e; stroke-width: 0.8"/>
      </g>
     </g>
     <g id="text_10">
      <!-- 7 -->
      <g style="fill: #a8a29e" transform="translate(37.585 262.388094) scale(0.12 -0.12)">
       <use xlink:href="#DejaVuSans-37"/>
      </g>
     </g>
    </g>
    <g id="ytick_2">
     <g id="line2d_19">
      <path d="M 52.22 204.919551 
L 464.185686 204.919551 
" clip-path="url(#p2142d82229)" style="fill: none; stroke: #3a3836; stroke-opacity: 0.25; stroke-width: 0.8; stroke-linecap: square"/>
     </g>
     <g id="line2d_20">
      <g>
       <use xlink:href="#med09ef0694" x="52.22" y="204.919551" style="fill: #a8a29e; stroke: #a8a29e; stroke-width: 0.8"/>
      </g>
     </g>
     <g id="text_11">
      <!-- 8 -->
      <g style="fill: #a8a29e" transform="translate(37.585 209.478613) scale(0.12 -0.12)">
       <defs>
        <path id="DejaVuSans-38" d="M 2034 2216 
Q 1584 2216 1326 1975 
Q 1069 1734 1069 1313 
Q 1069 891 1326 650 
Q 1584 409 2034 409 
Q 2484 409 2743 651 
Q 3003 894 3003 1313 
Q 3003 1734 2745 1975 
Q 2488 2216 2034 2216 
z
M 1403 2484 
Q 997 2584 770 2862 
Q 544 3141 544 3541 
Q 544 4100 942 4425 
Q 1341 4750 2034 4750 
Q 2731 4750 3128 4425 
Q 3525 4100 3525 3541 
Q 3525 3141 3298 2862 
Q 3072 2584 2669 2484 
Q 3125 2378 3379 2068 
Q 3634 1759 3634 1313 
Q 3634 634 3220 271 
Q 2806 -91 2034 -91 
Q 1263 -91 848 271 
Q 434 634 434 1313 
Q 434 1759 690 2068 
Q 947 2378 1403 2484 
z
M 1172 3481 
Q 1172 3119 1398 2916 
Q 1625 2713 2034 2713 
Q 2441 2713 2670 2916 
Q 2900 3119 2900 3481 
Q 2900 3844 2670 4047 
Q 2441 4250 2034 4250 
Q 1625 4250 1398 4047 
Q 1172 3844 1172 3481 
z
" transform="scale(0.015625)"/>
       </defs>
       <use xlink:href="#DejaVuSans-38"/>
      </g>
     </g>
    </g>
    <g id="ytick_3">
     <g id="line2d_21">
      <path d="M 52.22 152.01007 
L 464.185686 152.01007 
" clip-path="url(#p2142d82229)" style="fill: none; stroke: #3a3836; stroke-opacity: 0.25; stroke-width: 0.8; stroke-linecap: square"/>
     </g>
     <g id="line2d_22">
      <g>
       <use xlink:href="#med09ef0694" x="52.22" y="152.01007" style="fill: #a8a29e; stroke: #a8a29e; stroke-width: 0.8"/>
      </g>
     </g>
     <g id="text_12">
      <!-- 9 -->
      <g style="fill: #a8a29e" transform="translate(37.585 156.569132) scale(0.12 -0.12)">
       <defs>
        <path id="DejaVuSans-39" d="M 703 97 
L 703 672 
Q 941 559 1184 500 
Q 1428 441 1663 441 
Q 2288 441 2617 861 
Q 2947 1281 2994 2138 
Q 2813 1869 2534 1725 
Q 2256 1581 1919 1581 
Q 1219 1581 811 2004 
Q 403 2428 403 3163 
Q 403 3881 828 4315 
Q 1253 4750 1959 4750 
Q 2769 4750 3195 4129 
Q 3622 3509 3622 2328 
Q 3622 1225 3098 567 
Q 2575 -91 1691 -91 
Q 1453 -91 1209 -44 
Q 966 3 703 97 
z
M 1959 2075 
Q 2384 2075 2632 2365 
Q 2881 2656 2881 3163 
Q 2881 3666 2632 3958 
Q 2384 4250 1959 4250 
Q 1534 4250 1286 3958 
Q 1038 3666 1038 3163 
Q 1038 2656 1286 2365 
Q 1534 2075 1959 2075 
z
" transform="scale(0.015625)"/>
       </defs>
       <use xlink:href="#DejaVuSans-39"/>
      </g>
     </g>
    </g>
    <g id="ytick_4">
     <g id="line2d_23">
      <path d="M 52.22 99.100589 
L 464.185686 99.100589 
" clip-path="url(#p2142d82229)" style="fill: none; stroke: #3a3836; stroke-opacity: 0.25; stroke-width: 0.8; stroke-linecap: square"/>
     </g>
     <g id="line2d_24">
      <g>
       <use xlink:href="#med09ef0694" x="52.22" y="99.100589" style="fill: #a8a29e; stroke: #a8a29e; stroke-width: 0.8"/>
      </g>
     </g>
     <g id="text_13">
      <!-- 10 -->
      <g style="fill: #a8a29e" transform="translate(29.95 103.659652) scale(0.12 -0.12)">
       <use xlink:href="#DejaVuSans-31"/>
       <use xlink:href="#DejaVuSans-30" transform="translate(63.623047 0)"/>
      </g>
     </g>
    </g>
    <g id="ytick_5">
     <g id="line2d_25">
      <path d="M 52.22 46.191109 
L 464.185686 46.191109 
" clip-path="url(#p2142d82229)" style="fill: none; stroke: #3a3836; stroke-opacity: 0.25; stroke-width: 0.8; stroke-linecap: square"/>
     </g>
     <g id="line2d_26">
      <g>
       <use xlink:href="#med09ef0694" x="52.22" y="46.191109" style="fill: #a8a29e; stroke: #a8a29e; stroke-width: 0.8"/>
      </g>
     </g>
     <g id="text_14">
      <!-- 11 -->
      <g style="fill: #a8a29e" transform="translate(29.95 50.750171) scale(0.12 -0.12)">
       <use xlink:href="#DejaVuSans-31"/>
       <use xlink:href="#DejaVuSans-31" transform="translate(63.623047 0)"/>
      </g>
     </g>
    </g>
    <g id="text_15">
     <!-- validation loss  (lower = better) -->
     <g style="fill: #e7e5e4" transform="translate(23.454375 272.20925) rotate(-90) scale(0.12 -0.12)">
      <defs>
       <path id="DejaVuSans-76" d="M 191 3500 
L 800 3500 
L 1894 563 
L 2988 3500 
L 3597 3500 
L 2284 0 
L 1503 0 
L 191 3500 
z
" transform="scale(0.015625)"/>
       <path id="DejaVuSans-6c" d="M 603 4863 
L 1178 4863 
L 1178 0 
L 603 0 
L 603 4863 
z
" transform="scale(0.015625)"/>
       <path id="DejaVuSans-64" d="M 2906 2969 
L 2906 4863 
L 3481 4863 
L 3481 0 
L 2906 0 
L 2906 525 
Q 2725 213 2448 61 
Q 2172 -91 1784 -91 
Q 1150 -91 751 415 
Q 353 922 353 1747 
Q 353 2572 751 3078 
Q 1150 3584 1784 3584 
Q 2172 3584 2448 3432 
Q 2725 3281 2906 2969 
z
M 947 1747 
Q 947 1113 1208 752 
Q 1469 391 1925 391 
Q 2381 391 2643 752 
Q 2906 1113 2906 1747 
Q 2906 2381 2643 2742 
Q 2381 3103 1925 3103 
Q 1469 3103 1208 2742 
Q 947 2381 947 1747 
z
" transform="scale(0.015625)"/>
       <path id="DejaVuSans-6f" d="M 1959 3097 
Q 1497 3097 1228 2736 
Q 959 2375 959 1747 
Q 959 1119 1226 758 
Q 1494 397 1959 397 
Q 2419 397 2687 759 
Q 2956 1122 2956 1747 
Q 2956 2369 2687 2733 
Q 2419 3097 1959 3097 
z
M 1959 3584 
Q 2709 3584 3137 3096 
Q 3566 2609 3566 1747 
Q 3566 888 3137 398 
Q 2709 -91 1959 -91 
Q 1206 -91 779 398 
Q 353 888 353 1747 
Q 353 2609 779 3096 
Q 1206 3584 1959 3584 
z
" transform="scale(0.015625)"/>
       <path id="DejaVuSans-28" d="M 1984 4856 
Q 1566 4138 1362 3434 
Q 1159 2731 1159 2009 
Q 1159 1288 1364 580 
Q 1569 -128 1984 -844 
L 1484 -844 
Q 1016 -109 783 600 
Q 550 1309 550 2009 
Q 550 2706 781 3412 
Q 1013 4119 1484 4856 
L 1984 4856 
z
" transform="scale(0.015625)"/>
       <path id="DejaVuSans-77" d="M 269 3500 
L 844 3500 
L 1563 769 
L 2278 3500 
L 2956 3500 
L 3675 769 
L 4391 3500 
L 4966 3500 
L 4050 0 
L 3372 0 
L 2619 2869 
L 1863 0 
L 1184 0 
L 269 3500 
z
" transform="scale(0.015625)"/>
       <path id="DejaVuSans-3d" d="M 678 2906 
L 4684 2906 
L 4684 2381 
L 678 2381 
L 678 2906 
z
M 678 1631 
L 4684 1631 
L 4684 1100 
L 678 1100 
L 678 1631 
z
" transform="scale(0.015625)"/>
       <path id="DejaVuSans-62" d="M 3116 1747 
Q 3116 2381 2855 2742 
Q 2594 3103 2138 3103 
Q 1681 3103 1420 2742 
Q 1159 2381 1159 1747 
Q 1159 1113 1420 752 
Q 1681 391 2138 391 
Q 2594 391 2855 752 
Q 3116 1113 3116 1747 
z
M 1159 2969 
Q 1341 3281 1617 3432 
Q 1894 3584 2278 3584 
Q 2916 3584 3314 3078 
Q 3713 2572 3713 1747 
Q 3713 922 3314 415 
Q 2916 -91 2278 -91 
Q 1894 -91 1617 61 
Q 1341 213 1159 525 
L 1159 0 
L 581 0 
L 581 4863 
L 1159 4863 
L 1159 2969 
z
" transform="scale(0.015625)"/>
       <path id="DejaVuSans-29" d="M 513 4856 
L 1013 4856 
Q 1481 4119 1714 3412 
Q 1947 2706 1947 2009 
Q 1947 1309 1714 600 
Q 1481 -109 1013 -844 
L 513 -844 
Q 928 -128 1133 580 
Q 1338 1288 1338 2009 
Q 1338 2731 1133 3434 
Q 928 4138 513 4856 
z
" transform="scale(0.015625)"/>
      </defs>
      <use xlink:href="#DejaVuSans-76"/>
      <use xlink:href="#DejaVuSans-61" transform="translate(59.179688 0)"/>
      <use xlink:href="#DejaVuSans-6c" transform="translate(120.458984 0)"/>
      <use xlink:href="#DejaVuSans-69" transform="translate(148.242188 0)"/>
      <use xlink:href="#DejaVuSans-64" transform="translate(176.025391 0)"/>
      <use xlink:href="#DejaVuSans-61" transform="translate(239.501953 0)"/>
      <use xlink:href="#DejaVuSans-74" transform="translate(300.78125 0)"/>
      <use xlink:href="#DejaVuSans-69" transform="translate(339.990234 0)"/>
      <use xlink:href="#DejaVuSans-6f" transform="translate(367.773438 0)"/>
      <use xlink:href="#DejaVuSans-6e" transform="translate(428.955078 0)"/>
      <use xlink:href="#DejaVuSans-20" transform="translate(492.333984 0)"/>
      <use xlink:href="#DejaVuSans-6c" transform="translate(524.121094 0)"/>
      <use xlink:href="#DejaVuSans-6f" transform="translate(551.904297 0)"/>
      <use xlink:href="#DejaVuSans-73" transform="translate(613.085938 0)"/>
      <use xlink:href="#DejaVuSans-73" transform="translate(665.185547 0)"/>
      <use xlink:href="#DejaVuSans-20" transform="translate(717.285156 0)"/>
      <use xlink:href="#DejaVuSans-20" transform="translate(749.072266 0)"/>
      <use xlink:href="#DejaVuSans-28" transform="translate(780.859375 0)"/>
      <use xlink:href="#DejaVuSans-6c" transform="translate(819.873047 0)"/>
      <use xlink:href="#DejaVuSans-6f" transform="translate(847.65625 0)"/>
      <use xlink:href="#DejaVuSans-77" transform="translate(908.837891 0)"/>
      <use xlink:href="#DejaVuSans-65" transform="translate(990.625 0)"/>
      <use xlink:href="#DejaVuSans-72" transform="translate(1052.148438 0)"/>
      <use xlink:href="#DejaVuSans-20" transform="translate(1093.261719 0)"/>
      <use xlink:href="#DejaVuSans-3d" transform="translate(1125.048828 0)"/>
      <use xlink:href="#DejaVuSans-20" transform="translate(1208.837891 0)"/>
      <use xlink:href="#DejaVuSans-62" transform="translate(1240.625 0)"/>
      <use xlink:href="#DejaVuSans-65" transform="translate(1304.101562 0)"/>
      <use xlink:href="#DejaVuSans-74" transform="translate(1365.625 0)"/>
      <use xlink:href="#DejaVuSans-74" transform="translate(1404.833984 0)"/>
      <use xlink:href="#DejaVuSans-65" transform="translate(1444.042969 0)"/>
      <use xlink:href="#DejaVuSans-72" transform="translate(1505.566406 0)"/>
      <use xlink:href="#DejaVuSans-29" transform="translate(1546.679688 0)"/>
     </g>
    </g>
   </g>
   <g id="line2d_27">
    <path d="M 70.945713 56.111636 
L 83.736501 194.205381 
L 96.527288 215.07288 
L 109.318076 228.876963 
L 122.108863 235.506521 
L 147.690438 255.151811 
L 173.272014 265.352759 
L 224.435164 277.357921 
L 275.598314 286.00333 
L 445.459973 298.024364 
" clip-path="url(#p2142d82229)" style="fill: none; stroke: #7dd3fc; stroke-width: 2.4; stroke-linecap: square"/>
    <defs>
     <path id="m3ca3cd5f5f" d="M 0 2 
C 0.530406 2 1.03916 1.789267 1.414214 1.414214 
C 1.789267 1.03916 2 0.530406 2 0 
C 2 -0.530406 1.789267 -1.03916 1.414214 -1.414214 
C 1.03916 -1.789267 0.530406 -2 0 -2 
C -0.530406 -2 -1.03916 -1.789267 -1.414214 -1.414214 
C -1.789267 -1.03916 -2 -0.530406 -2 0 
C -2 0.530406 -1.789267 1.03916 -1.414214 1.414214 
C -1.03916 1.789267 -0.530406 2 0 2 
z
" style="stroke: #7dd3fc"/>
    </defs>
    <g clip-path="url(#p2142d82229)">
     <use xlink:href="#m3ca3cd5f5f" x="70.945713" y="56.111636" style="fill: #7dd3fc; stroke: #7dd3fc"/>
     <use xlink:href="#m3ca3cd5f5f" x="83.736501" y="194.205381" style="fill: #7dd3fc; stroke: #7dd3fc"/>
     <use xlink:href="#m3ca3cd5f5f" x="96.527288" y="215.07288" style="fill: #7dd3fc; stroke: #7dd3fc"/>
     <use xlink:href="#m3ca3cd5f5f" x="109.318076" y="228.876963" style="fill: #7dd3fc; stroke: #7dd3fc"/>
     <use xlink:href="#m3ca3cd5f5f" x="122.108863" y="235.506521" style="fill: #7dd3fc; stroke: #7dd3fc"/>
     <use xlink:href="#m3ca3cd5f5f" x="147.690438" y="255.151811" style="fill: #7dd3fc; stroke: #7dd3fc"/>
     <use xlink:href="#m3ca3cd5f5f" x="173.272014" y="265.352759" style="fill: #7dd3fc; stroke: #7dd3fc"/>
     <use xlink:href="#m3ca3cd5f5f" x="224.435164" y="277.357921" style="fill: #7dd3fc; stroke: #7dd3fc"/>
     <use xlink:href="#m3ca3cd5f5f" x="275.598314" y="286.00333" style="fill: #7dd3fc; stroke: #7dd3fc"/>
     <use xlink:href="#m3ca3cd5f5f" x="445.459973" y="298.024364" style="fill: #7dd3fc; stroke: #7dd3fc"/>
    </g>
   </g>
   <g id="line2d_28">
    <path d="M 70.945713 56.111636 
L 83.736501 195.395844 
L 96.527288 214.956479 
L 109.318076 228.464269 
L 122.108863 236.432437 
L 147.690438 254.58568 
L 173.272014 263.548546 
L 224.435164 272.543158 
L 275.598314 279.490173 
L 445.459973 290.283707 
" clip-path="url(#p2142d82229)" style="fill: none; stroke-dasharray: 8.88,3.84; stroke-dashoffset: 0; stroke: #86efac; stroke-width: 2.4"/>
    <defs>
     <path id="m1052729c6a" d="M 0 2 
C 0.530406 2 1.03916 1.789267 1.414214 1.414214 
C 1.789267 1.03916 2 0.530406 2 0 
C 2 -0.530406 1.789267 -1.03916 1.414214 -1.414214 
C 1.03916 -1.789267 0.530406 -2 0 -2 
C -0.530406 -2 -1.03916 -1.789267 -1.414214 -1.414214 
C -1.789267 -1.03916 -2 -0.530406 -2 0 
C -2 0.530406 -1.789267 1.03916 -1.414214 1.414214 
C -1.03916 1.789267 -0.530406 2 0 2 
z
" style="stroke: #86efac"/>
    </defs>
    <g clip-path="url(#p2142d82229)">
     <use xlink:href="#m1052729c6a" x="70.945713" y="56.111636" style="fill: #86efac; stroke: #86efac"/>
     <use xlink:href="#m1052729c6a" x="83.736501" y="195.395844" style="fill: #86efac; stroke: #86efac"/>
     <use xlink:href="#m1052729c6a" x="96.527288" y="214.956479" style="fill: #86efac; stroke: #86efac"/>
     <use xlink:href="#m1052729c6a" x="109.318076" y="228.464269" style="fill: #86efac; stroke: #86efac"/>
     <use xlink:href="#m1052729c6a" x="122.108863" y="236.432437" style="fill: #86efac; stroke: #86efac"/>
     <use xlink:href="#m1052729c6a" x="147.690438" y="254.58568" style="fill: #86efac; stroke: #86efac"/>
     <use xlink:href="#m1052729c6a" x="173.272014" y="263.548546" style="fill: #86efac; stroke: #86efac"/>
     <use xlink:href="#m1052729c6a" x="224.435164" y="272.543158" style="fill: #86efac; stroke: #86efac"/>
     <use xlink:href="#m1052729c6a" x="275.598314" y="279.490173" style="fill: #86efac; stroke: #86efac"/>
     <use xlink:href="#m1052729c6a" x="445.459973" y="290.283707" style="fill: #86efac; stroke: #86efac"/>
    </g>
   </g>
   <g id="patch_3">
    <path d="M 445.459973 294.295586 
Q 445.459973 294.154353 445.459973 294.013121 
" style="fill: none; stroke: #facc15; stroke-width: 1.8; stroke-linecap: round"/>
    <path d="M 443.059973 299.095586 
L 445.459973 294.295586 
L 447.859973 299.095586 
" style="fill: none; stroke: #facc15; stroke-width: 1.8; stroke-linecap: round"/>
    <path d="M 447.859973 289.213121 
L 445.459973 294.013121 
L 443.059973 289.213121 
" style="fill: none; stroke: #facc15; stroke-width: 1.8; stroke-linecap: round"/>
   </g>
   <g id="text_16">
    <!-- +0.155 -->
    <g style="fill: #fde68a" transform="translate(387.077921 291.172527) scale(0.105 -0.105)">
     <defs>
      <path id="DejaVuSans-Bold-2b" d="M 3053 4013 
L 3053 2375 
L 4684 2375 
L 4684 1638 
L 3053 1638 
L 3053 0 
L 2309 0 
L 2309 1638 
L 678 1638 
L 678 2375 
L 2309 2375 
L 2309 4013 
L 3053 4013 
z
" transform="scale(0.015625)"/>
      <path id="DejaVuSans-Bold-30" d="M 2944 2338 
Q 2944 3213 2780 3570 
Q 2616 3928 2228 3928 
Q 1841 3928 1675 3570 
Q 1509 3213 1509 2338 
Q 1509 1453 1675 1090 
Q 1841 728 2228 728 
Q 2613 728 2778 1090 
Q 2944 1453 2944 2338 
z
M 4147 2328 
Q 4147 1169 3647 539 
Q 3147 -91 2228 -91 
Q 1306 -91 806 539 
Q 306 1169 306 2328 
Q 306 3491 806 4120 
Q 1306 4750 2228 4750 
Q 3147 4750 3647 4120 
Q 4147 3491 4147 2328 
z
" transform="scale(0.015625)"/>
      <path id="DejaVuSans-Bold-2e" d="M 653 1209 
L 1778 1209 
L 1778 0 
L 653 0 
L 653 1209 
z
" transform="scale(0.015625)"/>
      <path id="DejaVuSans-Bold-31" d="M 750 831 
L 1813 831 
L 1813 3847 
L 722 3622 
L 722 4441 
L 1806 4666 
L 2950 4666 
L 2950 831 
L 4013 831 
L 4013 0 
L 750 0 
L 750 831 
z
" transform="scale(0.015625)"/>
      <path id="DejaVuSans-Bold-35" d="M 678 4666 
L 3669 4666 
L 3669 3781 
L 1638 3781 
L 1638 3059 
Q 1775 3097 1914 3117 
Q 2053 3138 2203 3138 
Q 3056 3138 3531 2711 
Q 4006 2284 4006 1522 
Q 4006 766 3489 337 
Q 2972 -91 2053 -91 
Q 1656 -91 1267 -14 
Q 878 63 494 219 
L 494 1166 
Q 875 947 1217 837 
Q 1559 728 1863 728 
Q 2300 728 2551 942 
Q 2803 1156 2803 1522 
Q 2803 1891 2551 2103 
Q 2300 2316 1863 2316 
Q 1603 2316 1309 2248 
Q 1016 2181 678 2041 
L 678 4666 
z
" transform="scale(0.015625)"/>
     </defs>
     <use xlink:href="#DejaVuSans-Bold-2b"/>
     <use xlink:href="#DejaVuSans-Bold-30" transform="translate(83.789062 0)"/>
     <use xlink:href="#DejaVuSans-Bold-2e" transform="translate(153.369141 0)"/>
     <use xlink:href="#DejaVuSans-Bold-31" transform="translate(191.357422 0)"/>
     <use xlink:href="#DejaVuSans-Bold-35" transform="translate(260.9375 0)"/>
     <use xlink:href="#DejaVuSans-Bold-35" transform="translate(330.517578 0)"/>
    </g>
    <!-- worse -->
    <g style="fill: #fde68a" transform="translate(393.624015 302.93023) scale(0.105 -0.105)">
     <defs>
      <path id="DejaVuSans-Bold-77" d="M 225 3500 
L 1313 3500 
L 1900 1088 
L 2491 3500 
L 3425 3500 
L 4013 1113 
L 4603 3500 
L 5691 3500 
L 4769 0 
L 3547 0 
L 2956 2406 
L 2369 0 
L 1147 0 
L 225 3500 
z
" transform="scale(0.015625)"/>
      <path id="DejaVuSans-Bold-6f" d="M 2203 2784 
Q 1831 2784 1636 2517 
Q 1441 2250 1441 1747 
Q 1441 1244 1636 976 
Q 1831 709 2203 709 
Q 2569 709 2762 976 
Q 2956 1244 2956 1747 
Q 2956 2250 2762 2517 
Q 2569 2784 2203 2784 
z
M 2203 3584 
Q 3106 3584 3614 3096 
Q 4122 2609 4122 1747 
Q 4122 884 3614 396 
Q 3106 -91 2203 -91 
Q 1297 -91 786 396 
Q 275 884 275 1747 
Q 275 2609 786 3096 
Q 1297 3584 2203 3584 
z
" transform="scale(0.015625)"/>
      <path id="DejaVuSans-Bold-72" d="M 3138 2547 
Q 2991 2616 2845 2648 
Q 2700 2681 2553 2681 
Q 2122 2681 1889 2404 
Q 1656 2128 1656 1613 
L 1656 0 
L 538 0 
L 538 3500 
L 1656 3500 
L 1656 2925 
Q 1872 3269 2151 3426 
Q 2431 3584 2822 3584 
Q 2878 3584 2943 3579 
Q 3009 3575 3134 3559 
L 3138 2547 
z
" transform="scale(0.015625)"/>
      <path id="DejaVuSans-Bold-73" d="M 3272 3391 
L 3272 2541 
Q 2913 2691 2578 2766 
Q 2244 2841 1947 2841 
Q 1628 2841 1473 2761 
Q 1319 2681 1319 2516 
Q 1319 2381 1436 2309 
Q 1553 2238 1856 2203 
L 2053 2175 
Q 2913 2066 3209 1816 
Q 3506 1566 3506 1031 
Q 3506 472 3093 190 
Q 2681 -91 1863 -91 
Q 1516 -91 1145 -36 
Q 775 19 384 128 
L 384 978 
Q 719 816 1070 734 
Q 1422 653 1784 653 
Q 2113 653 2278 743 
Q 2444 834 2444 1013 
Q 2444 1163 2330 1236 
Q 2216 1309 1875 1350 
L 1678 1375 
Q 931 1469 631 1722 
Q 331 1975 331 2491 
Q 331 3047 712 3315 
Q 1094 3584 1881 3584 
Q 2191 3584 2531 3537 
Q 2872 3491 3272 3391 
z
" transform="scale(0.015625)"/>
      <path id="DejaVuSans-Bold-65" d="M 4031 1759 
L 4031 1441 
L 1416 1441 
Q 1456 1047 1700 850 
Q 1944 653 2381 653 
Q 2734 653 3104 758 
Q 3475 863 3866 1075 
L 3866 213 
Q 3469 63 3072 -14 
Q 2675 -91 2278 -91 
Q 1328 -91 801 392 
Q 275 875 275 1747 
Q 275 2603 792 3093 
Q 1309 3584 2216 3584 
Q 3041 3584 3536 3087 
Q 4031 2591 4031 1759 
z
M 2881 2131 
Q 2881 2450 2695 2645 
Q 2509 2841 2209 2841 
Q 1884 2841 1681 2658 
Q 1478 2475 1428 2131 
L 2881 2131 
z
" transform="scale(0.015625)"/>
     </defs>
     <use xlink:href="#DejaVuSans-Bold-77"/>
     <use xlink:href="#DejaVuSans-Bold-6f" transform="translate(92.382812 0)"/>
     <use xlink:href="#DejaVuSans-Bold-72" transform="translate(161.083984 0)"/>
     <use xlink:href="#DejaVuSans-Bold-73" transform="translate(210.400391 0)"/>
     <use xlink:href="#DejaVuSans-Bold-65" transform="translate(269.921875 0)"/>
    </g>
   </g>
   <g id="text_17">
    <!-- RQ3 · turning the penalty off costs you the whole run -->
    <g style="fill: #e7e5e4" transform="translate(39.624406 38.016) scale(0.145 -0.145)">
     <defs>
      <path id="DejaVuSans-Bold-52" d="M 2297 2597 
Q 2675 2597 2839 2737 
Q 3003 2878 3003 3200 
Q 3003 3519 2839 3656 
Q 2675 3794 2297 3794 
L 1791 3794 
L 1791 2597 
L 2297 2597 
z
M 1791 1766 
L 1791 0 
L 588 0 
L 588 4666 
L 2425 4666 
Q 3347 4666 3776 4356 
Q 4206 4047 4206 3378 
Q 4206 2916 3982 2619 
Q 3759 2322 3309 2181 
Q 3556 2125 3751 1926 
Q 3947 1728 4147 1325 
L 4800 0 
L 3519 0 
L 2950 1159 
Q 2778 1509 2601 1637 
Q 2425 1766 2131 1766 
L 1791 1766 
z
" transform="scale(0.015625)"/>
      <path id="DejaVuSans-Bold-51" d="M 2847 -84 
L 2753 -84 
Q 1600 -84 959 553 
Q 319 1191 319 2328 
Q 319 3463 958 4106 
Q 1597 4750 2719 4750 
Q 3853 4750 4486 4112 
Q 5119 3475 5119 2328 
Q 5119 1541 4783 972 
Q 4447 403 3816 116 
L 4756 -934 
L 3609 -934 
L 2847 -84 
z
M 2719 3878 
Q 2169 3878 1866 3472 
Q 1563 3066 1563 2328 
Q 1563 1578 1859 1179 
Q 2156 781 2719 781 
Q 3272 781 3575 1187 
Q 3878 1594 3878 2328 
Q 3878 3066 3575 3472 
Q 3272 3878 2719 3878 
z
" transform="scale(0.015625)"/>
      <path id="DejaVuSans-Bold-33" d="M 2981 2516 
Q 3453 2394 3698 2092 
Q 3944 1791 3944 1325 
Q 3944 631 3412 270 
Q 2881 -91 1863 -91 
Q 1503 -91 1142 -33 
Q 781 25 428 141 
L 428 1069 
Q 766 900 1098 814 
Q 1431 728 1753 728 
Q 2231 728 2486 893 
Q 2741 1059 2741 1369 
Q 2741 1688 2480 1852 
Q 2219 2016 1709 2016 
L 1228 2016 
L 1228 2791 
L 1734 2791 
Q 2188 2791 2409 2933 
Q 2631 3075 2631 3366 
Q 2631 3634 2415 3781 
Q 2200 3928 1806 3928 
Q 1516 3928 1219 3862 
Q 922 3797 628 3669 
L 628 4550 
Q 984 4650 1334 4700 
Q 1684 4750 2022 4750 
Q 2931 4750 3382 4451 
Q 3834 4153 3834 3553 
Q 3834 3144 3618 2883 
Q 3403 2622 2981 2516 
z
" transform="scale(0.015625)"/>
      <path id="DejaVuSans-Bold-20" transform="scale(0.015625)"/>
      <path id="DejaVuSans-Bold-b7" d="M 653 2828 
L 1778 2828 
L 1778 1619 
L 653 1619 
L 653 2828 
z
" transform="scale(0.015625)"/>
      <path id="DejaVuSans-Bold-74" d="M 1759 4494 
L 1759 3500 
L 2913 3500 
L 2913 2700 
L 1759 2700 
L 1759 1216 
Q 1759 972 1856 886 
Q 1953 800 2241 800 
L 2816 800 
L 2816 0 
L 1856 0 
Q 1194 0 917 276 
Q 641 553 641 1216 
L 641 2700 
L 84 2700 
L 84 3500 
L 641 3500 
L 641 4494 
L 1759 4494 
z
" transform="scale(0.015625)"/>
      <path id="DejaVuSans-Bold-75" d="M 500 1363 
L 500 3500 
L 1625 3500 
L 1625 3150 
Q 1625 2866 1622 2436 
Q 1619 2006 1619 1863 
Q 1619 1441 1641 1255 
Q 1663 1069 1716 984 
Q 1784 875 1895 815 
Q 2006 756 2150 756 
Q 2500 756 2700 1025 
Q 2900 1294 2900 1772 
L 2900 3500 
L 4019 3500 
L 4019 0 
L 2900 0 
L 2900 506 
Q 2647 200 2364 54 
Q 2081 -91 1741 -91 
Q 1134 -91 817 281 
Q 500 653 500 1363 
z
" transform="scale(0.015625)"/>
      <path id="DejaVuSans-Bold-6e" d="M 4056 2131 
L 4056 0 
L 2931 0 
L 2931 347 
L 2931 1631 
Q 2931 2084 2911 2256 
Q 2891 2428 2841 2509 
Q 2775 2619 2662 2680 
Q 2550 2741 2406 2741 
Q 2056 2741 1856 2470 
Q 1656 2200 1656 1722 
L 1656 0 
L 538 0 
L 538 3500 
L 1656 3500 
L 1656 2988 
Q 1909 3294 2193 3439 
Q 2478 3584 2822 3584 
Q 3428 3584 3742 3212 
Q 4056 2841 4056 2131 
z
" transform="scale(0.015625)"/>
      <path id="DejaVuSans-Bold-69" d="M 538 3500 
L 1656 3500 
L 1656 0 
L 538 0 
L 538 3500 
z
M 538 4863 
L 1656 4863 
L 1656 3950 
L 538 3950 
L 538 4863 
z
" transform="scale(0.015625)"/>
      <path id="DejaVuSans-Bold-67" d="M 2919 594 
Q 2688 288 2409 144 
Q 2131 0 1766 0 
Q 1125 0 706 504 
Q 288 1009 288 1791 
Q 288 2575 706 3076 
Q 1125 3578 1766 3578 
Q 2131 3578 2409 3434 
Q 2688 3291 2919 2981 
L 2919 3500 
L 4044 3500 
L 4044 353 
Q 4044 -491 3511 -936 
Q 2978 -1381 1966 -1381 
Q 1638 -1381 1331 -1331 
Q 1025 -1281 716 -1178 
L 716 -306 
Q 1009 -475 1290 -558 
Q 1572 -641 1856 -641 
Q 2406 -641 2662 -400 
Q 2919 -159 2919 353 
L 2919 594 
z
M 2181 2772 
Q 1834 2772 1640 2515 
Q 1447 2259 1447 1791 
Q 1447 1309 1634 1061 
Q 1822 813 2181 813 
Q 2531 813 2725 1069 
Q 2919 1325 2919 1791 
Q 2919 2259 2725 2515 
Q 2531 2772 2181 2772 
z
" transform="scale(0.015625)"/>
      <path id="DejaVuSans-Bold-68" d="M 4056 2131 
L 4056 0 
L 2931 0 
L 2931 347 
L 2931 1625 
Q 2931 2084 2911 2256 
Q 2891 2428 2841 2509 
Q 2775 2619 2662 2680 
Q 2550 2741 2406 2741 
Q 2056 2741 1856 2470 
Q 1656 2200 1656 1722 
L 1656 0 
L 538 0 
L 538 4863 
L 1656 4863 
L 1656 2988 
Q 1909 3294 2193 3439 
Q 2478 3584 2822 3584 
Q 3428 3584 3742 3212 
Q 4056 2841 4056 2131 
z
" transform="scale(0.015625)"/>
      <path id="DejaVuSans-Bold-70" d="M 1656 506 
L 1656 -1331 
L 538 -1331 
L 538 3500 
L 1656 3500 
L 1656 2988 
Q 1888 3294 2169 3439 
Q 2450 3584 2816 3584 
Q 3463 3584 3878 3070 
Q 4294 2556 4294 1747 
Q 4294 938 3878 423 
Q 3463 -91 2816 -91 
Q 2450 -91 2169 54 
Q 1888 200 1656 506 
z
M 2400 2772 
Q 2041 2772 1848 2508 
Q 1656 2244 1656 1747 
Q 1656 1250 1848 986 
Q 2041 722 2400 722 
Q 2759 722 2948 984 
Q 3138 1247 3138 1747 
Q 3138 2247 2948 2509 
Q 2759 2772 2400 2772 
z
" transform="scale(0.015625)"/>
      <path id="DejaVuSans-Bold-61" d="M 2106 1575 
Q 1756 1575 1579 1456 
Q 1403 1338 1403 1106 
Q 1403 894 1545 773 
Q 1688 653 1941 653 
Q 2256 653 2472 879 
Q 2688 1106 2688 1447 
L 2688 1575 
L 2106 1575 
z
M 3816 1997 
L 3816 0 
L 2688 0 
L 2688 519 
Q 2463 200 2181 54 
Q 1900 -91 1497 -91 
Q 953 -91 614 226 
Q 275 544 275 1050 
Q 275 1666 698 1953 
Q 1122 2241 2028 2241 
L 2688 2241 
L 2688 2328 
Q 2688 2594 2478 2717 
Q 2269 2841 1825 2841 
Q 1466 2841 1156 2769 
Q 847 2697 581 2553 
L 581 3406 
Q 941 3494 1303 3539 
Q 1666 3584 2028 3584 
Q 2975 3584 3395 3211 
Q 3816 2838 3816 1997 
z
" transform="scale(0.015625)"/>
      <path id="DejaVuSans-Bold-6c" d="M 538 4863 
L 1656 4863 
L 1656 0 
L 538 0 
L 538 4863 
z
" transform="scale(0.015625)"/>
      <path id="DejaVuSans-Bold-79" d="M 78 3500 
L 1197 3500 
L 2138 1125 
L 2938 3500 
L 4056 3500 
L 2584 -331 
Q 2363 -916 2067 -1148 
Q 1772 -1381 1288 -1381 
L 641 -1381 
L 641 -647 
L 991 -647 
Q 1275 -647 1404 -556 
Q 1534 -466 1606 -231 
L 1638 -134 
L 78 3500 
z
" transform="scale(0.015625)"/>
      <path id="DejaVuSans-Bold-66" d="M 2841 4863 
L 2841 4128 
L 2222 4128 
Q 1984 4128 1890 4042 
Q 1797 3956 1797 3744 
L 1797 3500 
L 2753 3500 
L 2753 2700 
L 1797 2700 
L 1797 0 
L 678 0 
L 678 2700 
L 122 2700 
L 122 3500 
L 678 3500 
L 678 3744 
Q 678 4316 997 4589 
Q 1316 4863 1984 4863 
L 2841 4863 
z
" transform="scale(0.015625)"/>
      <path id="DejaVuSans-Bold-63" d="M 3366 3391 
L 3366 2478 
Q 3138 2634 2908 2709 
Q 2678 2784 2431 2784 
Q 1963 2784 1702 2511 
Q 1441 2238 1441 1747 
Q 1441 1256 1702 982 
Q 1963 709 2431 709 
Q 2694 709 2930 787 
Q 3166 866 3366 1019 
L 3366 103 
Q 3103 6 2833 -42 
Q 2563 -91 2291 -91 
Q 1344 -91 809 395 
Q 275 881 275 1747 
Q 275 2613 809 3098 
Q 1344 3584 2291 3584 
Q 2566 3584 2833 3536 
Q 3100 3488 3366 3391 
z
" transform="scale(0.015625)"/>
     </defs>
     <use xlink:href="#DejaVuSans-Bold-52"/>
     <use xlink:href="#DejaVuSans-Bold-51" transform="translate(77.001953 0)"/>
     <use xlink:href="#DejaVuSans-Bold-33" transform="translate(162.011719 0)"/>
     <use xlink:href="#DejaVuSans-Bold-20" transform="translate(231.591797 0)"/>
     <use xlink:href="#DejaVuSans-Bold-b7" transform="translate(266.40625 0)"/>
     <use xlink:href="#DejaVuSans-Bold-20" transform="translate(304.394531 0)"/>
     <use xlink:href="#DejaVuSans-Bold-74" transform="translate(339.208984 0)"/>
     <use xlink:href="#DejaVuSans-Bold-75" transform="translate(387.011719 0)"/>
     <use xlink:href="#DejaVuSans-Bold-72" transform="translate(458.203125 0)"/>
     <use xlink:href="#DejaVuSans-Bold-6e" transform="translate(507.519531 0)"/>
     <use xlink:href="#DejaVuSans-Bold-69" transform="translate(578.710938 0)"/>
     <use xlink:href="#DejaVuSans-Bold-6e" transform="translate(612.988281 0)"/>
     <use xlink:href="#DejaVuSans-Bold-67" transform="translate(684.179688 0)"/>
     <use xlink:href="#DejaVuSans-Bold-20" transform="translate(755.761719 0)"/>
     <use xlink:href="#DejaVuSans-Bold-74" transform="translate(790.576172 0)"/>
     <use xlink:href="#DejaVuSans-Bold-68" transform="translate(838.378906 0)"/>
     <use xlink:href="#DejaVuSans-Bold-65" transform="translate(909.570312 0)"/>
     <use xlink:href="#DejaVuSans-Bold-20" transform="translate(977.392578 0)"/>
     <use xlink:href="#DejaVuSans-Bold-70" transform="translate(1012.207031 0)"/>
     <use xlink:href="#DejaVuSans-Bold-65" transform="translate(1083.789062 0)"/>
     <use xlink:href="#DejaVuSans-Bold-6e" transform="translate(1151.611328 0)"/>
     <use xlink:href="#DejaVuSans-Bold-61" transform="translate(1222.802734 0)"/>
     <use xlink:href="#DejaVuSans-Bold-6c" transform="translate(1290.283203 0)"/>
     <use xlink:href="#DejaVuSans-Bold-74" transform="translate(1324.560547 0)"/>
     <use xlink:href="#DejaVuSans-Bold-79" transform="translate(1372.363281 0)"/>
     <use xlink:href="#DejaVuSans-Bold-20" transform="translate(1437.548828 0)"/>
     <use xlink:href="#DejaVuSans-Bold-6f" transform="translate(1472.363281 0)"/>
     <use xlink:href="#DejaVuSans-Bold-66" transform="translate(1541.064453 0)"/>
     <use xlink:href="#DejaVuSans-Bold-66" transform="translate(1584.570312 0)"/>
     <use xlink:href="#DejaVuSans-Bold-20" transform="translate(1628.076172 0)"/>
     <use xlink:href="#DejaVuSans-Bold-63" transform="translate(1662.890625 0)"/>
     <use xlink:href="#DejaVuSans-Bold-6f" transform="translate(1722.167969 0)"/>
     <use xlink:href="#DejaVuSans-Bold-73" transform="translate(1790.869141 0)"/>
     <use xlink:href="#DejaVuSans-Bold-74" transform="translate(1850.390625 0)"/>
     <use xlink:href="#DejaVuSans-Bold-73" transform="translate(1898.193359 0)"/>
     <use xlink:href="#DejaVuSans-Bold-20" transform="translate(1957.714844 0)"/>
     <use xlink:href="#DejaVuSans-Bold-79" transform="translate(1992.529297 0)"/>
     <use xlink:href="#DejaVuSans-Bold-6f" transform="translate(2057.714844 0)"/>
     <use xlink:href="#DejaVuSans-Bold-75" transform="translate(2126.416016 0)"/>
     <use xlink:href="#DejaVuSans-Bold-20" transform="translate(2197.607422 0)"/>
     <use xlink:href="#DejaVuSans-Bold-74" transform="translate(2232.421875 0)"/>
     <use xlink:href="#DejaVuSans-Bold-68" transform="translate(2280.224609 0)"/>
     <use xlink:href="#DejaVuSans-Bold-65" transform="translate(2351.416016 0)"/>
     <use xlink:href="#DejaVuSans-Bold-20" transform="translate(2419.238281 0)"/>
     <use xlink:href="#DejaVuSans-Bold-77" transform="translate(2454.052734 0)"/>
     <use xlink:href="#DejaVuSans-Bold-68" transform="translate(2546.435547 0)"/>
     <use xlink:href="#DejaVuSans-Bold-6f" transform="translate(2617.626953 0)"/>
     <use xlink:href="#DejaVuSans-Bold-6c" transform="translate(2686.328125 0)"/>
     <use xlink:href="#DejaVuSans-Bold-65" transform="translate(2720.605469 0)"/>
     <use xlink:href="#DejaVuSans-Bold-20" transform="translate(2788.427734 0)"/>
     <use xlink:href="#DejaVuSans-Bold-72" transform="translate(2823.242188 0)"/>
     <use xlink:href="#DejaVuSans-Bold-75" transform="translate(2872.558594 0)"/>
     <use xlink:href="#DejaVuSans-Bold-6e" transform="translate(2943.75 0)"/>
    </g>
   </g>
   <g id="legend_1">
    <g id="patch_4">
     <path d="M 303.613186 85.107875 
L 456.485686 85.107875 
Q 458.685686 85.107875 458.685686 82.907875 
L 458.685686 51.716 
Q 458.685686 49.516 456.485686 49.516 
L 303.613186 49.516 
Q 301.413186 49.516 301.413186 51.716 
L 301.413186 82.907875 
Q 301.413186 85.107875 303.613186 85.107875 
z
" style="fill: #1f1e1d; opacity: 0.8; stroke: #3a3836; stroke-linejoin: miter"/>
    </g>
    <g id="line2d_29">
     <path d="M 305.813186 58.424281 
L 316.813186 58.424281 
L 327.813186 58.424281 
" style="fill: none; stroke: #7dd3fc; stroke-width: 2.4; stroke-linecap: square"/>
     <g>
      <use xlink:href="#m3ca3cd5f5f" x="316.813186" y="58.424281" style="fill: #7dd3fc; stroke: #7dd3fc"/>
     </g>
    </g>
    <g id="text_18">
     <!-- with ALiBi (linear) -->
     <g style="fill: #e7e5e4" transform="translate(336.613186 62.274281) scale(0.11 -0.11)">
      <defs>
       <path id="DejaVuSans-68" d="M 3513 2113 
L 3513 0 
L 2938 0 
L 2938 2094 
Q 2938 2591 2744 2837 
Q 2550 3084 2163 3084 
Q 1697 3084 1428 2787 
Q 1159 2491 1159 1978 
L 1159 0 
L 581 0 
L 581 4863 
L 1159 4863 
L 1159 2956 
Q 1366 3272 1645 3428 
Q 1925 3584 2291 3584 
Q 2894 3584 3203 3211 
Q 3513 2838 3513 2113 
z
" transform="scale(0.015625)"/>
       <path id="DejaVuSans-41" d="M 2188 4044 
L 1331 1722 
L 3047 1722 
L 2188 4044 
z
M 1831 4666 
L 2547 4666 
L 4325 0 
L 3669 0 
L 3244 1197 
L 1141 1197 
L 716 0 
L 50 0 
L 1831 4666 
z
" transform="scale(0.015625)"/>
       <path id="DejaVuSans-4c" d="M 628 4666 
L 1259 4666 
L 1259 531 
L 3531 531 
L 3531 0 
L 628 0 
L 628 4666 
z
" transform="scale(0.015625)"/>
       <path id="DejaVuSans-42" d="M 1259 2228 
L 1259 519 
L 2272 519 
Q 2781 519 3026 730 
Q 3272 941 3272 1375 
Q 3272 1813 3026 2020 
Q 2781 2228 2272 2228 
L 1259 2228 
z
M 1259 4147 
L 1259 2741 
L 2194 2741 
Q 2656 2741 2882 2914 
Q 3109 3088 3109 3444 
Q 3109 3797 2882 3972 
Q 2656 4147 2194 4147 
L 1259 4147 
z
M 628 4666 
L 2241 4666 
Q 2963 4666 3353 4366 
Q 3744 4066 3744 3513 
Q 3744 3084 3544 2831 
Q 3344 2578 2956 2516 
Q 3422 2416 3680 2098 
Q 3938 1781 3938 1306 
Q 3938 681 3513 340 
Q 3088 0 2303 0 
L 628 0 
L 628 4666 
z
" transform="scale(0.015625)"/>
      </defs>
      <use xlink:href="#DejaVuSans-77"/>
      <use xlink:href="#DejaVuSans-69" transform="translate(81.787109 0)"/>
      <use xlink:href="#DejaVuSans-74" transform="translate(109.570312 0)"/>
      <use xlink:href="#DejaVuSans-68" transform="translate(148.779297 0)"/>
      <use xlink:href="#DejaVuSans-20" transform="translate(212.158203 0)"/>
      <use xlink:href="#DejaVuSans-41" transform="translate(243.945312 0)"/>
      <use xlink:href="#DejaVuSans-4c" transform="translate(312.353516 0)"/>
      <use xlink:href="#DejaVuSans-69" transform="translate(368.066406 0)"/>
      <use xlink:href="#DejaVuSans-42" transform="translate(395.849609 0)"/>
      <use xlink:href="#DejaVuSans-69" transform="translate(464.453125 0)"/>
      <use xlink:href="#DejaVuSans-20" transform="translate(492.236328 0)"/>
      <use xlink:href="#DejaVuSans-28" transform="translate(524.023438 0)"/>
      <use xlink:href="#DejaVuSans-6c" transform="translate(563.037109 0)"/>
      <use xlink:href="#DejaVuSans-69" transform="translate(590.820312 0)"/>
      <use xlink:href="#DejaVuSans-6e" transform="translate(618.603516 0)"/>
      <use xlink:href="#DejaVuSans-65" transform="translate(681.982422 0)"/>
      <use xlink:href="#DejaVuSans-61" transform="translate(743.505859 0)"/>
      <use xlink:href="#DejaVuSans-72" transform="translate(804.785156 0)"/>
      <use xlink:href="#DejaVuSans-29" transform="translate(845.898438 0)"/>
     </g>
    </g>
    <g id="line2d_30">
     <path d="M 305.813186 74.570219 
L 316.813186 74.570219 
L 327.813186 74.570219 
" style="fill: none; stroke-dasharray: 8.88,3.84; stroke-dashoffset: 0; stroke: #86efac; stroke-width: 2.4"/>
     <g>
      <use xlink:href="#m1052729c6a" x="316.813186" y="74.570219" style="fill: #86efac; stroke: #86efac"/>
     </g>
    </g>
    <g id="text_19">
     <!-- no position bias at all -->
     <g style="fill: #e7e5e4" transform="translate(336.613186 78.420219) scale(0.11 -0.11)">
      <use xlink:href="#DejaVuSans-6e"/>
      <use xlink:href="#DejaVuSans-6f" transform="translate(63.378906 0)"/>
      <use xlink:href="#DejaVuSans-20" transform="translate(124.560547 0)"/>
      <use xlink:href="#DejaVuSans-70" transform="translate(156.347656 0)"/>
      <use xlink:href="#DejaVuSans-6f" transform="translate(219.824219 0)"/>
      <use xlink:href="#DejaVuSans-73" transform="translate(281.005859 0)"/>
      <use xlink:href="#DejaVuSans-69" transform="translate(333.105469 0)"/>
      <use xlink:href="#DejaVuSans-74" transform="translate(360.888672 0)"/>
      <use xlink:href="#DejaVuSans-69" transform="translate(400.097656 0)"/>
      <use xlink:href="#DejaVuSans-6f" transform="translate(427.880859 0)"/>
      <use xlink:href="#DejaVuSans-6e" transform="translate(489.0625 0)"/>
      <use xlink:href="#DejaVuSans-20" transform="translate(552.441406 0)"/>
      <use xlink:href="#DejaVuSans-62" transform="translate(584.228516 0)"/>
      <use xlink:href="#DejaVuSans-69" transform="translate(647.705078 0)"/>
      <use xlink:href="#DejaVuSans-61" transform="translate(675.488281 0)"/>
      <use xlink:href="#DejaVuSans-73" transform="translate(736.767578 0)"/>
      <use xlink:href="#DejaVuSans-20" transform="translate(788.867188 0)"/>
      <use xlink:href="#DejaVuSans-61" transform="translate(820.654297 0)"/>
      <use xlink:href="#DejaVuSans-74" transform="translate(881.933594 0)"/>
      <use xlink:href="#DejaVuSans-20" transform="translate(921.142578 0)"/>
      <use xlink:href="#DejaVuSans-61" transform="translate(952.929688 0)"/>
      <use xlink:href="#DejaVuSans-6c" transform="translate(1014.208984 0)"/>
      <use xlink:href="#DejaVuSans-6c" transform="translate(1041.992188 0)"/>
     </g>
    </g>
   </g>
  </g>
  <g id="axes_2">
   <g id="patch_5">
    <path d="M 527.655686 310.12 
L 793.44 310.12 
L 793.44 44.016 
L 527.655686 44.016 
z
" style="fill: #1f1e1d"/>
   </g>
   <g id="patch_6">
    <path d="M 539.736791 6655.676923 
L 630.34508 6655.676923 
L 630.34508 250.314832 
L 539.736791 250.314832 
z
" clip-path="url(#p25f0e7ad6f)" style="fill: #7dd3fc"/>
   </g>
   <g id="patch_7">
    <path d="M 690.750606 6655.676923 
L 781.358895 6655.676923 
L 781.358895 91.982952 
L 690.750606 91.982952 
z
" clip-path="url(#p25f0e7ad6f)" style="fill: #86efac"/>
   </g>
   <g id="matplotlib.axis_3">
    <g id="xtick_9">
     <g id="line2d_31">
      <g>
       <use xlink:href="#m01cb63806f" x="585.040936" y="310.12" style="fill: #e7e5e4; stroke: #e7e5e4; stroke-width: 0.8"/>
      </g>
     </g>
     <g id="text_20">
      <!-- with -->
      <g style="fill: #e7e5e4" transform="translate(572.84285 325.858203) scale(0.115 -0.115)">
       <use xlink:href="#DejaVuSans-77"/>
       <use xlink:href="#DejaVuSans-69" transform="translate(81.787109 0)"/>
       <use xlink:href="#DejaVuSans-74" transform="translate(109.570312 0)"/>
       <use xlink:href="#DejaVuSans-68" transform="translate(148.779297 0)"/>
      </g>
      <!-- ALiBi -->
      <g style="fill: #e7e5e4" transform="translate(570.763866 338.735688) scale(0.115 -0.115)">
       <use xlink:href="#DejaVuSans-41"/>
       <use xlink:href="#DejaVuSans-4c" transform="translate(68.408203 0)"/>
       <use xlink:href="#DejaVuSans-69" transform="translate(124.121094 0)"/>
       <use xlink:href="#DejaVuSans-42" transform="translate(151.904297 0)"/>
       <use xlink:href="#DejaVuSans-69" transform="translate(220.507812 0)"/>
      </g>
     </g>
    </g>
    <g id="xtick_10">
     <g id="line2d_32">
      <g>
       <use xlink:href="#m01cb63806f" x="736.05475" y="310.12" style="fill: #e7e5e4; stroke: #e7e5e4; stroke-width: 0.8"/>
      </g>
     </g>
     <g id="text_21">
      <!-- no position -->
      <g style="fill: #e7e5e4" transform="translate(704.289594 325.858203) scale(0.115 -0.115)">
       <use xlink:href="#DejaVuSans-6e"/>
       <use xlink:href="#DejaVuSans-6f" transform="translate(63.378906 0)"/>
       <use xlink:href="#DejaVuSans-20" transform="translate(124.560547 0)"/>
       <use xlink:href="#DejaVuSans-70" transform="translate(156.347656 0)"/>
       <use xlink:href="#DejaVuSans-6f" transform="translate(219.824219 0)"/>
       <use xlink:href="#DejaVuSans-73" transform="translate(281.005859 0)"/>
       <use xlink:href="#DejaVuSans-69" transform="translate(333.105469 0)"/>
       <use xlink:href="#DejaVuSans-74" transform="translate(360.888672 0)"/>
       <use xlink:href="#DejaVuSans-69" transform="translate(400.097656 0)"/>
       <use xlink:href="#DejaVuSans-6f" transform="translate(427.880859 0)"/>
       <use xlink:href="#DejaVuSans-6e" transform="translate(489.0625 0)"/>
      </g>
      <!-- bias -->
      <g style="fill: #e7e5e4" transform="translate(724.287915 338.735688) scale(0.115 -0.115)">
       <use xlink:href="#DejaVuSans-62"/>
       <use xlink:href="#DejaVuSans-69" transform="translate(63.476562 0)"/>
       <use xlink:href="#DejaVuSans-61" transform="translate(91.259766 0)"/>
       <use xlink:href="#DejaVuSans-73" transform="translate(152.539062 0)"/>
      </g>
     </g>
    </g>
   </g>
   <g id="matplotlib.axis_4">
    <g id="ytick_6">
     <g id="line2d_33">
      <path d="M 527.655686 310.12 
L 793.44 310.12 
" clip-path="url(#p25f0e7ad6f)" style="fill: none; stroke: #3a3836; stroke-opacity: 0.2; stroke-width: 0.8; stroke-linecap: square"/>
     </g>
     <g id="line2d_34">
      <g>
       <use xlink:href="#med09ef0694" x="527.655686" y="310.12" style="fill: #a8a29e; stroke: #a8a29e; stroke-width: 0.8"/>
      </g>
     </g>
     <g id="text_22">
      <!-- 6.20 -->
      <g style="fill: #a8a29e" transform="translate(493.936936 314.679063) scale(0.12 -0.12)">
       <defs>
        <path id="DejaVuSans-2e" d="M 684 794 
L 1344 794 
L 1344 0 
L 684 0 
L 684 794 
z
" transform="scale(0.015625)"/>
       </defs>
       <use xlink:href="#DejaVuSans-36"/>
       <use xlink:href="#DejaVuSans-2e" transform="translate(63.623047 0)"/>
       <use xlink:href="#DejaVuSans-32" transform="translate(95.410156 0)"/>
       <use xlink:href="#DejaVuSans-30" transform="translate(159.033203 0)"/>
      </g>
     </g>
    </g>
    <g id="ytick_7">
     <g id="line2d_35">
      <path d="M 527.655686 258.946154 
L 793.44 258.946154 
" clip-path="url(#p25f0e7ad6f)" style="fill: none; stroke: #3a3836; stroke-opacity: 0.2; stroke-width: 0.8; stroke-linecap: square"/>
     </g>
     <g id="line2d_36">
      <g>
       <use xlink:href="#med09ef0694" x="527.655686" y="258.946154" style="fill: #a8a29e; stroke: #a8a29e; stroke-width: 0.8"/>
      </g>
     </g>
     <g id="text_23">
      <!-- 6.25 -->
      <g style="fill: #a8a29e" transform="translate(493.936936 263.505216) scale(0.12 -0.12)">
       <use xlink:href="#DejaVuSans-36"/>
       <use xlink:href="#DejaVuSans-2e" transform="translate(63.623047 0)"/>
       <use xlink:href="#DejaVuSans-32" transform="translate(95.410156 0)"/>
       <use xlink:href="#DejaVuSans-35" transform="translate(159.033203 0)"/>
      </g>
     </g>
    </g>
    <g id="ytick_8">
     <g id="line2d_37">
      <path d="M 527.655686 207.772308 
L 793.44 207.772308 
" clip-path="url(#p25f0e7ad6f)" style="fill: none; stroke: #3a3836; stroke-opacity: 0.2; stroke-width: 0.8; stroke-linecap: square"/>
     </g>
     <g id="line2d_38">
      <g>
       <use xlink:href="#med09ef0694" x="527.655686" y="207.772308" style="fill: #a8a29e; stroke: #a8a29e; stroke-width: 0.8"/>
      </g>
     </g>
     <g id="text_24">
      <!-- 6.30 -->
      <g style="fill: #a8a29e" transform="translate(493.936936 212.33137) scale(0.12 -0.12)">
       <use xlink:href="#DejaVuSans-36"/>
       <use xlink:href="#DejaVuSans-2e" transform="translate(63.623047 0)"/>
       <use xlink:href="#DejaVuSans-33" transform="translate(95.410156 0)"/>
       <use xlink:href="#DejaVuSans-30" transform="translate(159.033203 0)"/>
      </g>
     </g>
    </g>
    <g id="ytick_9">
     <g id="line2d_39">
      <path d="M 527.655686 156.598462 
L 793.44 156.598462 
" clip-path="url(#p25f0e7ad6f)" style="fill: none; stroke: #3a3836; stroke-opacity: 0.2; stroke-width: 0.8; stroke-linecap: square"/>
     </g>
     <g id="line2d_40">
      <g>
       <use xlink:href="#med09ef0694" x="527.655686" y="156.598462" style="fill: #a8a29e; stroke: #a8a29e; stroke-width: 0.8"/>
      </g>
     </g>
     <g id="text_25">
      <!-- 6.35 -->
      <g style="fill: #a8a29e" transform="translate(493.936936 161.157524) scale(0.12 -0.12)">
       <use xlink:href="#DejaVuSans-36"/>
       <use xlink:href="#DejaVuSans-2e" transform="translate(63.623047 0)"/>
       <use xlink:href="#DejaVuSans-33" transform="translate(95.410156 0)"/>
       <use xlink:href="#DejaVuSans-35" transform="translate(159.033203 0)"/>
      </g>
     </g>
    </g>
    <g id="ytick_10">
     <g id="line2d_41">
      <path d="M 527.655686 105.424615 
L 793.44 105.424615 
" clip-path="url(#p25f0e7ad6f)" style="fill: none; stroke: #3a3836; stroke-opacity: 0.2; stroke-width: 0.8; stroke-linecap: square"/>
     </g>
     <g id="line2d_42">
      <g>
       <use xlink:href="#med09ef0694" x="527.655686" y="105.424615" style="fill: #a8a29e; stroke: #a8a29e; stroke-width: 0.8"/>
      </g>
     </g>
     <g id="text_26">
      <!-- 6.40 -->
      <g style="fill: #a8a29e" transform="translate(493.936936 109.983678) scale(0.12 -0.12)">
       <use xlink:href="#DejaVuSans-36"/>
       <use xlink:href="#DejaVuSans-2e" transform="translate(63.623047 0)"/>
       <use xlink:href="#DejaVuSans-34" transform="translate(95.410156 0)"/>
       <use xlink:href="#DejaVuSans-30" transform="translate(159.033203 0)"/>
      </g>
     </g>
    </g>
    <g id="ytick_11">
     <g id="line2d_43">
      <path d="M 527.655686 54.250769 
L 793.44 54.250769 
" clip-path="url(#p25f0e7ad6f)" style="fill: none; stroke: #3a3836; stroke-opacity: 0.2; stroke-width: 0.8; stroke-linecap: square"/>
     </g>
     <g id="line2d_44">
      <g>
       <use xlink:href="#med09ef0694" x="527.655686" y="54.250769" style="fill: #a8a29e; stroke: #a8a29e; stroke-width: 0.8"/>
      </g>
     </g>
     <g id="text_27">
      <!-- 6.45 -->
      <g style="fill: #a8a29e" transform="translate(493.936936 58.809832) scale(0.12 -0.12)">
       <use xlink:href="#DejaVuSans-36"/>
       <use xlink:href="#DejaVuSans-2e" transform="translate(63.623047 0)"/>
       <use xlink:href="#DejaVuSans-34" transform="translate(95.410156 0)"/>
       <use xlink:href="#DejaVuSans-35" transform="translate(159.033203 0)"/>
      </g>
     </g>
    </g>
    <g id="text_28">
     <!-- final validation loss  (3 seeds) -->
     <g style="fill: #e7e5e4" transform="translate(487.441311 266.601125) rotate(-90) scale(0.12 -0.12)">
      <defs>
       <path id="DejaVuSans-66" d="M 2375 4863 
L 2375 4384 
L 1825 4384 
Q 1516 4384 1395 4259 
Q 1275 4134 1275 3809 
L 1275 3500 
L 2222 3500 
L 2222 3053 
L 1275 3053 
L 1275 0 
L 697 0 
L 697 3053 
L 147 3053 
L 147 3500 
L 697 3500 
L 697 3744 
Q 697 4328 969 4595 
Q 1241 4863 1831 4863 
L 2375 4863 
z
" transform="scale(0.015625)"/>
      </defs>
      <use xlink:href="#DejaVuSans-66"/>
      <use xlink:href="#DejaVuSans-69" transform="translate(35.205078 0)"/>
      <use xlink:href="#DejaVuSans-6e" transform="translate(62.988281 0)"/>
      <use xlink:href="#DejaVuSans-61" transform="translate(126.367188 0)"/>
      <use xlink:href="#DejaVuSans-6c" transform="translate(187.646484 0)"/>
      <use xlink:href="#DejaVuSans-20" transform="translate(215.429688 0)"/>
      <use xlink:href="#DejaVuSans-76" transform="translate(247.216797 0)"/>
      <use xlink:href="#DejaVuSans-61" transform="translate(306.396484 0)"/>
      <use xlink:href="#DejaVuSans-6c" transform="translate(367.675781 0)"/>
      <use xlink:href="#DejaVuSans-69" transform="translate(395.458984 0)"/>
      <use xlink:href="#DejaVuSans-64" transform="translate(423.242188 0)"/>
      <use xlink:href="#DejaVuSans-61" transform="translate(486.71875 0)"/>
      <use xlink:href="#DejaVuSans-74" transform="translate(547.998047 0)"/>
      <use xlink:href="#DejaVuSans-69" transform="translate(587.207031 0)"/>
      <use xlink:href="#DejaVuSans-6f" transform="translate(614.990234 0)"/>
      <use xlink:href="#DejaVuSans-6e" transform="translate(676.171875 0)"/>
      <use xlink:href="#DejaVuSans-20" transform="translate(739.550781 0)"/>
      <use xlink:href="#DejaVuSans-6c" transform="translate(771.337891 0)"/>
      <use xlink:href="#DejaVuSans-6f" transform="translate(799.121094 0)"/>
      <use xlink:href="#DejaVuSans-73" transform="translate(860.302734 0)"/>
      <use xlink:href="#DejaVuSans-73" transform="translate(912.402344 0)"/>
      <use xlink:href="#DejaVuSans-20" transform="translate(964.501953 0)"/>
      <use xlink:href="#DejaVuSans-20" transform="translate(996.289062 0)"/>
      <use xlink:href="#DejaVuSans-28" transform="translate(1028.076172 0)"/>
      <use xlink:href="#DejaVuSans-33" transform="translate(1067.089844 0)"/>
      <use xlink:href="#DejaVuSans-20" transform="translate(1130.712891 0)"/>
      <use xlink:href="#DejaVuSans-73" transform="translate(1162.5 0)"/>
      <use xlink:href="#DejaVuSans-65" transform="translate(1214.599609 0)"/>
      <use xlink:href="#DejaVuSans-65" transform="translate(1276.123047 0)"/>
      <use xlink:href="#DejaVuSans-64" transform="translate(1337.646484 0)"/>
      <use xlink:href="#DejaVuSans-73" transform="translate(1401.123047 0)"/>
      <use xlink:href="#DejaVuSans-29" transform="translate(1453.222656 0)"/>
     </g>
    </g>
   </g>
   <g id="LineCollection_1">
    <path d="M 585.040936 268.87388 
L 585.040936 237.555486 
" clip-path="url(#p25f0e7ad6f)" style="fill: none; stroke: #e7e5e4; stroke-width: 1.6"/>
    <path d="M 736.05475 119.139206 
L 736.05475 72.161615 
" clip-path="url(#p25f0e7ad6f)" style="fill: none; stroke: #e7e5e4; stroke-width: 1.6"/>
   </g>
   <g id="line2d_45">
    <defs>
     <path id="m2202409486" d="M 7 0 
L -7 -0 
" style="stroke: #e7e5e4"/>
    </defs>
    <g clip-path="url(#p25f0e7ad6f)">
     <use xlink:href="#m2202409486" x="585.040936" y="268.87388" style="fill: #1f77b4; stroke: #e7e5e4"/>
     <use xlink:href="#m2202409486" x="736.05475" y="119.139206" style="fill: #1f77b4; stroke: #e7e5e4"/>
    </g>
   </g>
   <g id="line2d_46">
    <g clip-path="url(#p25f0e7ad6f)">
     <use xlink:href="#m2202409486" x="585.040936" y="237.555486" style="fill: #1f77b4; stroke: #e7e5e4"/>
     <use xlink:href="#m2202409486" x="736.05475" y="72.161615" style="fill: #1f77b4; stroke: #e7e5e4"/>
    </g>
   </g>
   <g id="text_29">
    <!-- 6.258 -->
    <g style="fill: #1f1e1d" transform="translate(566.063123 271.71468) scale(0.12 -0.12)">
     <defs>
      <path id="DejaVuSans-Bold-36" d="M 2316 2303 
Q 2000 2303 1842 2098 
Q 1684 1894 1684 1484 
Q 1684 1075 1842 870 
Q 2000 666 2316 666 
Q 2634 666 2792 870 
Q 2950 1075 2950 1484 
Q 2950 1894 2792 2098 
Q 2634 2303 2316 2303 
z
M 3803 4544 
L 3803 3681 
Q 3506 3822 3243 3889 
Q 2981 3956 2731 3956 
Q 2194 3956 1894 3657 
Q 1594 3359 1544 2772 
Q 1750 2925 1990 3001 
Q 2231 3078 2516 3078 
Q 3231 3078 3670 2659 
Q 4109 2241 4109 1563 
Q 4109 813 3618 361 
Q 3128 -91 2303 -91 
Q 1394 -91 895 523 
Q 397 1138 397 2266 
Q 397 3422 980 4083 
Q 1563 4744 2578 4744 
Q 2900 4744 3203 4694 
Q 3506 4644 3803 4544 
z
" transform="scale(0.015625)"/>
      <path id="DejaVuSans-Bold-32" d="M 1844 884 
L 3897 884 
L 3897 0 
L 506 0 
L 506 884 
L 2209 2388 
Q 2438 2594 2547 2791 
Q 2656 2988 2656 3200 
Q 2656 3528 2436 3728 
Q 2216 3928 1850 3928 
Q 1569 3928 1234 3808 
Q 900 3688 519 3450 
L 519 4475 
Q 925 4609 1322 4679 
Q 1719 4750 2100 4750 
Q 2938 4750 3402 4381 
Q 3866 4013 3866 3353 
Q 3866 2972 3669 2642 
Q 3472 2313 2841 1759 
L 1844 884 
z
" transform="scale(0.015625)"/>
      <path id="DejaVuSans-Bold-38" d="M 2228 2088 
Q 1891 2088 1709 1903 
Q 1528 1719 1528 1375 
Q 1528 1031 1709 848 
Q 1891 666 2228 666 
Q 2563 666 2741 848 
Q 2919 1031 2919 1375 
Q 2919 1722 2741 1905 
Q 2563 2088 2228 2088 
z
M 1350 2484 
Q 925 2613 709 2878 
Q 494 3144 494 3541 
Q 494 4131 934 4440 
Q 1375 4750 2228 4750 
Q 3075 4750 3515 4442 
Q 3956 4134 3956 3541 
Q 3956 3144 3739 2878 
Q 3522 2613 3097 2484 
Q 3572 2353 3814 2058 
Q 4056 1763 4056 1313 
Q 4056 619 3595 264 
Q 3134 -91 2228 -91 
Q 1319 -91 855 264 
Q 391 619 391 1313 
Q 391 1763 633 2058 
Q 875 2353 1350 2484 
z
M 1631 3419 
Q 1631 3141 1786 2991 
Q 1941 2841 2228 2841 
Q 2509 2841 2662 2991 
Q 2816 3141 2816 3419 
Q 2816 3697 2662 3845 
Q 2509 3994 2228 3994 
Q 1941 3994 1786 3844 
Q 1631 3694 1631 3419 
z
" transform="scale(0.015625)"/>
     </defs>
     <use xlink:href="#DejaVuSans-Bold-36"/>
     <use xlink:href="#DejaVuSans-Bold-2e" transform="translate(69.580078 0)"/>
     <use xlink:href="#DejaVuSans-Bold-32" transform="translate(107.568359 0)"/>
     <use xlink:href="#DejaVuSans-Bold-35" transform="translate(177.148438 0)"/>
     <use xlink:href="#DejaVuSans-Bold-38" transform="translate(246.728516 0)"/>
    </g>
   </g>
   <g id="text_30">
    <!-- 6.413 -->
    <g style="fill: #1f1e1d" transform="translate(717.076938 113.3828) scale(0.12 -0.12)">
     <defs>
      <path id="DejaVuSans-Bold-34" d="M 2356 3675 
L 1038 1722 
L 2356 1722 
L 2356 3675 
z
M 2156 4666 
L 3494 4666 
L 3494 1722 
L 4159 1722 
L 4159 850 
L 3494 850 
L 3494 0 
L 2356 0 
L 2356 850 
L 288 850 
L 288 1881 
L 2156 4666 
z
" transform="scale(0.015625)"/>
     </defs>
     <use xlink:href="#DejaVuSans-Bold-36"/>
     <use xlink:href="#DejaVuSans-Bold-2e" transform="translate(69.580078 0)"/>
     <use xlink:href="#DejaVuSans-Bold-34" transform="translate(107.568359 0)"/>
     <use xlink:href="#DejaVuSans-Bold-31" transform="translate(177.148438 0)"/>
     <use xlink:href="#DejaVuSans-Bold-33" transform="translate(246.728516 0)"/>
    </g>
   </g>
   <g id="text_31">
    <!-- Δ = +0.155 ± 0.019 -->
    <g style="fill: #e7e5e4" transform="translate(594.510343 24.578625) scale(0.12 -0.12)">
     <defs>
      <path id="DejaVuSans-Bold-394" d="M 4922 0 
L 31 0 
L 1759 4666 
L 3194 4666 
L 4922 0 
z
M 1559 909 
L 3384 909 
L 2478 3572 
L 1559 909 
z
" transform="scale(0.015625)"/>
      <path id="DejaVuSans-Bold-3d" d="M 678 3084 
L 4684 3084 
L 4684 2350 
L 678 2350 
L 678 3084 
z
M 678 1663 
L 4684 1663 
L 4684 922 
L 678 922 
L 678 1663 
z
" transform="scale(0.015625)"/>
      <path id="DejaVuSans-Bold-b1" d="M 3053 4013 
L 3053 2906 
L 4684 2906 
L 4684 2169 
L 3053 2169 
L 3053 1063 
L 2309 1063 
L 2309 2169 
L 678 2169 
L 678 2906 
L 2309 2906 
L 2309 4013 
L 3053 4013 
z
M 678 744 
L 4684 744 
L 4684 0 
L 678 0 
L 678 744 
z
" transform="scale(0.015625)"/>
      <path id="DejaVuSans-Bold-39" d="M 641 103 
L 641 966 
Q 928 831 1190 764 
Q 1453 697 1709 697 
Q 2247 697 2547 995 
Q 2847 1294 2900 1881 
Q 2688 1725 2447 1647 
Q 2206 1569 1925 1569 
Q 1209 1569 770 1986 
Q 331 2403 331 3084 
Q 331 3838 820 4291 
Q 1309 4744 2131 4744 
Q 3044 4744 3544 4128 
Q 4044 3513 4044 2388 
Q 4044 1231 3459 570 
Q 2875 -91 1856 -91 
Q 1528 -91 1228 -42 
Q 928 6 641 103 
z
M 2125 2350 
Q 2441 2350 2600 2554 
Q 2759 2759 2759 3169 
Q 2759 3575 2600 3781 
Q 2441 3988 2125 3988 
Q 1809 3988 1650 3781 
Q 1491 3575 1491 3169 
Q 1491 2759 1650 2554 
Q 1809 2350 2125 2350 
z
" transform="scale(0.015625)"/>
     </defs>
     <use xlink:href="#DejaVuSans-Bold-394"/>
     <use xlink:href="#DejaVuSans-Bold-20" transform="translate(77.392578 0)"/>
     <use xlink:href="#DejaVuSans-Bold-3d" transform="translate(112.207031 0)"/>
     <use xlink:href="#DejaVuSans-Bold-20" transform="translate(195.996094 0)"/>
     <use xlink:href="#DejaVuSans-Bold-2b" transform="translate(230.810547 0)"/>
     <use xlink:href="#DejaVuSans-Bold-30" transform="translate(314.599609 0)"/>
     <use xlink:href="#DejaVuSans-Bold-2e" transform="translate(384.179688 0)"/>
     <use xlink:href="#DejaVuSans-Bold-31" transform="translate(422.167969 0)"/>
     <use xlink:href="#DejaVuSans-Bold-35" transform="translate(491.748047 0)"/>
     <use xlink:href="#DejaVuSans-Bold-35" transform="translate(561.328125 0)"/>
     <use xlink:href="#DejaVuSans-Bold-20" transform="translate(630.908203 0)"/>
     <use xlink:href="#DejaVuSans-Bold-b1" transform="translate(665.722656 0)"/>
     <use xlink:href="#DejaVuSans-Bold-20" transform="translate(749.511719 0)"/>
     <use xlink:href="#DejaVuSans-Bold-30" transform="translate(784.326172 0)"/>
     <use xlink:href="#DejaVuSans-Bold-2e" transform="translate(853.90625 0)"/>
     <use xlink:href="#DejaVuSans-Bold-30" transform="translate(891.894531 0)"/>
     <use xlink:href="#DejaVuSans-Bold-31" transform="translate(961.474609 0)"/>
     <use xlink:href="#DejaVuSans-Bold-39" transform="translate(1031.054688 0)"/>
    </g>
    <!-- ≈ 8× the noise band — conclusive -->
    <g style="fill: #e7e5e4" transform="translate(546.131593 38.016) scale(0.12 -0.12)">
     <defs>
      <path id="DejaVuSans-Bold-2248" d="M 4684 3309 
L 4684 2547 
Q 4353 2297 4073 2189 
Q 3794 2081 3494 2081 
Q 3159 2081 2713 2263 
Q 2669 2281 2644 2291 
Q 2622 2300 2575 2319 
Q 2091 2509 1797 2509 
Q 1522 2509 1253 2389 
Q 984 2269 678 2009 
L 678 2772 
Q 1006 3016 1286 3123 
Q 1566 3231 1869 3231 
Q 2213 3231 2672 3047 
Q 2703 3034 2719 3028 
Q 2744 3019 2788 3000 
Q 3272 2809 3566 2809 
Q 3834 2809 4098 2926 
Q 4363 3044 4684 3309 
z
M 4684 2003 
L 4684 1241 
Q 4353 991 4073 883 
Q 3794 775 3494 775 
Q 3159 775 2713 956 
Q 2669 975 2641 988 
Q 2622 994 2575 1013 
Q 2091 1203 1797 1203 
Q 1522 1203 1253 1084 
Q 984 966 678 703 
L 678 1466 
Q 1013 1716 1291 1823 
Q 1569 1931 1869 1931 
Q 2203 1931 2650 1750 
Q 2697 1731 2719 1722 
Q 2744 1713 2788 1697 
Q 3272 1503 3566 1503 
Q 3834 1503 4098 1620 
Q 4363 1738 4684 2003 
z
" transform="scale(0.015625)"/>
      <path id="DejaVuSans-Bold-d7" d="M 4563 3359 
L 3206 2003 
L 4563 653 
L 4038 128 
L 2681 1478 
L 1325 128 
L 800 653 
L 2156 2003 
L 800 3359 
L 1325 3884 
L 2681 2528 
L 4038 3884 
L 4563 3359 
z
" transform="scale(0.015625)"/>
      <path id="DejaVuSans-Bold-62" d="M 2400 722 
Q 2759 722 2948 984 
Q 3138 1247 3138 1747 
Q 3138 2247 2948 2509 
Q 2759 2772 2400 2772 
Q 2041 2772 1848 2508 
Q 1656 2244 1656 1747 
Q 1656 1250 1848 986 
Q 2041 722 2400 722 
z
M 1656 2988 
Q 1888 3294 2169 3439 
Q 2450 3584 2816 3584 
Q 3463 3584 3878 3070 
Q 4294 2556 4294 1747 
Q 4294 938 3878 423 
Q 3463 -91 2816 -91 
Q 2450 -91 2169 54 
Q 1888 200 1656 506 
L 1656 0 
L 538 0 
L 538 4863 
L 1656 4863 
L 1656 2988 
z
" transform="scale(0.015625)"/>
      <path id="DejaVuSans-Bold-64" d="M 2919 2988 
L 2919 4863 
L 4044 4863 
L 4044 0 
L 2919 0 
L 2919 506 
Q 2688 197 2409 53 
Q 2131 -91 1766 -91 
Q 1119 -91 703 423 
Q 288 938 288 1747 
Q 288 2556 703 3070 
Q 1119 3584 1766 3584 
Q 2128 3584 2408 3439 
Q 2688 3294 2919 2988 
z
M 2181 722 
Q 2541 722 2730 984 
Q 2919 1247 2919 1747 
Q 2919 2247 2730 2509 
Q 2541 2772 2181 2772 
Q 1825 2772 1636 2509 
Q 1447 2247 1447 1747 
Q 1447 1247 1636 984 
Q 1825 722 2181 722 
z
" transform="scale(0.015625)"/>
      <path id="DejaVuSans-Bold-2014" d="M 344 2156 
L 6056 2156 
L 6056 1350 
L 344 1350 
L 344 2156 
z
" transform="scale(0.015625)"/>
      <path id="DejaVuSans-Bold-76" d="M 97 3500 
L 1216 3500 
L 2088 1081 
L 2956 3500 
L 4078 3500 
L 2700 0 
L 1472 0 
L 97 3500 
z
" transform="scale(0.015625)"/>
     </defs>
     <use xlink:href="#DejaVuSans-Bold-2248"/>
     <use xlink:href="#DejaVuSans-Bold-20" transform="translate(83.789062 0)"/>
     <use xlink:href="#DejaVuSans-Bold-38" transform="translate(118.603516 0)"/>
     <use xlink:href="#DejaVuSans-Bold-d7" transform="translate(188.183594 0)"/>
     <use xlink:href="#DejaVuSans-Bold-20" transform="translate(271.972656 0)"/>
     <use xlink:href="#DejaVuSans-Bold-74" transform="translate(306.787109 0)"/>
     <use xlink:href="#DejaVuSans-Bold-68" transform="translate(354.589844 0)"/>
     <use xlink:href="#DejaVuSans-Bold-65" transform="translate(425.78125 0)"/>
     <use xlink:href="#DejaVuSans-Bold-20" transform="translate(493.603516 0)"/>
     <use xlink:href="#DejaVuSans-Bold-6e" transform="translate(528.417969 0)"/>
     <use xlink:href="#DejaVuSans-Bold-6f" transform="translate(599.609375 0)"/>
     <use xlink:href="#DejaVuSans-Bold-69" transform="translate(668.310547 0)"/>
     <use xlink:href="#DejaVuSans-Bold-73" transform="translate(702.587891 0)"/>
     <use xlink:href="#DejaVuSans-Bold-65" transform="translate(762.109375 0)"/>
     <use xlink:href="#DejaVuSans-Bold-20" transform="translate(829.931641 0)"/>
     <use xlink:href="#DejaVuSans-Bold-62" transform="translate(864.746094 0)"/>
     <use xlink:href="#DejaVuSans-Bold-61" transform="translate(936.328125 0)"/>
     <use xlink:href="#DejaVuSans-Bold-6e" transform="translate(1003.808594 0)"/>
     <use xlink:href="#DejaVuSans-Bold-64" transform="translate(1075 0)"/>
     <use xlink:href="#DejaVuSans-Bold-20" transform="translate(1146.582031 0)"/>
     <use xlink:href="#DejaVuSans-Bold-2014" transform="translate(1181.396484 0)"/>
     <use xlink:href="#DejaVuSans-Bold-20" transform="translate(1281.396484 0)"/>
     <use xlink:href="#DejaVuSans-Bold-63" transform="translate(1316.210938 0)"/>
     <use xlink:href="#DejaVuSans-Bold-6f" transform="translate(1375.488281 0)"/>
     <use xlink:href="#DejaVuSans-Bold-6e" transform="translate(1444.189453 0)"/>
     <use xlink:href="#DejaVuSans-Bold-63" transform="translate(1515.380859 0)"/>
     <use xlink:href="#DejaVuSans-Bold-6c" transform="translate(1574.658203 0)"/>
     <use xlink:href="#DejaVuSans-Bold-75" transform="translate(1608.935547 0)"/>
     <use xlink:href="#DejaVuSans-Bold-73" transform="translate(1680.126953 0)"/>
     <use xlink:href="#DejaVuSans-Bold-69" transform="translate(1739.648438 0)"/>
     <use xlink:href="#DejaVuSans-Bold-76" transform="translate(1773.925781 0)"/>
     <use xlink:href="#DejaVuSans-Bold-65" transform="translate(1839.111328 0)"/>
    </g>
   </g>
  </g>
 </g>
 <defs>
  <clipPath id="p2142d82229">
   <rect x="52.22" y="44.016" width="411.965686" height="266.104"/>
  </clipPath>
  <clipPath id="p25f0e7ad6f">
   <rect x="527.655686" y="44.016" width="265.784314" height="266.104"/>
  </clipPath>
 </defs>
</svg>
